{"glyphs":{"0":{"ha":622,"x_min":35,"x_max":588,"o":"m 261 -18 q 97 45 160 -18 q 35 210 35 108 q 40 272 35 243 q 103 418 56 354 q 219 518 150 482 q 365 554 288 554 q 526 494 465 554 q 588 332 588 433 q 582 268 588 297 q 519 119 565 185 q 405 18 472 54 q 261 -18 338 -18 m 285 10 q 385 77 344 10 q 440 251 425 144 q 447 343 447 307 q 419 478 447 429 q 344 526 392 526 q 242 460 288 526 q 181 283 197 394 q 175 201 175 246 q 203 63 175 115 q 285 10 231 10 z "},"1":{"ha":404,"x_min":1,"x_max":354,"o":"m 7 0 q 1 8 1 0 q 7 17 1 17 q 78 24 54 17 q 113 51 101 31 q 133 113 125 71 l 182 379 q 188 417 188 410 q 165 442 188 442 q 71 410 139 442 l 68 408 q 62 416 64 408 q 64 428 60 424 l 322 554 q 329 554 325 557 q 332 547 333 551 l 253 113 q 249 71 249 88 q 269 27 249 38 q 349 17 290 17 q 354 8 354 17 q 349 0 354 0 q 278 1 304 0 l 179 3 l 79 1 q 7 0 53 0 z "},"2":{"ha":518,"x_min":-1,"x_max":464,"o":"m 1 22 q 191 196 131 138 q 283 299 251 254 q 322 390 314 344 q 325 422 325 413 q 307 486 325 461 q 253 511 289 511 q 174 470 210 511 q 99 347 139 429 q 94 346 97 346 q 86 348 90 346 q 83 354 82 350 l 165 571 l 171 574 q 180 571 176 574 q 182 563 183 568 q 175 536 175 542 q 188 524 175 524 q 226 533 200 524 q 328 554 283 554 q 422 524 389 554 q 456 446 456 494 q 431 356 456 396 q 371 287 407 317 q 274 214 335 257 q 206 165 240 190 q 147 114 172 139 q 147 111 143 111 q 361 125 294 111 q 449 189 428 139 q 453 190 449 190 q 460 188 457 190 q 463 183 464 186 l 404 10 q 402 3 404 6 q 394 0 400 0 l 11 0 q 1 8 4 0 q 1 22 -1 15 z "},"3":{"ha":492,"x_min":-58,"x_max":442,"o":"m 442 421 q 392 281 442 347 q 263 182 342 214 q 370 123 335 168 q 406 17 406 78 q 401 -25 406 -4 q 337 -155 390 -89 q 186 -281 283 -221 q -47 -383 89 -340 q -54 -377 -50 -385 q -54 -367 -58 -369 q 171 -212 93 -307 q 265 -26 249 -118 q 269 21 269 -1 q 240 113 269 79 q 157 146 210 146 q 106 135 135 146 l 104 135 q 94 144 97 135 q 99 156 92 154 q 242 233 192 181 q 308 381 293 286 q 315 440 315 418 q 261 515 315 515 q 158 474 208 515 q 68 358 108 433 q 61 356 67 356 q 53 358 57 356 q 51 365 50 361 l 132 561 q 136 564 135 564 q 144 561 140 564 q 146 554 147 558 q 142 538 142 544 q 160 524 142 524 q 204 535 175 524 q 258 549 236 544 q 307 554 281 554 q 407 516 372 554 q 442 421 442 478 z "},"4":{"ha":601,"x_min":-18,"x_max":514,"o":"m 510 93 q 513 81 513 93 q 508 34 513 61 q 499 7 503 7 l 417 11 l 376 -219 q 364 -239 374 -235 l 261 -261 q 253 -264 253 -264 q 250 -253 249 -264 l 297 15 q -8 17 214 17 q -16 22 -14 17 q -12 32 -18 26 l 494 563 q 500 564 496 564 q 511 556 514 564 l 431 90 q 510 93 454 90 m 93 86 q 310 88 246 86 l 361 383 l 88 96 q 93 86 78 86 z "},"5":{"ha":519,"x_min":-44,"x_max":510,"o":"m 494 588 q 499 590 497 590 q 506 588 503 590 q 508 582 510 585 l 458 447 q 442 426 450 431 q 418 422 435 422 l 171 415 q 147 396 156 415 l 108 272 q 342 214 267 269 q 418 64 418 158 q 413 13 418 49 q 288 -192 392 -101 q -32 -382 183 -283 l -33 -382 q -42 -376 -39 -382 q -39 -367 -44 -369 q 185 -197 114 -282 q 271 -11 256 -111 q 275 43 275 18 q 224 181 275 131 q 75 232 172 232 q 67 237 69 232 q 67 249 64 242 l 150 496 q 156 508 153 506 q 169 511 158 510 q 392 540 335 532 q 467 558 449 549 q 494 588 485 567 z "},"6":{"ha":590,"x_min":43,"x_max":632,"o":"m 272 -18 q 103 40 163 -18 q 43 206 43 97 q 51 289 43 243 q 153 541 75 415 q 353 767 232 667 q 622 918 475 867 q 630 911 628 919 q 626 901 632 903 q 414 746 507 842 q 264 538 321 650 q 189 314 207 425 q 181 222 181 267 q 215 72 181 128 q 314 15 250 15 q 380 51 353 15 q 418 161 407 86 q 422 215 422 189 q 400 310 422 275 q 333 344 378 344 q 260 318 303 344 l 257 317 q 251 322 254 317 q 249 328 247 326 q 400 392 311 392 q 519 348 481 392 q 558 240 558 304 q 554 197 558 218 q 501 88 542 136 q 400 10 460 39 q 272 -18 340 -18 z "},"7":{"ha":544,"x_min":-28,"x_max":543,"o":"m -19 -382 q -25 -379 -22 -383 q -26 -372 -28 -375 l 457 421 q 453 431 463 431 q 203 424 275 431 q 106 400 132 418 q 58 335 79 382 q 53 332 58 332 q 44 334 49 332 q 42 339 40 336 l 133 576 q 138 579 133 579 q 147 576 142 579 q 150 572 151 574 q 144 553 144 556 q 157 540 144 543 q 201 536 169 536 l 533 536 q 541 530 539 536 q 540 518 543 524 l 135 -306 q 103 -339 122 -329 l -19 -382 z "},"8":{"ha":611,"x_min":28,"x_max":579,"o":"m 422 483 q 506 421 475 446 q 558 358 536 396 q 579 269 579 319 q 575 224 579 249 q 513 95 560 150 q 401 11 467 40 q 268 -18 336 -18 q 139 8 193 -18 q 56 78 85 33 q 28 175 28 122 q 101 342 28 261 q 269 467 174 422 q 201 530 225 499 q 176 606 176 561 q 179 633 176 614 q 259 754 193 711 q 403 797 325 797 q 497 775 458 797 q 555 720 536 753 q 574 654 574 688 q 534 564 574 606 q 422 483 494 522 m 296 654 q 323 570 296 606 q 401 499 350 535 q 458 646 458 568 q 437 733 458 696 q 382 769 415 769 q 322 735 347 769 q 296 654 296 700 m 444 183 q 449 228 449 207 q 426 322 449 282 q 374 389 404 363 q 290 451 343 415 q 210 363 240 417 q 169 243 179 310 q 167 199 167 228 q 203 68 167 121 q 307 15 239 15 q 396 61 357 15 q 444 183 435 107 z "},"9":{"ha":592,"x_min":-39,"x_max":546,"o":"m -29 -382 q -37 -376 -35 -383 q -35 -365 -39 -368 q 178 -207 83 -307 q 330 7 272 -107 q 404 222 388 121 q 411 304 411 268 q 377 458 411 397 q 281 519 343 519 q 176 392 196 519 q 174 347 174 361 q 199 237 174 281 q 268 193 224 193 q 336 221 296 193 q 340 222 338 222 q 347 219 344 222 q 349 213 350 215 q 204 144 290 144 q 79 197 124 144 q 35 319 35 250 q 75 438 35 383 q 182 523 115 492 q 324 554 249 554 q 485 494 425 554 q 546 325 546 435 q 539 247 546 293 q 440 -3 518 122 q 240 -230 361 -129 q -29 -382 118 -331 z "},"\u0000":{"ha":0,"x_min":0,"x_max":0,"o":""},"\r":{"ha":325,"x_min":0,"x_max":0,"o":""}," ":{"ha":325,"x_min":0,"x_max":0,"o":""},"A":{"ha":840,"x_min":-53,"x_max":801,"o":"m 796 17 q 801 8 801 17 q 796 0 801 0 q 726 3 774 0 q 642 6 674 6 q 561 3 611 6 q 494 0 517 0 q 489 8 489 0 q 494 17 489 17 q 554 29 536 17 q 572 72 572 42 q 567 117 572 94 l 507 410 l 307 410 l 181 179 q 144 78 144 114 q 171 31 144 46 q 251 17 197 17 q 256 8 257 17 q 250 0 256 0 q 179 3 232 0 q 81 6 115 6 q 13 3 51 6 q -47 0 -26 0 q -53 8 -53 0 q -47 17 -53 17 q 44 61 -8 17 q 143 189 97 106 l 531 881 q 542 885 533 885 q 550 883 546 885 q 556 879 554 882 l 707 117 q 722 53 715 71 q 744 26 728 35 q 796 17 761 17 m 329 449 l 500 449 l 454 676 l 329 449 z "},"Á":{"ha":840,"x_min":-53,"x_max":801,"o":"m 796 17 q 801 8 801 17 q 796 0 801 0 q 726 3 774 0 q 642 6 674 6 q 561 3 611 6 q 494 0 517 0 q 489 8 489 0 q 494 17 489 17 q 554 29 536 17 q 572 72 572 42 q 567 117 572 94 l 507 410 l 307 410 l 181 179 q 144 78 144 114 q 171 31 144 46 q 251 17 197 17 q 256 8 257 17 q 250 0 256 0 q 179 3 232 0 q 81 6 115 6 q 13 3 51 6 q -47 0 -26 0 q -53 8 -53 0 q -47 17 -53 17 q 44 61 -8 17 q 143 189 97 106 l 531 881 q 542 885 533 885 q 550 883 546 885 q 556 879 554 882 l 707 117 q 722 53 715 71 q 744 26 728 35 q 796 17 761 17 m 329 449 l 500 449 l 454 676 l 329 449 m 464 942 q 457 948 458 942 q 460 957 456 954 q 576 1053 501 988 q 633 1101 631 1099 q 684 1097 642 1108 q 759 1069 726 1085 q 775 1050 792 1053 q 617 1003 689 1029 q 467 943 546 978 l 464 942 z "},"Ă":{"ha":840,"x_min":-53,"x_max":801,"o":"m 796 17 q 801 8 801 17 q 796 0 801 0 q 726 3 774 0 q 642 6 674 6 q 561 3 611 6 q 494 0 517 0 q 489 8 489 0 q 494 17 489 17 q 554 29 536 17 q 572 72 572 42 q 567 117 572 94 l 507 410 l 307 410 l 181 179 q 144 78 144 114 q 171 31 144 46 q 251 17 197 17 q 256 8 257 17 q 250 0 256 0 q 179 3 232 0 q 81 6 115 6 q 13 3 51 6 q -47 0 -26 0 q -53 8 -53 0 q -47 17 -53 17 q 44 61 -8 17 q 143 189 97 106 l 531 881 q 542 885 533 885 q 550 883 546 885 q 556 879 554 882 l 707 117 q 722 53 715 71 q 744 26 728 35 q 796 17 761 17 m 329 449 l 500 449 l 454 676 l 329 449 m 542 924 q 444 958 483 924 q 406 1058 406 993 q 439 1074 406 1067 q 500 1081 472 1081 q 521 1076 521 1081 q 550 1023 525 1042 q 608 1004 575 1004 q 660 1021 635 1004 q 703 1071 686 1038 q 711 1075 707 1075 q 722 1072 717 1075 q 726 1067 728 1069 q 644 961 696 999 q 542 924 593 924 z "},"Ắ":{"ha":840,"x_min":-53,"x_max":829,"o":"m 796 17 q 801 8 801 17 q 796 0 801 0 q 726 3 774 0 q 642 6 674 6 q 561 3 611 6 q 494 0 517 0 q 489 8 489 0 q 494 17 489 17 q 554 29 536 17 q 572 72 572 42 q 567 117 572 94 l 507 410 l 307 410 l 181 179 q 144 78 144 114 q 171 31 144 46 q 251 17 197 17 q 256 8 257 17 q 250 0 256 0 q 179 3 232 0 q 81 6 115 6 q 13 3 51 6 q -47 0 -26 0 q -53 8 -53 0 q -47 17 -53 17 q 44 61 -8 17 q 143 189 97 106 l 531 881 q 542 885 533 885 q 550 883 546 885 q 556 879 554 882 l 707 117 q 722 53 715 71 q 744 26 728 35 q 796 17 761 17 m 329 449 l 500 449 l 454 676 l 329 449 m 539 924 q 442 958 481 924 q 403 1058 403 993 q 436 1074 403 1067 q 497 1081 469 1081 q 518 1076 518 1081 q 547 1023 522 1042 q 606 1004 572 1004 q 658 1021 632 1004 q 700 1071 683 1038 q 708 1075 704 1075 q 719 1072 714 1075 q 724 1067 725 1069 q 642 961 693 999 q 539 924 590 924 m 590 1061 q 584 1067 586 1061 q 585 1078 582 1074 q 690 1222 653 1164 q 701 1226 693 1226 q 757 1215 721 1226 q 815 1190 793 1203 q 824 1171 838 1176 q 593 1063 706 1131 l 590 1061 z "},"Ặ":{"ha":840,"x_min":-53,"x_max":801,"o":"m 796 17 q 801 8 801 17 q 796 0 801 0 q 726 3 774 0 q 642 6 674 6 q 561 3 611 6 q 494 0 517 0 q 489 8 489 0 q 494 17 489 17 q 554 29 536 17 q 572 72 572 42 q 567 117 572 94 l 507 410 l 307 410 l 181 179 q 144 78 144 114 q 171 31 144 46 q 251 17 197 17 q 256 8 257 17 q 250 0 256 0 q 179 3 232 0 q 81 6 115 6 q 13 3 51 6 q -47 0 -26 0 q -53 8 -53 0 q -47 17 -53 17 q 44 61 -8 17 q 143 189 97 106 l 531 881 q 542 885 533 885 q 550 883 546 885 q 556 879 554 882 l 707 117 q 722 53 715 71 q 744 26 728 35 q 796 17 761 17 m 329 449 l 500 449 l 454 676 l 329 449 m 346 -282 q 288 -261 308 -282 q 267 -201 267 -240 q 288 -147 267 -168 q 346 -126 310 -126 q 402 -147 382 -126 q 422 -201 422 -168 q 402 -261 422 -240 q 346 -282 382 -282 m 542 924 q 444 958 483 924 q 406 1058 406 993 q 439 1074 406 1067 q 500 1081 472 1081 q 521 1076 521 1081 q 550 1023 525 1042 q 608 1004 575 1004 q 660 1021 635 1004 q 703 1071 686 1038 q 711 1075 707 1075 q 722 1072 717 1075 q 726 1067 728 1069 q 644 961 696 999 q 542 924 593 924 z "},"Ằ":{"ha":840,"x_min":-53,"x_max":801,"o":"m 796 17 q 801 8 801 17 q 796 0 801 0 q 726 3 774 0 q 642 6 674 6 q 561 3 611 6 q 494 0 517 0 q 489 8 489 0 q 494 17 489 17 q 554 29 536 17 q 572 72 572 42 q 567 117 572 94 l 507 410 l 307 410 l 181 179 q 144 78 144 114 q 171 31 144 46 q 251 17 197 17 q 256 8 257 17 q 250 0 256 0 q 179 3 232 0 q 81 6 115 6 q 13 3 51 6 q -47 0 -26 0 q -53 8 -53 0 q -47 17 -53 17 q 44 61 -8 17 q 143 189 97 106 l 531 881 q 542 885 533 885 q 550 883 546 885 q 556 879 554 882 l 707 117 q 722 53 715 71 q 744 26 728 35 q 796 17 761 17 m 329 449 l 500 449 l 454 676 l 329 449 m 553 924 q 456 958 494 924 q 417 1058 417 993 q 450 1074 417 1067 q 511 1081 483 1081 q 532 1076 532 1081 q 561 1023 536 1042 q 619 1004 586 1004 q 672 1021 646 1004 q 714 1071 697 1038 q 722 1075 718 1075 q 733 1072 728 1075 q 738 1067 739 1069 q 656 961 707 999 q 553 924 604 924 m 649 1063 q 461 1171 563 1128 q 475 1190 449 1176 q 541 1215 501 1203 q 600 1226 581 1226 q 611 1222 610 1226 q 663 1078 631 1149 l 663 1076 q 658 1066 663 1071 q 649 1063 654 1061 z "},"Ẳ":{"ha":840,"x_min":-53,"x_max":801,"o":"m 796 17 q 801 8 801 17 q 796 0 801 0 q 726 3 774 0 q 642 6 674 6 q 561 3 611 6 q 494 0 517 0 q 489 8 489 0 q 494 17 489 17 q 554 29 536 17 q 572 72 572 42 q 567 117 572 94 l 507 410 l 307 410 l 181 179 q 144 78 144 114 q 171 31 144 46 q 251 17 197 17 q 256 8 257 17 q 250 0 256 0 q 179 3 232 0 q 81 6 115 6 q 13 3 51 6 q -47 0 -26 0 q -53 8 -53 0 q -47 17 -53 17 q 44 61 -8 17 q 143 189 97 106 l 531 881 q 542 885 533 885 q 550 883 546 885 q 556 879 554 882 l 707 117 q 722 53 715 71 q 744 26 728 35 q 796 17 761 17 m 329 449 l 500 449 l 454 676 l 329 449 m 539 924 q 442 958 481 924 q 403 1058 403 993 q 436 1074 403 1067 q 497 1081 469 1081 q 518 1076 518 1081 q 547 1023 522 1042 q 606 1004 572 1004 q 658 1021 632 1004 q 700 1071 683 1038 q 708 1075 704 1075 q 719 1072 714 1075 q 724 1067 725 1069 q 642 961 693 999 q 539 924 590 924 m 599 1053 q 603 1085 597 1071 q 622 1125 608 1100 q 638 1154 631 1139 q 644 1183 644 1169 q 633 1208 644 1200 q 608 1217 622 1217 q 583 1213 593 1217 l 581 1211 q 574 1216 576 1211 q 575 1224 572 1221 q 665 1249 621 1249 q 715 1234 696 1249 q 733 1197 733 1219 q 717 1157 733 1175 q 669 1115 700 1139 q 629 1082 643 1096 q 614 1053 615 1068 q 606 1049 613 1050 q 599 1053 599 1049 z "},"Ẵ":{"ha":840,"x_min":-53,"x_max":801,"o":"m 796 17 q 801 8 801 17 q 796 0 801 0 q 726 3 774 0 q 642 6 674 6 q 561 3 611 6 q 494 0 517 0 q 489 8 489 0 q 494 17 489 17 q 554 29 536 17 q 572 72 572 42 q 567 117 572 94 l 507 410 l 307 410 l 181 179 q 144 78 144 114 q 171 31 144 46 q 251 17 197 17 q 256 8 257 17 q 250 0 256 0 q 179 3 232 0 q 81 6 115 6 q 13 3 51 6 q -47 0 -26 0 q -53 8 -53 0 q -47 17 -53 17 q 44 61 -8 17 q 143 189 97 106 l 531 881 q 542 885 533 885 q 550 883 546 885 q 556 879 554 882 l 707 117 q 722 53 715 71 q 744 26 728 35 q 796 17 761 17 m 329 449 l 500 449 l 454 676 l 329 449 m 535 924 q 438 958 476 924 q 399 1058 399 993 q 432 1074 399 1067 q 493 1081 465 1081 q 514 1076 514 1081 q 543 1023 518 1042 q 601 1004 568 1004 q 653 1021 628 1004 q 696 1071 679 1038 q 704 1075 700 1075 q 715 1072 710 1075 q 719 1067 721 1069 q 638 961 689 999 q 535 924 586 924 m 396 1118 q 393 1117 396 1117 q 388 1121 390 1117 q 386 1128 385 1125 q 450 1208 417 1175 q 525 1240 483 1240 q 561 1234 539 1240 q 590 1226 583 1228 q 692 1206 658 1206 q 741 1214 722 1206 q 781 1243 760 1222 l 782 1243 q 789 1240 786 1243 q 790 1233 792 1236 q 722 1143 749 1165 q 658 1121 694 1121 q 581 1138 636 1121 q 544 1147 575 1139 q 485 1156 513 1156 q 438 1149 453 1156 q 412 1133 424 1143 q 396 1118 400 1122 z "},"Ǎ":{"ha":840,"x_min":-53,"x_max":801,"o":"m 796 17 q 801 8 801 17 q 796 0 801 0 q 726 3 774 0 q 642 6 674 6 q 561 3 611 6 q 494 0 517 0 q 489 8 489 0 q 494 17 489 17 q 554 29 536 17 q 572 72 572 42 q 567 117 572 94 l 507 410 l 307 410 l 181 179 q 144 78 144 114 q 171 31 144 46 q 251 17 197 17 q 256 8 257 17 q 250 0 256 0 q 179 3 232 0 q 81 6 115 6 q 13 3 51 6 q -47 0 -26 0 q -53 8 -53 0 q -47 17 -53 17 q 44 61 -8 17 q 143 189 97 106 l 531 881 q 542 885 533 885 q 550 883 546 885 q 556 879 554 882 l 707 117 q 722 53 715 71 q 744 26 728 35 q 796 17 761 17 m 329 449 l 500 449 l 454 676 l 329 449 m 418 1099 l 418 1100 q 422 1106 418 1103 q 429 1108 426 1110 l 560 1054 l 713 1108 q 720 1105 715 1110 q 721 1099 725 1100 l 560 938 q 546 932 554 932 q 535 938 539 932 l 418 1099 z "},"Â":{"ha":840,"x_min":-53,"x_max":801,"o":"m 796 17 q 801 8 801 17 q 796 0 801 0 q 726 3 774 0 q 642 6 674 6 q 561 3 611 6 q 494 0 517 0 q 489 8 489 0 q 494 17 489 17 q 554 29 536 17 q 572 72 572 42 q 567 117 572 94 l 507 410 l 307 410 l 181 179 q 144 78 144 114 q 171 31 144 46 q 251 17 197 17 q 256 8 257 17 q 250 0 256 0 q 179 3 232 0 q 81 6 115 6 q 13 3 51 6 q -47 0 -26 0 q -53 8 -53 0 q -47 17 -53 17 q 44 61 -8 17 q 143 189 97 106 l 531 881 q 542 885 533 885 q 550 883 546 885 q 556 879 554 882 l 707 117 q 722 53 715 71 q 744 26 728 35 q 796 17 761 17 m 329 449 l 500 449 l 454 676 l 329 449 m 404 917 q 397 920 400 917 q 397 926 394 924 l 558 1086 q 571 1093 563 1093 q 583 1086 579 1093 l 699 926 l 700 924 q 696 918 700 921 q 689 917 692 915 l 558 969 l 406 917 l 404 917 z "},"Ấ":{"ha":840,"x_min":-53,"x_max":897,"o":"m 796 17 q 801 8 801 17 q 796 0 801 0 q 726 3 774 0 q 642 6 674 6 q 561 3 611 6 q 494 0 517 0 q 489 8 489 0 q 494 17 489 17 q 554 29 536 17 q 572 72 572 42 q 567 117 572 94 l 507 410 l 307 410 l 181 179 q 144 78 144 114 q 171 31 144 46 q 251 17 197 17 q 256 8 257 17 q 250 0 256 0 q 179 3 232 0 q 81 6 115 6 q 13 3 51 6 q -47 0 -26 0 q -53 8 -53 0 q -47 17 -53 17 q 44 61 -8 17 q 143 189 97 106 l 531 881 q 542 885 533 885 q 550 883 546 885 q 556 879 554 882 l 707 117 q 722 53 715 71 q 744 26 728 35 q 796 17 761 17 m 329 449 l 500 449 l 454 676 l 329 449 m 403 917 q 396 920 399 917 q 396 926 393 924 l 557 1086 q 569 1093 561 1093 q 582 1086 578 1093 l 697 926 l 699 924 q 694 918 699 921 q 688 917 690 915 l 557 969 l 404 917 l 403 917 m 658 1004 q 652 1010 654 1004 q 653 1021 650 1017 q 758 1165 721 1107 q 769 1169 761 1169 q 825 1158 789 1169 q 883 1133 861 1146 q 892 1114 906 1119 q 661 1006 774 1074 l 658 1004 z "},"Ậ":{"ha":840,"x_min":-53,"x_max":801,"o":"m 796 17 q 801 8 801 17 q 796 0 801 0 q 726 3 774 0 q 642 6 674 6 q 561 3 611 6 q 494 0 517 0 q 489 8 489 0 q 494 17 489 17 q 554 29 536 17 q 572 72 572 42 q 567 117 572 94 l 507 410 l 307 410 l 181 179 q 144 78 144 114 q 171 31 144 46 q 251 17 197 17 q 256 8 257 17 q 250 0 256 0 q 179 3 232 0 q 81 6 115 6 q 13 3 51 6 q -47 0 -26 0 q -53 8 -53 0 q -47 17 -53 17 q 44 61 -8 17 q 143 189 97 106 l 531 881 q 542 885 533 885 q 550 883 546 885 q 556 879 554 882 l 707 117 q 722 53 715 71 q 744 26 728 35 q 796 17 761 17 m 329 449 l 500 449 l 454 676 l 329 449 m 346 -282 q 288 -261 308 -282 q 267 -201 267 -240 q 288 -147 267 -168 q 346 -126 310 -126 q 402 -147 382 -126 q 422 -201 422 -168 q 402 -261 422 -240 q 346 -282 382 -282 m 404 917 q 397 920 400 917 q 397 926 394 924 l 558 1086 q 571 1093 563 1093 q 583 1086 579 1093 l 699 926 l 700 924 q 696 918 700 921 q 689 917 692 915 l 558 969 l 406 917 l 404 917 z "},"Ầ":{"ha":840,"x_min":-53,"x_max":801,"o":"m 796 17 q 801 8 801 17 q 796 0 801 0 q 726 3 774 0 q 642 6 674 6 q 561 3 611 6 q 494 0 517 0 q 489 8 489 0 q 494 17 489 17 q 554 29 536 17 q 572 72 572 42 q 567 117 572 94 l 507 410 l 307 410 l 181 179 q 144 78 144 114 q 171 31 144 46 q 251 17 197 17 q 256 8 257 17 q 250 0 256 0 q 179 3 232 0 q 81 6 115 6 q 13 3 51 6 q -47 0 -26 0 q -53 8 -53 0 q -47 17 -53 17 q 44 61 -8 17 q 143 189 97 106 l 531 881 q 542 885 533 885 q 550 883 546 885 q 556 879 554 882 l 707 117 q 722 53 715 71 q 744 26 728 35 q 796 17 761 17 m 329 449 l 500 449 l 454 676 l 329 449 m 401 917 q 394 920 397 917 q 394 926 392 924 l 556 1086 q 568 1093 560 1093 q 581 1086 576 1093 l 696 926 l 697 924 q 693 918 697 921 q 686 917 689 915 l 556 969 l 403 917 l 401 917 m 786 993 q 599 1101 700 1058 q 613 1120 586 1107 q 678 1145 639 1133 q 738 1157 718 1157 q 749 1153 747 1157 q 800 1008 768 1079 l 800 1007 q 796 997 800 1001 q 786 993 792 992 z "},"Ẩ":{"ha":840,"x_min":-53,"x_max":801,"o":"m 796 17 q 801 8 801 17 q 796 0 801 0 q 726 3 774 0 q 642 6 674 6 q 561 3 611 6 q 494 0 517 0 q 489 8 489 0 q 494 17 489 17 q 554 29 536 17 q 572 72 572 42 q 567 117 572 94 l 507 410 l 307 410 l 181 179 q 144 78 144 114 q 171 31 144 46 q 251 17 197 17 q 256 8 257 17 q 250 0 256 0 q 179 3 232 0 q 81 6 115 6 q 13 3 51 6 q -47 0 -26 0 q -53 8 -53 0 q -47 17 -53 17 q 44 61 -8 17 q 143 189 97 106 l 531 881 q 542 885 533 885 q 550 883 546 885 q 556 879 554 882 l 707 117 q 722 53 715 71 q 744 26 728 35 q 796 17 761 17 m 329 449 l 500 449 l 454 676 l 329 449 m 400 917 q 393 920 396 917 q 393 926 390 924 l 554 1086 q 567 1093 558 1093 q 579 1086 575 1093 l 694 926 l 696 924 q 692 918 696 921 q 685 917 688 915 l 554 969 l 401 917 l 400 917 m 664 996 q 668 1028 663 1014 q 688 1068 674 1043 q 703 1097 696 1082 q 710 1126 710 1113 q 699 1151 710 1143 q 674 1160 688 1160 q 649 1156 658 1160 l 646 1154 q 640 1159 642 1154 q 640 1167 638 1164 q 731 1192 686 1192 q 780 1177 761 1192 q 799 1140 799 1163 q 782 1100 799 1118 q 735 1058 765 1082 q 694 1025 708 1039 q 679 996 681 1011 q 671 992 678 993 q 664 996 664 992 z "},"Ẫ":{"ha":840,"x_min":-53,"x_max":801,"o":"m 796 17 q 801 8 801 17 q 796 0 801 0 q 726 3 774 0 q 642 6 674 6 q 561 3 611 6 q 494 0 517 0 q 489 8 489 0 q 494 17 489 17 q 554 29 536 17 q 572 72 572 42 q 567 117 572 94 l 507 410 l 307 410 l 181 179 q 144 78 144 114 q 171 31 144 46 q 251 17 197 17 q 256 8 257 17 q 250 0 256 0 q 179 3 232 0 q 81 6 115 6 q 13 3 51 6 q -47 0 -26 0 q -53 8 -53 0 q -47 17 -53 17 q 44 61 -8 17 q 143 189 97 106 l 531 881 q 542 885 533 885 q 550 883 546 885 q 556 879 554 882 l 707 117 q 722 53 715 71 q 744 26 728 35 q 796 17 761 17 m 329 449 l 500 449 l 454 676 l 329 449 m 393 917 q 386 920 389 917 q 386 926 383 924 l 547 1086 q 560 1093 551 1093 q 572 1086 568 1093 l 688 926 l 689 924 q 685 918 689 921 q 678 917 681 915 l 547 969 l 394 917 l 393 917 m 392 1104 q 385 1108 388 1104 q 383 1114 382 1111 q 447 1194 414 1161 q 521 1226 481 1226 q 586 1213 536 1226 q 639 1198 611 1204 q 689 1192 667 1192 q 737 1200 718 1192 q 776 1229 756 1208 q 779 1231 776 1231 q 785 1226 782 1231 q 786 1219 788 1222 q 717 1131 744 1153 q 654 1108 690 1108 q 576 1124 628 1108 q 528 1136 553 1131 q 481 1142 503 1142 q 433 1135 447 1142 q 393 1104 418 1128 l 392 1104 z "},"Ä":{"ha":840,"x_min":-53,"x_max":801,"o":"m 796 17 q 801 8 801 17 q 796 0 801 0 q 726 3 774 0 q 642 6 674 6 q 561 3 611 6 q 494 0 517 0 q 489 8 489 0 q 494 17 489 17 q 554 29 536 17 q 572 72 572 42 q 567 117 572 94 l 507 410 l 307 410 l 181 179 q 144 78 144 114 q 171 31 144 46 q 251 17 197 17 q 256 8 257 17 q 250 0 256 0 q 179 3 232 0 q 81 6 115 6 q 13 3 51 6 q -47 0 -26 0 q -53 8 -53 0 q -47 17 -53 17 q 44 61 -8 17 q 143 189 97 106 l 531 881 q 542 885 533 885 q 550 883 546 885 q 556 879 554 882 l 707 117 q 722 53 715 71 q 744 26 728 35 q 796 17 761 17 m 329 449 l 500 449 l 454 676 l 329 449 m 458 976 q 403 997 422 976 q 383 1053 383 1017 q 403 1105 383 1086 q 458 1124 424 1124 q 510 1105 492 1124 q 529 1053 529 1086 q 510 997 529 1017 q 458 976 492 976 m 679 976 q 624 997 643 976 q 604 1053 604 1017 q 624 1105 604 1086 q 679 1124 644 1124 q 731 1105 713 1124 q 750 1053 750 1086 q 731 997 750 1017 q 679 976 713 976 z "},"Ạ":{"ha":840,"x_min":-53,"x_max":801,"o":"m 796 17 q 801 8 801 17 q 796 0 801 0 q 726 3 774 0 q 642 6 674 6 q 561 3 611 6 q 494 0 517 0 q 489 8 489 0 q 494 17 489 17 q 554 29 536 17 q 572 72 572 42 q 567 117 572 94 l 507 410 l 307 410 l 181 179 q 144 78 144 114 q 171 31 144 46 q 251 17 197 17 q 256 8 257 17 q 250 0 256 0 q 179 3 232 0 q 81 6 115 6 q 13 3 51 6 q -47 0 -26 0 q -53 8 -53 0 q -47 17 -53 17 q 44 61 -8 17 q 143 189 97 106 l 531 881 q 542 885 533 885 q 550 883 546 885 q 556 879 554 882 l 707 117 q 722 53 715 71 q 744 26 728 35 q 796 17 761 17 m 329 449 l 500 449 l 454 676 l 329 449 m 346 -282 q 288 -261 308 -282 q 267 -201 267 -240 q 288 -147 267 -168 q 346 -126 310 -126 q 402 -147 382 -126 q 422 -201 422 -168 q 402 -261 422 -240 q 346 -282 382 -282 z "},"À":{"ha":840,"x_min":-53,"x_max":801,"o":"m 796 17 q 801 8 801 17 q 796 0 801 0 q 726 3 774 0 q 642 6 674 6 q 561 3 611 6 q 494 0 517 0 q 489 8 489 0 q 494 17 489 17 q 554 29 536 17 q 572 72 572 42 q 567 117 572 94 l 507 410 l 307 410 l 181 179 q 144 78 144 114 q 171 31 144 46 q 251 17 197 17 q 256 8 257 17 q 250 0 256 0 q 179 3 232 0 q 81 6 115 6 q 13 3 51 6 q -47 0 -26 0 q -53 8 -53 0 q -47 17 -53 17 q 44 61 -8 17 q 143 189 97 106 l 531 881 q 542 885 533 885 q 550 883 546 885 q 556 879 554 882 l 707 117 q 722 53 715 71 q 744 26 728 35 q 796 17 761 17 m 329 449 l 500 449 l 454 676 l 329 449 m 663 961 q 538 1006 592 989 q 396 1050 485 1024 q 406 1067 379 1054 q 474 1092 432 1081 q 538 1103 517 1103 q 550 1100 547 1103 q 625 1024 585 1061 l 676 974 q 678 969 678 972 q 673 963 678 965 q 663 961 668 960 z "},"Ả":{"ha":840,"x_min":-53,"x_max":801,"o":"m 796 17 q 801 8 801 17 q 796 0 801 0 q 726 3 774 0 q 642 6 674 6 q 561 3 611 6 q 494 0 517 0 q 489 8 489 0 q 494 17 489 17 q 554 29 536 17 q 572 72 572 42 q 567 117 572 94 l 507 410 l 307 410 l 181 179 q 144 78 144 114 q 171 31 144 46 q 251 17 197 17 q 256 8 257 17 q 250 0 256 0 q 179 3 232 0 q 81 6 115 6 q 13 3 51 6 q -47 0 -26 0 q -53 8 -53 0 q -47 17 -53 17 q 44 61 -8 17 q 143 189 97 106 l 531 881 q 542 885 533 885 q 550 883 546 885 q 556 879 554 882 l 707 117 q 722 53 715 71 q 744 26 728 35 q 796 17 761 17 m 329 449 l 500 449 l 454 676 l 329 449 m 549 907 q 541 903 549 904 q 532 907 533 903 q 529 938 529 929 q 534 977 529 960 q 549 1022 539 994 q 563 1063 558 1046 q 568 1099 568 1079 q 529 1147 568 1147 q 479 1133 510 1147 l 476 1133 q 469 1138 472 1133 q 469 1146 465 1142 q 583 1185 519 1185 q 654 1165 628 1185 q 681 1111 681 1146 q 663 1058 681 1082 q 608 997 644 1033 q 563 947 578 967 q 549 907 549 928 z "},"Ā":{"ha":840,"x_min":-53,"x_max":801,"o":"m 796 17 q 801 8 801 17 q 796 0 801 0 q 726 3 774 0 q 642 6 674 6 q 561 3 611 6 q 494 0 517 0 q 489 8 489 0 q 494 17 489 17 q 554 29 536 17 q 572 72 572 42 q 567 117 572 94 l 507 410 l 307 410 l 181 179 q 144 78 144 114 q 171 31 144 46 q 251 17 197 17 q 256 8 257 17 q 250 0 256 0 q 179 3 232 0 q 81 6 115 6 q 13 3 51 6 q -47 0 -26 0 q -53 8 -53 0 q -47 17 -53 17 q 44 61 -8 17 q 143 189 97 106 l 531 881 q 542 885 533 885 q 550 883 546 885 q 556 879 554 882 l 707 117 q 722 53 715 71 q 744 26 728 35 q 796 17 761 17 m 329 449 l 500 449 l 454 676 l 329 449 m 411 989 q 401 997 406 989 q 397 1017 397 1006 q 401 1036 397 1028 q 411 1044 406 1044 l 728 1044 q 739 1036 735 1044 q 743 1017 743 1028 q 739 997 743 1006 q 728 989 735 989 l 411 989 z "},"Ą":{"ha":840,"x_min":-53,"x_max":801,"o":"m 796 17 q 801 8 801 17 q 796 0 801 0 l 664 1 q 585 -28 622 1 q 526 -106 549 -57 q 504 -210 504 -154 q 529 -290 504 -261 q 603 -318 554 -318 q 638 -312 625 -318 q 667 -293 651 -306 l 669 -292 q 674 -297 672 -292 q 672 -304 675 -301 q 597 -363 632 -344 q 521 -382 561 -382 q 425 -353 465 -382 q 385 -264 385 -324 q 409 -174 385 -212 q 479 -87 433 -135 q 549 -3 526 -37 q 571 79 571 32 q 567 117 571 96 l 507 410 l 307 410 l 181 179 q 144 78 144 114 q 171 31 144 46 q 251 17 197 17 q 256 8 257 17 q 250 0 256 0 q 179 3 232 0 q 81 6 115 6 q 13 3 51 6 q -47 0 -26 0 q -53 8 -53 0 q -47 17 -53 17 q 44 61 -8 17 q 143 189 97 106 l 531 881 q 542 885 533 885 q 550 883 546 885 q 556 879 554 882 l 707 117 q 737 37 718 57 q 796 17 756 17 m 329 449 l 500 449 l 454 676 l 329 449 z "},"Å":{"ha":840,"x_min":-53,"x_max":801,"o":"m 796 17 q 801 8 801 17 q 796 0 801 0 q 726 3 774 0 q 642 6 674 6 q 561 3 611 6 q 494 0 517 0 q 489 8 489 0 q 494 17 489 17 q 554 29 536 17 q 572 72 572 42 q 567 117 572 94 l 507 410 l 307 410 l 181 179 q 144 78 144 114 q 171 31 144 46 q 251 17 197 17 q 256 8 257 17 q 250 0 256 0 q 179 3 232 0 q 81 6 115 6 q 13 3 51 6 q -47 0 -26 0 q -53 8 -53 0 q -47 17 -53 17 q 44 61 -8 17 q 143 189 97 106 l 531 881 q 542 885 533 885 q 550 883 546 885 q 556 879 554 882 l 707 117 q 722 53 715 71 q 744 26 728 35 q 796 17 761 17 m 329 449 l 500 449 l 454 676 l 329 449 m 544 917 q 436 949 476 917 q 396 1028 396 982 q 446 1106 396 1078 q 557 1135 496 1135 q 662 1103 618 1135 q 706 1024 706 1071 q 656 946 706 975 q 544 917 607 917 m 565 936 q 594 951 585 936 q 603 1000 603 967 q 581 1081 603 1046 q 529 1115 560 1115 q 497 1054 497 1115 q 516 973 497 1010 q 565 936 535 936 z "},"Ǻ":{"ha":840,"x_min":-53,"x_max":801,"o":"m 796 17 q 801 8 801 17 q 796 0 801 0 q 726 3 774 0 q 642 6 674 6 q 561 3 611 6 q 494 0 517 0 q 489 8 489 0 q 494 17 489 17 q 554 29 536 17 q 572 72 572 42 q 567 117 572 94 l 507 410 l 307 410 l 181 179 q 144 78 144 114 q 171 31 144 46 q 251 17 197 17 q 256 8 257 17 q 250 0 256 0 q 179 3 232 0 q 81 6 115 6 q 13 3 51 6 q -47 0 -26 0 q -53 8 -53 0 q -47 17 -53 17 q 44 61 -8 17 q 143 189 97 106 l 531 881 q 542 885 533 885 q 550 883 546 885 q 556 879 554 882 l 707 117 q 722 53 715 71 q 744 26 728 35 q 796 17 761 17 m 329 449 l 500 449 l 454 676 l 329 449 m 472 1143 q 465 1149 467 1143 q 468 1157 463 1156 l 650 1253 q 688 1240 657 1257 q 743 1204 718 1224 q 758 1185 768 1185 q 475 1143 638 1171 l 472 1143 m 558 938 q 464 965 500 938 q 428 1032 428 993 q 472 1099 428 1074 q 572 1124 517 1124 q 676 1096 632 1124 q 719 1029 719 1068 q 671 963 719 988 q 558 938 622 938 m 581 957 q 617 1004 617 957 q 598 1075 617 1046 q 549 1104 579 1104 q 522 1092 532 1104 q 511 1060 511 1081 q 530 989 511 1021 q 581 957 549 957 z "},"Ã":{"ha":840,"x_min":-53,"x_max":801,"o":"m 796 17 q 801 8 801 17 q 796 0 801 0 q 726 3 774 0 q 642 6 674 6 q 561 3 611 6 q 494 0 517 0 q 489 8 489 0 q 494 17 489 17 q 554 29 536 17 q 572 72 572 42 q 567 117 572 94 l 507 410 l 307 410 l 181 179 q 144 78 144 114 q 171 31 144 46 q 251 17 197 17 q 256 8 257 17 q 250 0 256 0 q 179 3 232 0 q 81 6 115 6 q 13 3 51 6 q -47 0 -26 0 q -53 8 -53 0 q -47 17 -53 17 q 44 61 -8 17 q 143 189 97 106 l 531 881 q 542 885 533 885 q 550 883 546 885 q 556 879 554 882 l 707 117 q 722 53 715 71 q 744 26 728 35 q 796 17 761 17 m 329 449 l 500 449 l 454 676 l 329 449 m 381 953 q 378 951 381 951 q 372 956 375 951 q 371 963 369 960 q 435 1042 401 1010 q 510 1075 468 1075 q 546 1069 524 1075 q 575 1061 568 1063 q 676 1040 643 1040 q 726 1049 707 1040 q 765 1078 744 1057 l 767 1078 q 774 1074 771 1078 q 775 1068 776 1071 q 706 978 733 1000 q 643 956 679 956 q 565 972 621 956 q 528 982 560 974 q 469 990 497 990 q 423 984 438 990 q 397 967 408 978 q 381 953 385 957 z "},"Æ":{"ha":1072,"x_min":-85,"x_max":1067,"o":"m 1056 868 q 1064 856 1067 868 l 1035 669 q 1029 665 1035 665 q 1022 667 1025 665 q 1018 671 1018 669 q 963 801 1011 753 q 839 849 915 849 l 814 849 q 760 826 779 849 q 735 754 742 803 l 699 471 l 822 471 q 919 495 885 471 q 967 576 954 519 q 976 583 968 583 q 983 575 985 582 q 960 451 972 510 q 951 408 954 426 q 947 376 949 389 l 938 308 q 928 303 936 303 q 921 310 919 304 q 924 338 924 329 q 894 408 924 383 q 813 432 865 432 l 694 432 l 654 118 q 651 76 651 101 q 666 35 651 46 q 721 25 681 25 l 739 25 q 879 78 811 25 q 993 221 947 131 q 1002 223 994 225 q 1008 218 1010 221 q 961 21 989 160 q 954 4 958 8 q 939 0 950 0 l 421 0 q 415 8 415 0 q 421 17 415 17 q 474 24 457 17 q 501 51 492 32 q 515 113 510 71 l 557 432 l 369 432 l 189 171 q 161 94 161 131 q 189 38 161 60 q 267 17 217 17 q 272 8 272 17 q 267 0 271 0 l 172 3 q 56 6 92 6 q -18 3 24 6 q -78 0 -54 0 q -85 8 -85 0 q -78 17 -85 17 q 33 53 -21 17 q 153 188 86 89 l 571 801 q 589 836 589 829 q 569 849 589 847 q 489 851 549 851 q 483 860 483 851 q 489 868 483 868 l 1056 868 m 396 471 l 561 471 l 600 765 l 396 471 z "},"Ǽ":{"ha":1072,"x_min":-85,"x_max":1064,"o":"m 1056 868 q 1064 856 1067 868 l 1035 669 q 1029 665 1035 665 q 1022 667 1025 665 q 1018 671 1018 669 q 963 801 1011 753 q 839 849 915 849 l 814 849 q 760 826 779 849 q 735 754 742 803 l 699 471 l 822 471 q 919 495 885 471 q 967 576 954 519 q 976 583 968 583 q 983 575 985 582 q 960 451 972 510 q 951 408 954 426 q 947 376 949 389 l 938 308 q 928 303 936 303 q 921 310 919 304 q 924 338 924 329 q 894 408 924 383 q 813 432 865 432 l 694 432 l 654 118 q 651 76 651 101 q 666 35 651 46 q 721 25 681 25 l 739 25 q 879 78 811 25 q 993 221 947 131 q 1002 223 994 225 q 1008 218 1010 221 q 961 21 989 160 q 954 4 958 8 q 939 0 950 0 l 421 0 q 415 8 415 0 q 421 17 415 17 q 474 24 457 17 q 501 51 492 32 q 515 113 510 71 l 557 432 l 369 432 l 189 171 q 161 94 161 131 q 189 38 161 60 q 267 17 217 17 q 272 8 272 17 q 267 0 271 0 l 172 3 q 56 6 92 6 q -18 3 24 6 q -78 0 -54 0 q -85 8 -85 0 q -78 17 -85 17 q 33 53 -21 17 q 153 188 86 89 l 571 801 q 589 836 589 829 q 569 849 589 847 q 489 851 549 851 q 483 860 483 851 q 489 868 483 868 l 1056 868 m 396 471 l 561 471 l 600 765 l 396 471 m 707 942 q 700 948 701 942 q 703 957 699 954 q 819 1053 744 988 q 876 1101 874 1099 q 927 1097 885 1108 q 1002 1069 969 1085 q 1018 1050 1035 1053 q 860 1003 932 1029 q 710 943 789 978 l 707 942 z "},"Ǣ":{"ha":1072,"x_min":-85,"x_max":1064,"o":"m 1056 868 q 1064 856 1067 868 l 1035 669 q 1029 665 1035 665 q 1022 667 1025 665 q 1018 671 1018 669 q 963 801 1011 753 q 839 849 915 849 l 814 849 q 760 826 779 849 q 735 754 742 803 l 699 471 l 822 471 q 919 495 885 471 q 967 576 954 519 q 976 583 968 583 q 983 575 985 582 q 960 451 972 510 q 951 408 954 426 q 947 376 949 389 l 938 308 q 928 303 936 303 q 921 310 919 304 q 924 338 924 329 q 894 408 924 383 q 813 432 865 432 l 694 432 l 654 118 q 651 76 651 101 q 666 35 651 46 q 721 25 681 25 l 739 25 q 879 78 811 25 q 993 221 947 131 q 1002 223 994 225 q 1008 218 1010 221 q 961 21 989 160 q 954 4 958 8 q 939 0 950 0 l 421 0 q 415 8 415 0 q 421 17 415 17 q 474 24 457 17 q 501 51 492 32 q 515 113 510 71 l 557 432 l 369 432 l 189 171 q 161 94 161 131 q 189 38 161 60 q 267 17 217 17 q 272 8 272 17 q 267 0 271 0 l 172 3 q 56 6 92 6 q -18 3 24 6 q -78 0 -54 0 q -85 8 -85 0 q -78 17 -85 17 q 33 53 -21 17 q 153 188 86 89 l 571 801 q 589 836 589 829 q 569 849 589 847 q 489 851 549 851 q 483 860 483 851 q 489 868 483 868 l 1056 868 m 396 471 l 561 471 l 600 765 l 396 471 m 654 989 q 644 997 649 989 q 640 1017 640 1006 q 644 1036 640 1028 q 654 1044 649 1044 l 971 1044 q 982 1036 978 1044 q 986 1017 986 1028 q 982 997 986 1006 q 971 989 978 989 l 654 989 z "},"B":{"ha":779,"x_min":18,"x_max":729,"o":"m 518 486 q 672 419 617 472 q 726 288 726 365 q 722 243 726 267 q 656 117 708 174 q 526 27 604 60 q 361 -6 449 -6 q 278 -1 324 -6 q 235 1 260 0 q 182 3 211 3 l 88 1 q 21 0 63 0 q 18 8 18 0 q 21 17 18 17 q 98 37 75 17 q 132 117 121 57 l 246 760 q 250 800 250 785 q 233 842 250 832 q 174 851 217 851 q 169 857 169 851 q 171 864 169 861 q 174 868 172 867 l 240 867 q 329 864 296 864 q 404 868 367 864 q 442 871 417 869 q 486 872 467 872 q 666 833 603 872 q 729 722 729 794 q 725 686 729 706 q 658 570 711 622 q 518 486 606 518 m 465 844 q 409 822 428 844 q 382 747 390 800 l 336 489 l 385 488 q 517 544 463 488 q 590 689 572 601 q 596 736 596 713 q 563 817 596 790 q 465 844 529 844 m 574 226 q 582 293 582 263 q 536 409 582 368 q 396 450 490 450 q 328 447 357 450 l 268 107 q 264 71 264 86 q 280 35 264 46 q 339 25 296 25 q 496 76 439 25 q 574 226 553 128 z "},"C":{"ha":817,"x_min":74,"x_max":825,"o":"m 444 -17 q 163 84 251 -17 q 74 335 74 185 q 83 435 74 379 q 188 674 108 572 q 377 830 267 776 q 606 883 488 883 q 720 872 661 883 q 813 843 779 860 q 823 832 821 838 q 824 811 825 826 l 801 625 q 794 621 801 621 q 786 625 788 621 q 701 788 763 729 q 549 846 639 846 q 345 749 428 846 q 239 481 263 651 q 231 367 231 422 q 257 185 231 265 q 334 58 283 104 q 453 11 385 11 q 594 63 522 11 q 747 222 667 114 q 753 225 749 225 q 760 223 757 225 q 763 218 764 221 l 725 58 q 717 35 721 42 q 700 26 713 29 q 444 -17 575 -17 z "},"Ć":{"ha":817,"x_min":74,"x_max":829,"o":"m 444 -17 q 163 84 251 -17 q 74 335 74 185 q 83 435 74 379 q 188 674 108 572 q 377 830 267 776 q 606 883 488 883 q 720 872 661 883 q 813 843 779 860 q 823 832 821 838 q 824 811 825 826 l 801 625 q 794 621 801 621 q 786 625 788 621 q 701 788 763 729 q 549 846 639 846 q 345 749 428 846 q 239 481 263 651 q 231 367 231 422 q 257 185 231 265 q 334 58 283 104 q 453 11 385 11 q 594 63 522 11 q 747 222 667 114 q 753 225 749 225 q 760 223 757 225 q 763 218 764 221 l 725 58 q 717 35 721 42 q 700 26 713 29 q 444 -17 575 -17 m 513 942 q 506 948 507 942 q 508 957 504 954 q 625 1053 550 988 q 682 1101 679 1099 q 733 1097 690 1108 q 808 1069 775 1085 q 824 1050 840 1053 q 666 1003 738 1029 q 515 943 594 978 l 513 942 z "},"Č":{"ha":817,"x_min":74,"x_max":824,"o":"m 444 -17 q 163 84 251 -17 q 74 335 74 185 q 83 435 74 379 q 188 674 108 572 q 377 830 267 776 q 606 883 488 883 q 720 872 661 883 q 813 843 779 860 q 823 832 821 838 q 824 811 825 826 l 801 625 q 794 621 801 621 q 786 625 788 621 q 701 788 763 729 q 549 846 639 846 q 345 749 428 846 q 239 481 263 651 q 231 367 231 422 q 257 185 231 265 q 334 58 283 104 q 453 11 385 11 q 594 63 522 11 q 747 222 667 114 q 753 225 749 225 q 760 223 757 225 q 763 218 764 221 l 725 58 q 717 35 721 42 q 700 26 713 29 q 444 -17 575 -17 m 467 1099 l 467 1100 q 471 1106 467 1103 q 478 1108 475 1110 l 608 1054 l 761 1108 q 769 1105 764 1110 q 769 1099 774 1100 l 608 938 q 594 932 603 932 q 583 938 588 932 l 467 1099 z "},"Ç":{"ha":817,"x_min":75,"x_max":825,"o":"m 813 843 q 823 832 821 838 q 824 811 825 826 l 801 625 q 794 621 801 621 q 786 625 788 621 q 701 788 763 729 q 549 846 639 846 q 345 749 428 846 q 239 481 263 651 q 231 367 231 422 q 257 185 231 265 q 334 58 283 104 q 453 11 385 11 q 594 63 522 11 q 747 222 667 114 q 753 225 749 225 q 760 223 757 225 q 763 218 764 221 l 725 58 q 717 35 721 42 q 700 26 713 29 q 447 -17 576 -17 q 442 -49 442 -32 q 451 -90 442 -72 q 474 -124 461 -108 q 490 -144 486 -139 q 538 -243 538 -204 q 519 -302 538 -269 q 463 -358 500 -335 q 369 -382 425 -382 q 290 -364 322 -382 q 258 -317 258 -346 q 276 -275 258 -289 q 317 -261 293 -261 q 352 -274 342 -261 q 371 -312 363 -287 q 387 -345 379 -335 q 411 -356 394 -356 q 435 -347 426 -356 q 447 -322 444 -337 q 430 -267 449 -299 q 376 -192 411 -236 q 365 -158 365 -179 q 372 -126 365 -143 q 392 -83 378 -110 l 424 -17 q 158 89 242 -11 q 75 336 75 189 q 83 435 75 388 q 188 674 108 572 q 377 830 267 776 q 606 883 488 883 q 720 872 661 883 q 813 843 779 860 z "},"Ĉ":{"ha":817,"x_min":74,"x_max":824,"o":"m 444 -17 q 163 84 251 -17 q 74 335 74 185 q 83 435 74 379 q 188 674 108 572 q 377 830 267 776 q 606 883 488 883 q 720 872 661 883 q 813 843 779 860 q 823 832 821 838 q 824 811 825 826 l 801 625 q 794 621 801 621 q 786 625 788 621 q 701 788 763 729 q 549 846 639 846 q 345 749 428 846 q 239 481 263 651 q 231 367 231 422 q 257 185 231 265 q 334 58 283 104 q 453 11 385 11 q 594 63 522 11 q 747 222 667 114 q 753 225 749 225 q 760 223 757 225 q 763 218 764 221 l 725 58 q 717 35 721 42 q 700 26 713 29 q 444 -17 575 -17 m 453 917 q 446 920 449 917 q 446 926 443 924 l 607 1086 q 619 1093 611 1093 q 632 1086 628 1093 l 747 926 l 749 924 q 744 918 749 921 q 738 917 740 915 l 607 969 l 454 917 l 453 917 z "},"Ċ":{"ha":817,"x_min":74,"x_max":824,"o":"m 444 -17 q 163 84 251 -17 q 74 335 74 185 q 83 435 74 379 q 188 674 108 572 q 377 830 267 776 q 606 883 488 883 q 720 872 661 883 q 813 843 779 860 q 823 832 821 838 q 824 811 825 826 l 801 625 q 794 621 801 621 q 786 625 788 621 q 701 788 763 729 q 549 846 639 846 q 345 749 428 846 q 239 481 263 651 q 231 367 231 422 q 257 185 231 265 q 334 58 283 104 q 453 11 385 11 q 594 63 522 11 q 747 222 667 114 q 753 225 749 225 q 760 223 757 225 q 763 218 764 221 l 725 58 q 717 35 721 42 q 700 26 713 29 q 444 -17 575 -17 m 619 990 q 562 1012 583 990 q 540 1071 540 1033 q 562 1126 540 1106 q 619 1146 583 1146 q 676 1126 656 1146 q 696 1071 696 1106 q 676 1012 696 1033 q 619 990 656 990 z "},"D":{"ha":883,"x_min":14,"x_max":869,"o":"m 349 -6 q 271 -1 315 -6 q 229 1 254 0 q 172 3 204 3 l 81 1 q 18 0 58 0 q 14 8 14 0 q 18 17 14 17 q 76 24 57 17 q 104 50 94 31 q 122 113 114 69 l 236 756 q 242 801 242 792 q 225 841 242 831 q 167 851 208 851 q 164 860 164 851 q 167 868 164 868 l 232 867 q 324 864 288 864 q 404 868 363 864 q 485 871 460 871 q 689 828 601 871 q 823 709 776 786 q 869 531 869 632 q 863 449 869 485 q 760 212 839 315 q 572 51 682 108 q 349 -6 463 -6 m 343 22 q 574 127 476 22 q 706 418 672 232 q 715 535 715 472 q 657 756 715 669 q 472 843 599 843 q 401 823 422 843 q 372 753 381 803 l 261 128 q 257 89 257 106 q 276 38 257 54 q 343 22 296 22 z "},"Ð":{"ha":883,"x_min":14,"x_max":869,"o":"m 485 871 q 689 828 601 871 q 823 709 776 786 q 869 531 869 632 q 863 449 869 485 q 760 212 839 315 q 572 51 682 108 q 349 -6 463 -6 q 271 -1 315 -6 q 229 1 254 0 q 172 3 204 3 l 81 1 q 18 0 58 0 q 14 8 14 0 q 18 17 14 17 q 76 24 57 17 q 104 50 94 31 q 122 113 114 69 l 175 413 l 96 413 q 90 432 90 413 q 96 451 90 451 l 182 451 l 236 756 q 242 801 242 792 q 225 841 242 831 q 167 851 208 851 q 164 860 164 851 q 167 868 164 868 l 232 867 q 324 864 288 864 q 404 868 363 864 q 485 871 460 871 m 706 418 q 715 535 715 472 q 657 756 715 669 q 472 843 599 843 q 401 823 422 843 q 372 753 381 803 l 318 451 l 460 451 q 465 445 463 451 q 467 432 467 439 q 465 419 467 425 q 460 413 463 413 l 311 413 l 261 128 q 257 89 257 106 q 276 38 257 54 q 343 22 296 22 q 574 127 476 22 q 706 418 672 232 z "},"Ď":{"ha":883,"x_min":14,"x_max":869,"o":"m 349 -6 q 271 -1 315 -6 q 229 1 254 0 q 172 3 204 3 l 81 1 q 18 0 58 0 q 14 8 14 0 q 18 17 14 17 q 76 24 57 17 q 104 50 94 31 q 122 113 114 69 l 236 756 q 242 801 242 792 q 225 841 242 831 q 167 851 208 851 q 164 860 164 851 q 167 868 164 868 l 232 867 q 324 864 288 864 q 404 868 363 864 q 485 871 460 871 q 689 828 601 871 q 823 709 776 786 q 869 531 869 632 q 863 449 869 485 q 760 212 839 315 q 572 51 682 108 q 349 -6 463 -6 m 343 22 q 574 127 476 22 q 706 418 672 232 q 715 535 715 472 q 657 756 715 669 q 472 843 599 843 q 401 823 422 843 q 372 753 381 803 l 261 128 q 257 89 257 106 q 276 38 257 54 q 343 22 296 22 m 353 1099 l 353 1100 q 357 1106 353 1103 q 364 1108 361 1110 l 494 1054 l 647 1108 q 655 1105 650 1110 q 656 1099 660 1100 l 494 938 q 481 932 489 932 q 469 938 474 932 l 353 1099 z "},"Đ":{"ha":883,"x_min":14,"x_max":869,"o":"m 485 871 q 689 828 601 871 q 823 709 776 786 q 869 531 869 632 q 863 449 869 485 q 760 212 839 315 q 572 51 682 108 q 349 -6 463 -6 q 271 -1 315 -6 q 229 1 254 0 q 172 3 204 3 l 81 1 q 18 0 58 0 q 14 8 14 0 q 18 17 14 17 q 76 24 57 17 q 104 50 94 31 q 122 113 114 69 l 175 413 l 96 413 q 90 432 90 413 q 96 451 90 451 l 182 451 l 236 756 q 242 801 242 792 q 225 841 242 831 q 167 851 208 851 q 164 860 164 851 q 167 868 164 868 l 232 867 q 324 864 288 864 q 404 868 363 864 q 485 871 460 871 m 706 418 q 715 535 715 472 q 657 756 715 669 q 472 843 599 843 q 401 823 422 843 q 372 753 381 803 l 318 451 l 460 451 q 465 445 463 451 q 467 432 467 439 q 465 419 467 425 q 460 413 463 413 l 311 413 l 261 128 q 257 89 257 106 q 276 38 257 54 q 343 22 296 22 q 574 127 476 22 q 706 418 672 232 z "},"Ḍ":{"ha":883,"x_min":14,"x_max":869,"o":"m 349 -6 q 271 -1 315 -6 q 229 1 254 0 q 172 3 204 3 l 81 1 q 18 0 58 0 q 14 8 14 0 q 18 17 14 17 q 76 24 57 17 q 104 50 94 31 q 122 113 114 69 l 236 756 q 242 801 242 792 q 225 841 242 831 q 167 851 208 851 q 164 860 164 851 q 167 868 164 868 l 232 867 q 324 864 288 864 q 404 868 363 864 q 485 871 460 871 q 689 828 601 871 q 823 709 776 786 q 869 531 869 632 q 863 449 869 485 q 760 212 839 315 q 572 51 682 108 q 349 -6 463 -6 m 343 22 q 574 127 476 22 q 706 418 672 232 q 715 535 715 472 q 657 756 715 669 q 472 843 599 843 q 401 823 422 843 q 372 753 381 803 l 261 128 q 257 89 257 106 q 276 38 257 54 q 343 22 296 22 m 364 -282 q 306 -261 326 -282 q 285 -201 285 -240 q 306 -147 285 -168 q 364 -126 328 -126 q 420 -147 400 -126 q 440 -201 440 -168 q 420 -261 440 -240 q 364 -282 400 -282 z "},"Ḏ":{"ha":883,"x_min":14,"x_max":869,"o":"m 349 -6 q 271 -1 315 -6 q 229 1 254 0 q 172 3 204 3 l 81 1 q 18 0 58 0 q 14 8 14 0 q 18 17 14 17 q 76 24 57 17 q 104 50 94 31 q 122 113 114 69 l 236 756 q 242 801 242 792 q 225 841 242 831 q 167 851 208 851 q 164 860 164 851 q 167 868 164 868 l 232 867 q 324 864 288 864 q 404 868 363 864 q 485 871 460 871 q 689 828 601 871 q 823 709 776 786 q 869 531 869 632 q 863 449 869 485 q 760 212 839 315 q 572 51 682 108 q 349 -6 463 -6 m 343 22 q 574 127 476 22 q 706 418 672 232 q 715 535 715 472 q 657 756 715 669 q 472 843 599 843 q 401 823 422 843 q 372 753 381 803 l 261 128 q 257 89 257 106 q 276 38 257 54 q 343 22 296 22 m 228 -171 q 217 -162 221 -171 q 214 -143 214 -154 q 217 -124 214 -132 q 228 -115 221 -115 l 544 -115 q 555 -124 551 -115 q 558 -143 558 -132 q 555 -162 558 -154 q 544 -171 551 -171 l 228 -171 z "},"E":{"ha":738,"x_min":24,"x_max":732,"o":"m 721 868 q 729 856 732 868 l 700 669 q 694 665 700 665 q 687 667 690 665 q 683 671 683 669 q 629 793 678 747 q 504 839 581 839 l 479 839 q 421 833 439 839 q 395 810 403 826 q 381 754 388 793 l 331 471 l 488 471 q 585 495 551 471 q 632 576 619 519 q 642 583 633 583 q 649 575 650 582 q 632 489 643 536 q 625 451 632 483 q 615 386 621 426 q 610 351 613 371 q 603 308 607 332 q 593 303 601 303 q 586 310 585 304 q 589 338 589 329 q 560 408 589 383 q 478 432 531 432 l 324 432 l 268 118 q 264 76 264 93 q 279 39 264 49 q 335 29 294 29 l 371 29 q 529 81 451 29 q 658 221 607 133 q 668 223 660 225 q 674 218 676 221 q 626 21 651 146 q 619 4 624 8 q 604 0 615 0 l 28 0 q 24 8 24 0 q 28 17 24 17 q 85 24 67 17 q 113 50 104 31 q 131 113 122 69 l 243 756 q 249 803 249 782 q 233 842 249 832 q 175 851 217 851 q 172 860 172 851 q 175 868 172 868 l 721 868 z "},"É":{"ha":738,"x_min":24,"x_max":731,"o":"m 721 868 q 729 856 732 868 l 700 669 q 694 665 700 665 q 687 667 690 665 q 683 671 683 669 q 629 793 678 747 q 504 839 581 839 l 479 839 q 421 833 439 839 q 395 810 403 826 q 381 754 388 793 l 331 471 l 488 471 q 585 495 551 471 q 632 576 619 519 q 642 583 633 583 q 649 575 650 582 q 632 489 643 536 q 625 451 632 483 q 615 386 621 426 q 610 351 613 371 q 603 308 607 332 q 593 303 601 303 q 586 310 585 304 q 589 338 589 329 q 560 408 589 383 q 478 432 531 432 l 324 432 l 268 118 q 264 76 264 93 q 279 39 264 49 q 335 29 294 29 l 371 29 q 529 81 451 29 q 658 221 607 133 q 668 223 660 225 q 674 218 676 221 q 626 21 651 146 q 619 4 624 8 q 604 0 615 0 l 28 0 q 24 8 24 0 q 28 17 24 17 q 85 24 67 17 q 113 50 104 31 q 131 113 122 69 l 243 756 q 249 803 249 782 q 233 842 249 832 q 175 851 217 851 q 172 860 172 851 q 175 868 172 868 l 721 868 m 414 942 q 407 948 408 942 q 410 957 406 954 q 526 1053 451 988 q 583 1101 581 1099 q 634 1097 592 1108 q 709 1069 676 1085 q 725 1050 742 1053 q 567 1003 639 1029 q 417 943 496 978 l 414 942 z "},"Ĕ":{"ha":738,"x_min":24,"x_max":729,"o":"m 721 868 q 729 856 732 868 l 700 669 q 694 665 700 665 q 687 667 690 665 q 683 671 683 669 q 629 793 678 747 q 504 839 581 839 l 479 839 q 421 833 439 839 q 395 810 403 826 q 381 754 388 793 l 331 471 l 488 471 q 585 495 551 471 q 632 576 619 519 q 642 583 633 583 q 649 575 650 582 q 632 489 643 536 q 625 451 632 483 q 615 386 621 426 q 610 351 613 371 q 603 308 607 332 q 593 303 601 303 q 586 310 585 304 q 589 338 589 329 q 560 408 589 383 q 478 432 531 432 l 324 432 l 268 118 q 264 76 264 93 q 279 39 264 49 q 335 29 294 29 l 371 29 q 529 81 451 29 q 658 221 607 133 q 668 223 660 225 q 674 218 676 221 q 626 21 651 146 q 619 4 624 8 q 604 0 615 0 l 28 0 q 24 8 24 0 q 28 17 24 17 q 85 24 67 17 q 113 50 104 31 q 131 113 122 69 l 243 756 q 249 803 249 782 q 233 842 249 832 q 175 851 217 851 q 172 860 172 851 q 175 868 172 868 l 721 868 m 499 924 q 401 958 440 924 q 363 1058 363 993 q 396 1074 363 1067 q 457 1081 429 1081 q 478 1076 478 1081 q 507 1023 482 1042 q 565 1004 532 1004 q 617 1021 592 1004 q 660 1071 643 1038 q 668 1075 664 1075 q 679 1072 674 1075 q 683 1067 685 1069 q 601 961 653 999 q 499 924 550 924 z "},"Ě":{"ha":738,"x_min":24,"x_max":729,"o":"m 721 868 q 729 856 732 868 l 700 669 q 694 665 700 665 q 687 667 690 665 q 683 671 683 669 q 629 793 678 747 q 504 839 581 839 l 479 839 q 421 833 439 839 q 395 810 403 826 q 381 754 388 793 l 331 471 l 488 471 q 585 495 551 471 q 632 576 619 519 q 642 583 633 583 q 649 575 650 582 q 632 489 643 536 q 625 451 632 483 q 615 386 621 426 q 610 351 613 371 q 603 308 607 332 q 593 303 601 303 q 586 310 585 304 q 589 338 589 329 q 560 408 589 383 q 478 432 531 432 l 324 432 l 268 118 q 264 76 264 93 q 279 39 264 49 q 335 29 294 29 l 371 29 q 529 81 451 29 q 658 221 607 133 q 668 223 660 225 q 674 218 676 221 q 626 21 651 146 q 619 4 624 8 q 604 0 615 0 l 28 0 q 24 8 24 0 q 28 17 24 17 q 85 24 67 17 q 113 50 104 31 q 131 113 122 69 l 243 756 q 249 803 249 782 q 233 842 249 832 q 175 851 217 851 q 172 860 172 851 q 175 868 172 868 l 721 868 m 368 1099 l 368 1100 q 372 1106 368 1103 q 379 1108 376 1110 l 510 1054 l 663 1108 q 670 1105 665 1110 q 671 1099 675 1100 l 510 938 q 496 932 504 932 q 485 938 489 932 l 368 1099 z "},"Ê":{"ha":738,"x_min":24,"x_max":729,"o":"m 721 868 q 729 856 732 868 l 700 669 q 694 665 700 665 q 687 667 690 665 q 683 671 683 669 q 629 793 678 747 q 504 839 581 839 l 479 839 q 421 833 439 839 q 395 810 403 826 q 381 754 388 793 l 331 471 l 488 471 q 585 495 551 471 q 632 576 619 519 q 642 583 633 583 q 649 575 650 582 q 632 489 643 536 q 625 451 632 483 q 615 386 621 426 q 610 351 613 371 q 603 308 607 332 q 593 303 601 303 q 586 310 585 304 q 589 338 589 329 q 560 408 589 383 q 478 432 531 432 l 324 432 l 268 118 q 264 76 264 93 q 279 39 264 49 q 335 29 294 29 l 371 29 q 529 81 451 29 q 658 221 607 133 q 668 223 660 225 q 674 218 676 221 q 626 21 651 146 q 619 4 624 8 q 604 0 615 0 l 28 0 q 24 8 24 0 q 28 17 24 17 q 85 24 67 17 q 113 50 104 31 q 131 113 122 69 l 243 756 q 249 803 249 782 q 233 842 249 832 q 175 851 217 851 q 172 860 172 851 q 175 868 172 868 l 721 868 m 354 917 q 347 920 350 917 q 347 926 344 924 l 508 1086 q 521 1093 513 1093 q 533 1086 529 1093 l 649 926 l 650 924 q 646 918 650 921 q 639 917 642 915 l 508 969 l 356 917 l 354 917 z "},"Ế":{"ha":738,"x_min":24,"x_max":847,"o":"m 721 868 q 729 856 732 868 l 700 669 q 694 665 700 665 q 687 667 690 665 q 683 671 683 669 q 629 793 678 747 q 504 839 581 839 l 479 839 q 421 833 439 839 q 395 810 403 826 q 381 754 388 793 l 331 471 l 488 471 q 585 495 551 471 q 632 576 619 519 q 642 583 633 583 q 649 575 650 582 q 632 489 643 536 q 625 451 632 483 q 615 386 621 426 q 610 351 613 371 q 603 308 607 332 q 593 303 601 303 q 586 310 585 304 q 589 338 589 329 q 560 408 589 383 q 478 432 531 432 l 324 432 l 268 118 q 264 76 264 93 q 279 39 264 49 q 335 29 294 29 l 371 29 q 529 81 451 29 q 658 221 607 133 q 668 223 660 225 q 674 218 676 221 q 626 21 651 146 q 619 4 624 8 q 604 0 615 0 l 28 0 q 24 8 24 0 q 28 17 24 17 q 85 24 67 17 q 113 50 104 31 q 131 113 122 69 l 243 756 q 249 803 249 782 q 233 842 249 832 q 175 851 217 851 q 172 860 172 851 q 175 868 172 868 l 721 868 m 353 917 q 346 920 349 917 q 346 926 343 924 l 507 1086 q 519 1093 511 1093 q 532 1086 528 1093 l 647 926 l 649 924 q 644 918 649 921 q 638 917 640 915 l 507 969 l 354 917 l 353 917 m 608 1004 q 602 1010 604 1004 q 603 1021 600 1017 q 708 1165 671 1107 q 719 1169 711 1169 q 775 1158 739 1169 q 833 1133 811 1146 q 842 1114 856 1119 q 611 1006 724 1074 l 608 1004 z "},"Ệ":{"ha":738,"x_min":24,"x_max":729,"o":"m 721 868 q 729 856 732 868 l 700 669 q 694 665 700 665 q 687 667 690 665 q 683 671 683 669 q 629 793 678 747 q 504 839 581 839 l 479 839 q 421 833 439 839 q 395 810 403 826 q 381 754 388 793 l 331 471 l 488 471 q 585 495 551 471 q 632 576 619 519 q 642 583 633 583 q 649 575 650 582 q 632 489 643 536 q 625 451 632 483 q 615 386 621 426 q 610 351 613 371 q 603 308 607 332 q 593 303 601 303 q 586 310 585 304 q 589 338 589 329 q 560 408 589 383 q 478 432 531 432 l 324 432 l 268 118 q 264 76 264 93 q 279 39 264 49 q 335 29 294 29 l 371 29 q 529 81 451 29 q 658 221 607 133 q 668 223 660 225 q 674 218 676 221 q 626 21 651 146 q 619 4 624 8 q 604 0 615 0 l 28 0 q 24 8 24 0 q 28 17 24 17 q 85 24 67 17 q 113 50 104 31 q 131 113 122 69 l 243 756 q 249 803 249 782 q 233 842 249 832 q 175 851 217 851 q 172 860 172 851 q 175 868 172 868 l 721 868 m 383 -282 q 325 -261 346 -282 q 304 -201 304 -240 q 326 -147 304 -168 q 383 -126 347 -126 q 440 -147 419 -126 q 460 -201 460 -168 q 440 -261 460 -240 q 383 -282 419 -282 m 354 917 q 347 920 350 917 q 347 926 344 924 l 508 1086 q 521 1093 513 1093 q 533 1086 529 1093 l 649 926 l 650 924 q 646 918 650 921 q 639 917 642 915 l 508 969 l 356 917 l 354 917 z "},"Ề":{"ha":738,"x_min":24,"x_max":750,"o":"m 721 868 q 729 856 732 868 l 700 669 q 694 665 700 665 q 687 667 690 665 q 683 671 683 669 q 629 793 678 747 q 504 839 581 839 l 479 839 q 421 833 439 839 q 395 810 403 826 q 381 754 388 793 l 331 471 l 488 471 q 585 495 551 471 q 632 576 619 519 q 642 583 633 583 q 649 575 650 582 q 632 489 643 536 q 625 451 632 483 q 615 386 621 426 q 610 351 613 371 q 603 308 607 332 q 593 303 601 303 q 586 310 585 304 q 589 338 589 329 q 560 408 589 383 q 478 432 531 432 l 324 432 l 268 118 q 264 76 264 93 q 279 39 264 49 q 335 29 294 29 l 371 29 q 529 81 451 29 q 658 221 607 133 q 668 223 660 225 q 674 218 676 221 q 626 21 651 146 q 619 4 624 8 q 604 0 615 0 l 28 0 q 24 8 24 0 q 28 17 24 17 q 85 24 67 17 q 113 50 104 31 q 131 113 122 69 l 243 756 q 249 803 249 782 q 233 842 249 832 q 175 851 217 851 q 172 860 172 851 q 175 868 172 868 l 721 868 m 351 917 q 344 920 347 917 q 344 926 342 924 l 506 1086 q 518 1093 510 1093 q 531 1086 526 1093 l 646 926 l 647 924 q 643 918 647 921 q 636 917 639 915 l 506 969 l 353 917 l 351 917 m 736 993 q 549 1101 650 1058 q 563 1120 536 1107 q 628 1145 589 1133 q 688 1157 668 1157 q 699 1153 697 1157 q 750 1008 718 1079 l 750 1007 q 746 997 750 1001 q 736 993 742 992 z "},"Ể":{"ha":738,"x_min":24,"x_max":749,"o":"m 721 868 q 729 856 732 868 l 700 669 q 694 665 700 665 q 687 667 690 665 q 683 671 683 669 q 629 793 678 747 q 504 839 581 839 l 479 839 q 421 833 439 839 q 395 810 403 826 q 381 754 388 793 l 331 471 l 488 471 q 585 495 551 471 q 632 576 619 519 q 642 583 633 583 q 649 575 650 582 q 632 489 643 536 q 625 451 632 483 q 615 386 621 426 q 610 351 613 371 q 603 308 607 332 q 593 303 601 303 q 586 310 585 304 q 589 338 589 329 q 560 408 589 383 q 478 432 531 432 l 324 432 l 268 118 q 264 76 264 93 q 279 39 264 49 q 335 29 294 29 l 371 29 q 529 81 451 29 q 658 221 607 133 q 668 223 660 225 q 674 218 676 221 q 626 21 651 146 q 619 4 624 8 q 604 0 615 0 l 28 0 q 24 8 24 0 q 28 17 24 17 q 85 24 67 17 q 113 50 104 31 q 131 113 122 69 l 243 756 q 249 803 249 782 q 233 842 249 832 q 175 851 217 851 q 172 860 172 851 q 175 868 172 868 l 721 868 m 350 917 q 343 920 346 917 q 343 926 340 924 l 504 1086 q 517 1093 508 1093 q 529 1086 525 1093 l 644 926 l 646 924 q 642 918 646 921 q 635 917 638 915 l 504 969 l 351 917 l 350 917 m 614 996 q 618 1028 613 1014 q 638 1068 624 1043 q 653 1097 646 1082 q 660 1126 660 1113 q 649 1151 660 1143 q 624 1160 638 1160 q 599 1156 608 1160 l 596 1154 q 590 1159 592 1154 q 590 1167 588 1164 q 681 1192 636 1192 q 730 1177 711 1192 q 749 1140 749 1163 q 732 1100 749 1118 q 685 1058 715 1082 q 644 1025 658 1039 q 629 996 631 1011 q 621 992 628 993 q 614 996 614 992 z "},"Ễ":{"ha":738,"x_min":24,"x_max":736,"o":"m 721 868 q 729 856 732 868 l 700 669 q 694 665 700 665 q 687 667 690 665 q 683 671 683 669 q 629 793 678 747 q 504 839 581 839 l 479 839 q 421 833 439 839 q 395 810 403 826 q 381 754 388 793 l 331 471 l 488 471 q 585 495 551 471 q 632 576 619 519 q 642 583 633 583 q 649 575 650 582 q 632 489 643 536 q 625 451 632 483 q 615 386 621 426 q 610 351 613 371 q 603 308 607 332 q 593 303 601 303 q 586 310 585 304 q 589 338 589 329 q 560 408 589 383 q 478 432 531 432 l 324 432 l 268 118 q 264 76 264 93 q 279 39 264 49 q 335 29 294 29 l 371 29 q 529 81 451 29 q 658 221 607 133 q 668 223 660 225 q 674 218 676 221 q 626 21 651 146 q 619 4 624 8 q 604 0 615 0 l 28 0 q 24 8 24 0 q 28 17 24 17 q 85 24 67 17 q 113 50 104 31 q 131 113 122 69 l 243 756 q 249 803 249 782 q 233 842 249 832 q 175 851 217 851 q 172 860 172 851 q 175 868 172 868 l 721 868 m 343 917 q 336 920 339 917 q 336 926 333 924 l 497 1086 q 510 1093 501 1093 q 522 1086 518 1093 l 638 926 l 639 924 q 635 918 639 921 q 628 917 631 915 l 497 969 l 344 917 l 343 917 m 342 1104 q 335 1108 338 1104 q 333 1114 332 1111 q 397 1194 364 1161 q 471 1226 431 1226 q 536 1213 486 1226 q 589 1198 561 1204 q 639 1192 617 1192 q 687 1200 668 1192 q 726 1229 706 1208 q 729 1231 726 1231 q 735 1226 732 1231 q 736 1219 738 1222 q 667 1131 694 1153 q 604 1108 640 1108 q 526 1124 578 1108 q 478 1136 503 1131 q 431 1142 453 1142 q 383 1135 397 1142 q 343 1104 368 1128 l 342 1104 z "},"Ë":{"ha":738,"x_min":24,"x_max":729,"o":"m 721 868 q 729 856 732 868 l 700 669 q 694 665 700 665 q 687 667 690 665 q 683 671 683 669 q 629 793 678 747 q 504 839 581 839 l 479 839 q 421 833 439 839 q 395 810 403 826 q 381 754 388 793 l 331 471 l 488 471 q 585 495 551 471 q 632 576 619 519 q 642 583 633 583 q 649 575 650 582 q 632 489 643 536 q 625 451 632 483 q 615 386 621 426 q 610 351 613 371 q 603 308 607 332 q 593 303 601 303 q 586 310 585 304 q 589 338 589 329 q 560 408 589 383 q 478 432 531 432 l 324 432 l 268 118 q 264 76 264 93 q 279 39 264 49 q 335 29 294 29 l 371 29 q 529 81 451 29 q 658 221 607 133 q 668 223 660 225 q 674 218 676 221 q 626 21 651 146 q 619 4 624 8 q 604 0 615 0 l 28 0 q 24 8 24 0 q 28 17 24 17 q 85 24 67 17 q 113 50 104 31 q 131 113 122 69 l 243 756 q 249 803 249 782 q 233 842 249 832 q 175 851 217 851 q 172 860 172 851 q 175 868 172 868 l 721 868 m 408 976 q 353 997 372 976 q 333 1053 333 1017 q 353 1105 333 1086 q 408 1124 374 1124 q 460 1105 442 1124 q 479 1053 479 1086 q 460 997 479 1017 q 408 976 442 976 m 629 976 q 574 997 593 976 q 554 1053 554 1017 q 574 1105 554 1086 q 629 1124 594 1124 q 681 1105 663 1124 q 700 1053 700 1086 q 681 997 700 1017 q 629 976 663 976 z "},"Ė":{"ha":738,"x_min":24,"x_max":729,"o":"m 721 868 q 729 856 732 868 l 700 669 q 694 665 700 665 q 687 667 690 665 q 683 671 683 669 q 629 793 678 747 q 504 839 581 839 l 479 839 q 421 833 439 839 q 395 810 403 826 q 381 754 388 793 l 331 471 l 488 471 q 585 495 551 471 q 632 576 619 519 q 642 583 633 583 q 649 575 650 582 q 632 489 643 536 q 625 451 632 483 q 615 386 621 426 q 610 351 613 371 q 603 308 607 332 q 593 303 601 303 q 586 310 585 304 q 589 338 589 329 q 560 408 589 383 q 478 432 531 432 l 324 432 l 268 118 q 264 76 264 93 q 279 39 264 49 q 335 29 294 29 l 371 29 q 529 81 451 29 q 658 221 607 133 q 668 223 660 225 q 674 218 676 221 q 626 21 651 146 q 619 4 624 8 q 604 0 615 0 l 28 0 q 24 8 24 0 q 28 17 24 17 q 85 24 67 17 q 113 50 104 31 q 131 113 122 69 l 243 756 q 249 803 249 782 q 233 842 249 832 q 175 851 217 851 q 172 860 172 851 q 175 868 172 868 l 721 868 m 521 990 q 463 1012 485 990 q 442 1071 442 1033 q 463 1126 442 1106 q 521 1146 485 1146 q 577 1126 557 1146 q 597 1071 597 1106 q 577 1012 597 1033 q 521 990 557 990 z "},"Ẹ":{"ha":738,"x_min":24,"x_max":729,"o":"m 721 868 q 729 856 732 868 l 700 669 q 694 665 700 665 q 687 667 690 665 q 683 671 683 669 q 629 793 678 747 q 504 839 581 839 l 479 839 q 421 833 439 839 q 395 810 403 826 q 381 754 388 793 l 331 471 l 488 471 q 585 495 551 471 q 632 576 619 519 q 642 583 633 583 q 649 575 650 582 q 632 489 643 536 q 625 451 632 483 q 615 386 621 426 q 610 351 613 371 q 603 308 607 332 q 593 303 601 303 q 586 310 585 304 q 589 338 589 329 q 560 408 589 383 q 478 432 531 432 l 324 432 l 268 118 q 264 76 264 93 q 279 39 264 49 q 335 29 294 29 l 371 29 q 529 81 451 29 q 658 221 607 133 q 668 223 660 225 q 674 218 676 221 q 626 21 651 146 q 619 4 624 8 q 604 0 615 0 l 28 0 q 24 8 24 0 q 28 17 24 17 q 85 24 67 17 q 113 50 104 31 q 131 113 122 69 l 243 756 q 249 803 249 782 q 233 842 249 832 q 175 851 217 851 q 172 860 172 851 q 175 868 172 868 l 721 868 m 383 -282 q 325 -261 346 -282 q 304 -201 304 -240 q 326 -147 304 -168 q 383 -126 347 -126 q 440 -147 419 -126 q 460 -201 460 -168 q 440 -261 460 -240 q 383 -282 419 -282 z "},"È":{"ha":738,"x_min":24,"x_max":729,"o":"m 721 868 q 729 856 732 868 l 700 669 q 694 665 700 665 q 687 667 690 665 q 683 671 683 669 q 629 793 678 747 q 504 839 581 839 l 479 839 q 421 833 439 839 q 395 810 403 826 q 381 754 388 793 l 331 471 l 488 471 q 585 495 551 471 q 632 576 619 519 q 642 583 633 583 q 649 575 650 582 q 632 489 643 536 q 625 451 632 483 q 615 386 621 426 q 610 351 613 371 q 603 308 607 332 q 593 303 601 303 q 586 310 585 304 q 589 338 589 329 q 560 408 589 383 q 478 432 531 432 l 324 432 l 268 118 q 264 76 264 93 q 279 39 264 49 q 335 29 294 29 l 371 29 q 529 81 451 29 q 658 221 607 133 q 668 223 660 225 q 674 218 676 221 q 626 21 651 146 q 619 4 624 8 q 604 0 615 0 l 28 0 q 24 8 24 0 q 28 17 24 17 q 85 24 67 17 q 113 50 104 31 q 131 113 122 69 l 243 756 q 249 803 249 782 q 233 842 249 832 q 175 851 217 851 q 172 860 172 851 q 175 868 172 868 l 721 868 m 613 961 q 488 1006 542 989 q 346 1050 435 1024 q 356 1067 329 1054 q 424 1092 382 1081 q 488 1103 467 1103 q 500 1100 497 1103 q 575 1024 535 1061 l 626 974 q 628 969 628 972 q 623 963 628 965 q 613 961 618 960 z "},"Ẻ":{"ha":738,"x_min":24,"x_max":729,"o":"m 721 868 q 729 856 732 868 l 700 669 q 694 665 700 665 q 687 667 690 665 q 683 671 683 669 q 629 793 678 747 q 504 839 581 839 l 479 839 q 421 833 439 839 q 395 810 403 826 q 381 754 388 793 l 331 471 l 488 471 q 585 495 551 471 q 632 576 619 519 q 642 583 633 583 q 649 575 650 582 q 632 489 643 536 q 625 451 632 483 q 615 386 621 426 q 610 351 613 371 q 603 308 607 332 q 593 303 601 303 q 586 310 585 304 q 589 338 589 329 q 560 408 589 383 q 478 432 531 432 l 324 432 l 268 118 q 264 76 264 93 q 279 39 264 49 q 335 29 294 29 l 371 29 q 529 81 451 29 q 658 221 607 133 q 668 223 660 225 q 674 218 676 221 q 626 21 651 146 q 619 4 624 8 q 604 0 615 0 l 28 0 q 24 8 24 0 q 28 17 24 17 q 85 24 67 17 q 113 50 104 31 q 131 113 122 69 l 243 756 q 249 803 249 782 q 233 842 249 832 q 175 851 217 851 q 172 860 172 851 q 175 868 172 868 l 721 868 m 499 907 q 491 903 499 904 q 482 907 483 903 q 479 938 479 929 q 484 977 479 960 q 499 1022 489 994 q 513 1063 508 1046 q 518 1099 518 1079 q 479 1147 518 1147 q 429 1133 460 1147 l 426 1133 q 419 1138 422 1133 q 419 1146 415 1142 q 533 1185 469 1185 q 604 1165 578 1185 q 631 1111 631 1146 q 613 1058 631 1082 q 558 997 594 1033 q 513 947 528 967 q 499 907 499 928 z "},"Ē":{"ha":738,"x_min":24,"x_max":729,"o":"m 721 868 q 729 856 732 868 l 700 669 q 694 665 700 665 q 687 667 690 665 q 683 671 683 669 q 629 793 678 747 q 504 839 581 839 l 479 839 q 421 833 439 839 q 395 810 403 826 q 381 754 388 793 l 331 471 l 488 471 q 585 495 551 471 q 632 576 619 519 q 642 583 633 583 q 649 575 650 582 q 632 489 643 536 q 625 451 632 483 q 615 386 621 426 q 610 351 613 371 q 603 308 607 332 q 593 303 601 303 q 586 310 585 304 q 589 338 589 329 q 560 408 589 383 q 478 432 531 432 l 324 432 l 268 118 q 264 76 264 93 q 279 39 264 49 q 335 29 294 29 l 371 29 q 529 81 451 29 q 658 221 607 133 q 668 223 660 225 q 674 218 676 221 q 626 21 651 146 q 619 4 624 8 q 604 0 615 0 l 28 0 q 24 8 24 0 q 28 17 24 17 q 85 24 67 17 q 113 50 104 31 q 131 113 122 69 l 243 756 q 249 803 249 782 q 233 842 249 832 q 175 851 217 851 q 172 860 172 851 q 175 868 172 868 l 721 868 m 361 989 q 351 997 356 989 q 347 1017 347 1006 q 351 1036 347 1028 q 361 1044 356 1044 l 678 1044 q 689 1036 685 1044 q 693 1017 693 1028 q 689 997 693 1006 q 678 989 685 989 l 361 989 z "},"Ę":{"ha":738,"x_min":24,"x_max":732,"o":"m 721 868 q 729 856 732 868 l 700 669 q 694 665 700 665 q 687 667 690 665 q 683 671 683 669 q 629 793 678 747 q 504 839 581 839 l 479 839 q 421 833 439 839 q 395 810 403 826 q 381 754 388 793 l 331 471 l 488 471 q 585 495 551 471 q 632 576 619 519 q 642 583 633 583 q 649 575 650 582 q 632 489 643 536 q 625 451 632 483 q 615 386 621 426 q 610 351 613 371 q 603 308 607 332 q 593 303 601 303 q 586 310 585 304 q 589 338 589 329 q 560 408 589 383 q 478 432 531 432 l 324 432 l 268 118 q 264 76 264 93 q 279 39 264 49 q 335 29 294 29 l 371 29 q 529 81 451 29 q 658 221 607 133 q 668 223 660 225 q 674 218 676 221 q 626 21 651 146 q 619 4 624 8 q 604 0 615 0 l 549 0 q 472 -115 499 -62 q 446 -228 446 -168 q 463 -296 446 -269 q 515 -322 481 -322 q 581 -294 550 -322 l 582 -293 q 590 -299 586 -293 q 590 -307 593 -304 q 515 -365 550 -347 q 442 -382 481 -382 q 354 -349 386 -382 q 322 -265 322 -317 q 372 -137 322 -199 q 519 0 422 -76 l 28 0 q 24 8 24 0 q 28 17 24 17 q 85 24 67 17 q 113 50 104 31 q 131 113 122 69 l 243 756 q 249 803 249 782 q 233 842 249 832 q 175 851 217 851 q 172 860 172 851 q 175 868 172 868 l 721 868 z "},"Ẽ":{"ha":738,"x_min":24,"x_max":729,"o":"m 721 868 q 729 856 732 868 l 700 669 q 694 665 700 665 q 687 667 690 665 q 683 671 683 669 q 629 793 678 747 q 504 839 581 839 l 479 839 q 421 833 439 839 q 395 810 403 826 q 381 754 388 793 l 331 471 l 488 471 q 585 495 551 471 q 632 576 619 519 q 642 583 633 583 q 649 575 650 582 q 632 489 643 536 q 625 451 632 483 q 615 386 621 426 q 610 351 613 371 q 603 308 607 332 q 593 303 601 303 q 586 310 585 304 q 589 338 589 329 q 560 408 589 383 q 478 432 531 432 l 324 432 l 268 118 q 264 76 264 93 q 279 39 264 49 q 335 29 294 29 l 371 29 q 529 81 451 29 q 658 221 607 133 q 668 223 660 225 q 674 218 676 221 q 626 21 651 146 q 619 4 624 8 q 604 0 615 0 l 28 0 q 24 8 24 0 q 28 17 24 17 q 85 24 67 17 q 113 50 104 31 q 131 113 122 69 l 243 756 q 249 803 249 782 q 233 842 249 832 q 175 851 217 851 q 172 860 172 851 q 175 868 172 868 l 721 868 m 331 953 q 328 951 331 951 q 322 956 325 951 q 321 963 319 960 q 385 1042 351 1010 q 460 1075 418 1075 q 496 1069 474 1075 q 525 1061 518 1063 q 626 1040 593 1040 q 676 1049 657 1040 q 715 1078 694 1057 l 717 1078 q 724 1074 721 1078 q 725 1068 726 1071 q 656 978 683 1000 q 593 956 629 956 q 515 972 571 956 q 478 982 510 974 q 419 990 447 990 q 373 984 388 990 q 347 967 358 978 q 331 953 335 957 z "},"F":{"ha":674,"x_min":18,"x_max":728,"o":"m 717 868 q 725 856 728 868 l 714 785 l 696 669 q 689 665 694 665 q 683 667 686 665 q 679 671 679 669 q 624 794 672 749 q 499 839 575 839 l 475 839 q 417 833 435 839 q 391 810 399 826 q 375 754 383 793 l 322 454 l 450 454 q 547 479 513 454 q 594 561 582 504 q 603 565 594 565 q 609 563 606 565 q 611 558 613 561 q 594 472 606 519 q 588 435 594 467 l 582 399 q 565 293 576 358 q 556 288 564 288 q 549 294 547 289 q 551 322 551 314 q 522 392 551 368 q 440 415 493 415 l 315 415 l 263 118 q 258 81 258 96 q 284 30 258 43 q 379 17 310 17 q 382 8 382 17 q 379 0 382 0 q 329 1 350 0 l 172 3 l 83 1 q 21 0 61 0 q 18 8 18 0 q 21 17 18 17 q 79 24 60 17 q 108 51 99 31 q 125 113 118 71 l 239 756 q 244 801 244 792 q 228 841 244 831 q 171 851 211 851 q 167 860 167 851 q 171 868 167 868 l 717 868 z "},"G":{"ha":879,"x_min":75,"x_max":844,"o":"m 458 -17 q 250 29 336 -17 q 119 156 164 75 q 75 343 75 238 q 85 443 75 394 q 186 671 108 571 q 378 827 264 771 q 621 883 493 883 q 740 872 681 883 q 832 843 799 860 q 842 832 840 838 q 843 811 844 826 l 821 625 q 813 621 819 621 q 806 625 807 621 q 719 790 781 731 q 563 849 657 849 q 352 753 438 849 q 242 494 267 658 q 232 371 232 435 q 304 108 232 204 q 504 13 376 13 q 603 47 572 13 q 644 175 633 82 q 651 249 651 226 q 640 297 651 282 q 602 318 628 313 q 524 324 576 324 q 519 327 521 324 q 517 335 517 331 q 519 342 517 339 q 524 346 521 346 q 694 339 628 339 q 831 343 760 339 q 835 333 835 343 q 831 324 836 324 q 804 315 813 325 q 789 264 796 304 q 774 161 782 224 q 764 78 765 107 q 760 39 763 49 q 756 28 758 31 q 744 22 753 25 q 458 -17 579 -17 z "},"Ğ":{"ha":879,"x_min":75,"x_max":843,"o":"m 458 -17 q 250 29 336 -17 q 119 156 164 75 q 75 343 75 238 q 85 443 75 394 q 186 671 108 571 q 378 827 264 771 q 621 883 493 883 q 740 872 681 883 q 832 843 799 860 q 842 832 840 838 q 843 811 844 826 l 821 625 q 813 621 819 621 q 806 625 807 621 q 719 790 781 731 q 563 849 657 849 q 352 753 438 849 q 242 494 267 658 q 232 371 232 435 q 304 108 232 204 q 504 13 376 13 q 603 47 572 13 q 644 175 633 82 q 651 249 651 226 q 640 297 651 282 q 602 318 628 313 q 524 324 576 324 q 519 327 521 324 q 517 335 517 331 q 519 342 517 339 q 524 346 521 346 q 694 339 628 339 q 831 343 760 339 q 835 333 835 343 q 831 324 836 324 q 804 315 813 325 q 789 264 796 304 q 774 161 782 224 q 764 78 765 107 q 760 39 763 49 q 756 28 758 31 q 744 22 753 25 q 458 -17 579 -17 m 601 924 q 504 958 543 924 q 465 1058 465 993 q 499 1074 465 1067 q 560 1081 532 1081 q 581 1076 581 1081 q 610 1023 585 1042 q 668 1004 635 1004 q 720 1021 694 1004 q 763 1071 746 1038 q 771 1075 767 1075 q 782 1072 776 1075 q 786 1067 788 1069 q 704 961 756 999 q 601 924 653 924 z "},"Ǧ":{"ha":879,"x_min":75,"x_max":843,"o":"m 458 -17 q 250 29 336 -17 q 119 156 164 75 q 75 343 75 238 q 85 443 75 394 q 186 671 108 571 q 378 827 264 771 q 621 883 493 883 q 740 872 681 883 q 832 843 799 860 q 842 832 840 838 q 843 811 844 826 l 821 625 q 813 621 819 621 q 806 625 807 621 q 719 790 781 731 q 563 849 657 849 q 352 753 438 849 q 242 494 267 658 q 232 371 232 435 q 304 108 232 204 q 504 13 376 13 q 603 47 572 13 q 644 175 633 82 q 651 249 651 226 q 640 297 651 282 q 602 318 628 313 q 524 324 576 324 q 519 327 521 324 q 517 335 517 331 q 519 342 517 339 q 524 346 521 346 q 694 339 628 339 q 831 343 760 339 q 835 333 835 343 q 831 324 836 324 q 804 315 813 325 q 789 264 796 304 q 774 161 782 224 q 764 78 765 107 q 760 39 763 49 q 756 28 758 31 q 744 22 753 25 q 458 -17 579 -17 m 478 1099 l 478 1100 q 482 1106 478 1103 q 489 1108 486 1110 l 619 1054 l 772 1108 q 780 1105 775 1110 q 781 1099 785 1100 l 619 938 q 606 932 614 932 q 594 938 599 932 l 478 1099 z "},"Ĝ":{"ha":879,"x_min":75,"x_max":843,"o":"m 458 -17 q 250 29 336 -17 q 119 156 164 75 q 75 343 75 238 q 85 443 75 394 q 186 671 108 571 q 378 827 264 771 q 621 883 493 883 q 740 872 681 883 q 832 843 799 860 q 842 832 840 838 q 843 811 844 826 l 821 625 q 813 621 819 621 q 806 625 807 621 q 719 790 781 731 q 563 849 657 849 q 352 753 438 849 q 242 494 267 658 q 232 371 232 435 q 304 108 232 204 q 504 13 376 13 q 603 47 572 13 q 644 175 633 82 q 651 249 651 226 q 640 297 651 282 q 602 318 628 313 q 524 324 576 324 q 519 327 521 324 q 517 335 517 331 q 519 342 517 339 q 524 346 521 346 q 694 339 628 339 q 831 343 760 339 q 835 333 835 343 q 831 324 836 324 q 804 315 813 325 q 789 264 796 304 q 774 161 782 224 q 764 78 765 107 q 760 39 763 49 q 756 28 758 31 q 744 22 753 25 q 458 -17 579 -17 m 464 917 q 457 920 460 917 q 457 926 454 924 l 618 1086 q 631 1093 622 1093 q 643 1086 639 1093 l 758 926 l 760 924 q 756 918 760 921 q 749 917 751 915 l 618 969 l 465 917 l 464 917 z "},"Ģ":{"ha":879,"x_min":75,"x_max":843,"o":"m 458 -17 q 250 29 336 -17 q 119 156 164 75 q 75 343 75 238 q 85 443 75 394 q 186 671 108 571 q 378 827 264 771 q 621 883 493 883 q 740 872 681 883 q 832 843 799 860 q 842 832 840 838 q 843 811 844 826 l 821 625 q 813 621 819 621 q 806 625 807 621 q 719 790 781 731 q 563 849 657 849 q 352 753 438 849 q 242 494 267 658 q 232 371 232 435 q 304 108 232 204 q 504 13 376 13 q 603 47 572 13 q 644 175 633 82 q 651 249 651 226 q 640 297 651 282 q 602 318 628 313 q 524 324 576 324 q 519 327 521 324 q 517 335 517 331 q 519 342 517 339 q 524 346 521 346 q 694 339 628 339 q 831 343 760 339 q 835 333 835 343 q 831 324 836 324 q 804 315 813 325 q 789 264 796 304 q 774 161 782 224 q 764 78 765 107 q 760 39 763 49 q 756 28 758 31 q 744 22 753 25 q 458 -17 579 -17 m 447 -96 q 508 -119 488 -96 q 528 -182 528 -143 q 489 -295 528 -243 q 388 -382 450 -347 l 385 -383 q 376 -377 379 -383 q 378 -368 374 -371 q 460 -275 450 -325 q 463 -247 463 -264 q 436 -251 451 -251 q 381 -228 400 -251 q 363 -175 363 -206 q 385 -119 363 -142 q 447 -96 407 -96 z "},"Ġ":{"ha":879,"x_min":75,"x_max":843,"o":"m 458 -17 q 250 29 336 -17 q 119 156 164 75 q 75 343 75 238 q 85 443 75 394 q 186 671 108 571 q 378 827 264 771 q 621 883 493 883 q 740 872 681 883 q 832 843 799 860 q 842 832 840 838 q 843 811 844 826 l 821 625 q 813 621 819 621 q 806 625 807 621 q 719 790 781 731 q 563 849 657 849 q 352 753 438 849 q 242 494 267 658 q 232 371 232 435 q 304 108 232 204 q 504 13 376 13 q 603 47 572 13 q 644 175 633 82 q 651 249 651 226 q 640 297 651 282 q 602 318 628 313 q 524 324 576 324 q 519 327 521 324 q 517 335 517 331 q 519 342 517 339 q 524 346 521 346 q 694 339 628 339 q 831 343 760 339 q 835 333 835 343 q 831 324 836 324 q 804 315 813 325 q 789 264 796 304 q 774 161 782 224 q 764 78 765 107 q 760 39 763 49 q 756 28 758 31 q 744 22 753 25 q 458 -17 579 -17 m 631 990 q 573 1012 594 990 q 551 1071 551 1033 q 573 1126 551 1106 q 631 1146 594 1146 q 687 1126 667 1146 q 707 1071 707 1106 q 687 1012 707 1033 q 631 990 667 990 z "},"Ḡ":{"ha":879,"x_min":75,"x_max":843,"o":"m 458 -17 q 250 29 336 -17 q 119 156 164 75 q 75 343 75 238 q 85 443 75 394 q 186 671 108 571 q 378 827 264 771 q 621 883 493 883 q 740 872 681 883 q 832 843 799 860 q 842 832 840 838 q 843 811 844 826 l 821 625 q 813 621 819 621 q 806 625 807 621 q 719 790 781 731 q 563 849 657 849 q 352 753 438 849 q 242 494 267 658 q 232 371 232 435 q 304 108 232 204 q 504 13 376 13 q 603 47 572 13 q 644 175 633 82 q 651 249 651 226 q 640 297 651 282 q 602 318 628 313 q 524 324 576 324 q 519 327 521 324 q 517 335 517 331 q 519 342 517 339 q 524 346 521 346 q 694 339 628 339 q 831 343 760 339 q 835 333 835 343 q 831 324 836 324 q 804 315 813 325 q 789 264 796 304 q 774 161 782 224 q 764 78 765 107 q 760 39 763 49 q 756 28 758 31 q 744 22 753 25 q 458 -17 579 -17 m 421 990 q 407 1017 407 990 q 410 1034 407 1026 q 421 1042 414 1042 l 769 1042 q 780 1034 776 1042 q 783 1017 783 1026 q 769 990 783 990 l 421 990 z "},"H":{"ha":938,"x_min":14,"x_max":978,"o":"m 975 868 q 978 860 978 868 q 975 851 978 851 q 919 844 938 851 q 890 817 900 836 q 872 756 881 797 l 758 113 q 754 68 754 86 q 770 27 754 38 q 828 17 786 17 q 832 8 832 17 q 828 0 832 0 q 771 1 793 0 l 676 3 l 585 1 q 519 0 561 0 q 517 8 517 0 q 519 17 517 17 q 577 24 558 17 q 605 50 596 31 q 622 113 614 69 l 678 432 l 315 432 l 258 113 q 253 65 253 86 q 269 26 253 36 q 326 17 285 17 q 331 8 331 17 q 326 0 331 0 q 263 1 286 0 l 169 3 l 81 1 q 18 0 58 0 q 14 8 14 0 q 18 17 14 17 q 76 24 57 17 q 104 50 94 31 q 122 113 114 69 l 236 756 q 242 800 242 792 q 225 840 242 829 q 167 851 208 851 q 164 860 164 851 q 167 868 164 868 l 229 867 q 318 864 285 864 q 410 867 351 864 l 475 868 q 478 860 478 868 q 475 851 478 851 q 418 843 438 851 q 389 815 399 835 q 372 753 379 794 l 322 471 l 685 471 l 735 753 q 739 799 739 781 q 724 840 739 829 q 668 851 708 851 q 664 860 664 851 q 668 868 664 868 l 731 867 q 821 864 786 864 q 911 867 856 864 l 975 868 z "},"Ħ":{"ha":938,"x_min":14,"x_max":978,"o":"m 975 868 q 978 860 978 868 q 975 851 978 851 q 919 844 938 851 q 890 817 900 836 q 872 756 881 797 l 758 113 q 754 68 754 86 q 770 27 754 38 q 828 17 786 17 q 832 8 832 17 q 828 0 832 0 q 771 1 793 0 l 676 3 l 585 1 q 519 0 561 0 q 517 8 517 0 q 519 17 517 17 q 577 24 558 17 q 605 50 596 31 q 622 113 614 69 l 656 303 l 292 303 l 258 113 q 253 65 253 86 q 269 26 253 36 q 326 17 285 17 q 331 8 331 17 q 326 0 331 0 q 263 1 286 0 l 169 3 l 81 1 q 18 0 58 0 q 14 8 14 0 q 18 17 14 17 q 76 24 57 17 q 104 50 94 31 q 122 113 114 69 l 236 756 q 242 800 242 792 q 225 840 242 829 q 167 851 208 851 q 164 860 164 851 q 167 868 164 868 l 229 867 q 318 864 285 864 q 410 867 351 864 l 475 868 q 478 860 478 868 q 475 851 478 851 q 418 843 438 851 q 389 815 399 835 q 372 753 379 794 l 346 601 l 708 601 l 735 753 q 739 799 739 781 q 724 840 739 829 q 668 851 708 851 q 664 860 664 851 q 668 868 664 868 l 731 867 q 821 864 786 864 q 911 867 856 864 l 975 868 m 299 342 l 663 342 l 701 563 l 339 563 l 299 342 z "},"Ḫ":{"ha":938,"x_min":14,"x_max":978,"o":"m 975 868 q 978 860 978 868 q 975 851 978 851 q 919 844 938 851 q 890 817 900 836 q 872 756 881 797 l 758 113 q 754 68 754 86 q 770 27 754 38 q 828 17 786 17 q 832 8 832 17 q 828 0 832 0 q 771 1 793 0 l 676 3 l 585 1 q 519 0 561 0 q 517 8 517 0 q 519 17 517 17 q 577 24 558 17 q 605 50 596 31 q 622 113 614 69 l 678 432 l 315 432 l 258 113 q 253 65 253 86 q 269 26 253 36 q 326 17 285 17 q 331 8 331 17 q 326 0 331 0 q 263 1 286 0 l 169 3 l 81 1 q 18 0 58 0 q 14 8 14 0 q 18 17 14 17 q 76 24 57 17 q 104 50 94 31 q 122 113 114 69 l 236 756 q 242 800 242 792 q 225 840 242 829 q 167 851 208 851 q 164 860 164 851 q 167 868 164 868 l 229 867 q 318 864 285 864 q 410 867 351 864 l 475 868 q 478 860 478 868 q 475 851 478 851 q 418 843 438 851 q 389 815 399 835 q 372 753 379 794 l 322 471 l 685 471 l 735 753 q 739 799 739 781 q 724 840 739 829 q 668 851 708 851 q 664 860 664 851 q 668 868 664 868 l 731 867 q 821 864 786 864 q 911 867 856 864 l 975 868 m 383 -274 q 286 -239 325 -274 q 247 -139 247 -204 q 281 -124 247 -131 q 342 -117 314 -117 q 363 -121 363 -117 q 392 -174 367 -156 q 450 -193 417 -193 q 502 -176 476 -193 q 544 -126 528 -160 q 553 -122 549 -122 q 564 -125 558 -122 q 568 -131 569 -128 q 486 -236 538 -199 q 383 -274 435 -274 z "},"Ĥ":{"ha":938,"x_min":14,"x_max":978,"o":"m 975 868 q 978 860 978 868 q 975 851 978 851 q 919 844 938 851 q 890 817 900 836 q 872 756 881 797 l 758 113 q 754 68 754 86 q 770 27 754 38 q 828 17 786 17 q 832 8 832 17 q 828 0 832 0 q 771 1 793 0 l 676 3 l 585 1 q 519 0 561 0 q 517 8 517 0 q 519 17 517 17 q 577 24 558 17 q 605 50 596 31 q 622 113 614 69 l 678 432 l 315 432 l 258 113 q 253 65 253 86 q 269 26 253 36 q 326 17 285 17 q 331 8 331 17 q 326 0 331 0 q 263 1 286 0 l 169 3 l 81 1 q 18 0 58 0 q 14 8 14 0 q 18 17 14 17 q 76 24 57 17 q 104 50 94 31 q 122 113 114 69 l 236 756 q 242 800 242 792 q 225 840 242 829 q 167 851 208 851 q 164 860 164 851 q 167 868 164 868 l 229 867 q 318 864 285 864 q 410 867 351 864 l 475 868 q 478 860 478 868 q 475 851 478 851 q 418 843 438 851 q 389 815 399 835 q 372 753 379 794 l 322 471 l 685 471 l 735 753 q 739 799 739 781 q 724 840 739 829 q 668 851 708 851 q 664 860 664 851 q 668 868 664 868 l 731 867 q 821 864 786 864 q 911 867 856 864 l 975 868 m 443 917 q 436 920 439 917 q 436 926 433 924 l 597 1086 q 610 1093 601 1093 q 622 1086 618 1093 l 738 926 l 739 924 q 735 918 739 921 q 728 917 731 915 l 597 969 l 444 917 l 443 917 z "},"Ḥ":{"ha":938,"x_min":14,"x_max":978,"o":"m 975 868 q 978 860 978 868 q 975 851 978 851 q 919 844 938 851 q 890 817 900 836 q 872 756 881 797 l 758 113 q 754 68 754 86 q 770 27 754 38 q 828 17 786 17 q 832 8 832 17 q 828 0 832 0 q 771 1 793 0 l 676 3 l 585 1 q 519 0 561 0 q 517 8 517 0 q 519 17 517 17 q 577 24 558 17 q 605 50 596 31 q 622 113 614 69 l 678 432 l 315 432 l 258 113 q 253 65 253 86 q 269 26 253 36 q 326 17 285 17 q 331 8 331 17 q 326 0 331 0 q 263 1 286 0 l 169 3 l 81 1 q 18 0 58 0 q 14 8 14 0 q 18 17 14 17 q 76 24 57 17 q 104 50 94 31 q 122 113 114 69 l 236 756 q 242 800 242 792 q 225 840 242 829 q 167 851 208 851 q 164 860 164 851 q 167 868 164 868 l 229 867 q 318 864 285 864 q 410 867 351 864 l 475 868 q 478 860 478 868 q 475 851 478 851 q 418 843 438 851 q 389 815 399 835 q 372 753 379 794 l 322 471 l 685 471 l 735 753 q 739 799 739 781 q 724 840 739 829 q 668 851 708 851 q 664 860 664 851 q 668 868 664 868 l 731 867 q 821 864 786 864 q 911 867 856 864 l 975 868 m 407 -282 q 349 -261 369 -282 q 328 -201 328 -240 q 349 -147 328 -168 q 407 -126 371 -126 q 463 -147 443 -126 q 483 -201 483 -168 q 463 -261 483 -240 q 407 -282 443 -282 z "},"I":{"ha":467,"x_min":31,"x_max":494,"o":"m 35 0 q 31 8 31 0 q 35 17 31 17 q 91 24 72 17 q 119 50 110 31 q 136 113 129 69 l 250 756 q 256 801 256 779 q 239 841 256 831 q 181 851 222 851 q 176 860 176 851 q 181 868 176 868 l 244 867 q 333 864 300 864 q 431 867 375 864 l 490 868 q 494 860 494 868 q 490 851 494 851 q 433 843 453 851 q 405 815 414 835 q 389 753 396 796 l 275 113 q 269 65 269 86 q 286 26 269 36 q 344 17 303 17 q 347 8 347 17 q 344 0 347 0 q 282 1 306 0 l 189 3 l 99 1 q 35 0 75 0 z "},"Ĳ":{"ha":860,"x_min":54,"x_max":940,"o":"m 60 374 q 54 382 54 374 q 60 390 54 390 q 121 397 101 390 q 150 424 140 404 q 167 486 160 443 l 214 756 q 219 803 219 782 q 203 842 219 832 q 142 851 186 851 q 136 860 136 851 q 142 868 136 868 l 211 867 q 304 864 269 864 q 401 867 343 864 l 467 868 q 474 860 474 868 q 467 851 474 851 q 405 843 425 851 q 375 815 385 835 q 357 753 365 796 l 310 486 q 304 440 304 447 q 321 400 304 410 q 383 390 338 390 q 389 382 389 390 q 383 374 389 374 q 318 375 342 374 l 221 376 l 129 375 q 60 374 104 374 m 385 -19 q 243 8 307 -19 q 143 78 179 35 q 107 171 107 122 q 128 239 107 213 q 193 265 150 265 q 249 238 238 265 q 263 156 261 211 q 271 79 264 108 q 304 30 278 50 q 385 10 331 10 q 536 77 481 10 q 614 278 592 144 l 699 756 q 703 799 703 781 q 683 841 703 831 q 611 851 664 851 q 606 860 606 851 q 611 868 606 868 l 688 867 q 786 864 751 864 q 876 867 821 864 l 936 868 q 940 860 940 868 q 936 851 940 851 q 882 843 900 851 q 856 815 864 835 q 840 753 847 794 l 772 358 q 636 79 740 178 q 385 -19 532 -19 z "},"Í":{"ha":467,"x_min":31,"x_max":579,"o":"m 35 0 q 31 8 31 0 q 35 17 31 17 q 91 24 72 17 q 119 50 110 31 q 136 113 129 69 l 250 756 q 256 801 256 779 q 239 841 256 831 q 181 851 222 851 q 176 860 176 851 q 181 868 176 868 l 244 867 q 333 864 300 864 q 431 867 375 864 l 490 868 q 494 860 494 868 q 490 851 494 851 q 433 843 453 851 q 405 815 414 835 q 389 753 396 796 l 275 113 q 269 65 269 86 q 286 26 269 36 q 344 17 303 17 q 347 8 347 17 q 344 0 347 0 q 282 1 306 0 l 189 3 l 99 1 q 35 0 75 0 m 263 942 q 256 948 257 942 q 258 957 254 954 q 375 1053 300 988 q 432 1101 429 1099 q 483 1097 440 1108 q 558 1069 525 1085 q 574 1050 590 1053 q 416 1003 488 1029 q 265 943 344 978 l 263 942 z "},"Ĭ":{"ha":467,"x_min":31,"x_max":532,"o":"m 35 0 q 31 8 31 0 q 35 17 31 17 q 91 24 72 17 q 119 50 110 31 q 136 113 129 69 l 250 756 q 256 801 256 779 q 239 841 256 831 q 181 851 222 851 q 176 860 176 851 q 181 868 176 868 l 244 867 q 333 864 300 864 q 431 867 375 864 l 490 868 q 494 860 494 868 q 490 851 494 851 q 433 843 453 851 q 405 815 414 835 q 389 753 396 796 l 275 113 q 269 65 269 86 q 286 26 269 36 q 344 17 303 17 q 347 8 347 17 q 344 0 347 0 q 282 1 306 0 l 189 3 l 99 1 q 35 0 75 0 m 347 924 q 250 958 289 924 q 211 1058 211 993 q 244 1074 211 1067 q 306 1081 278 1081 q 326 1076 326 1081 q 356 1023 331 1042 q 414 1004 381 1004 q 466 1021 440 1004 q 508 1071 492 1038 q 517 1075 513 1075 q 528 1072 522 1075 q 532 1067 533 1069 q 450 961 501 999 q 347 924 399 924 z "},"Ǐ":{"ha":467,"x_min":31,"x_max":521,"o":"m 35 0 q 31 8 31 0 q 35 17 31 17 q 91 24 72 17 q 119 50 110 31 q 136 113 129 69 l 250 756 q 256 801 256 779 q 239 841 256 831 q 181 851 222 851 q 176 860 176 851 q 181 868 176 868 l 244 867 q 333 864 300 864 q 431 867 375 864 l 490 868 q 494 860 494 868 q 490 851 494 851 q 433 843 453 851 q 405 815 414 835 q 389 753 396 796 l 275 113 q 269 65 269 86 q 286 26 269 36 q 344 17 303 17 q 347 8 347 17 q 344 0 347 0 q 282 1 306 0 l 189 3 l 99 1 q 35 0 75 0 m 217 1099 l 217 1100 q 221 1106 217 1103 q 228 1108 225 1110 l 358 1054 l 511 1108 q 519 1105 514 1110 q 519 1099 524 1100 l 358 938 q 344 932 353 932 q 333 938 338 932 l 217 1099 z "},"Î":{"ha":467,"x_min":31,"x_max":499,"o":"m 35 0 q 31 8 31 0 q 35 17 31 17 q 91 24 72 17 q 119 50 110 31 q 136 113 129 69 l 250 756 q 256 801 256 779 q 239 841 256 831 q 181 851 222 851 q 176 860 176 851 q 181 868 176 868 l 244 867 q 333 864 300 864 q 431 867 375 864 l 490 868 q 494 860 494 868 q 490 851 494 851 q 433 843 453 851 q 405 815 414 835 q 389 753 396 796 l 275 113 q 269 65 269 86 q 286 26 269 36 q 344 17 303 17 q 347 8 347 17 q 344 0 347 0 q 282 1 306 0 l 189 3 l 99 1 q 35 0 75 0 m 203 917 q 196 920 199 917 q 196 926 193 924 l 357 1086 q 369 1093 361 1093 q 382 1086 378 1093 l 497 926 l 499 924 q 494 918 499 921 q 488 917 490 915 l 357 969 l 204 917 l 203 917 z "},"Ï":{"ha":467,"x_min":31,"x_max":547,"o":"m 35 0 q 31 8 31 0 q 35 17 31 17 q 91 24 72 17 q 119 50 110 31 q 136 113 129 69 l 250 756 q 256 801 256 779 q 239 841 256 831 q 181 851 222 851 q 176 860 176 851 q 181 868 176 868 l 244 867 q 333 864 300 864 q 431 867 375 864 l 490 868 q 494 860 494 868 q 490 851 494 851 q 433 843 453 851 q 405 815 414 835 q 389 753 396 796 l 275 113 q 269 65 269 86 q 286 26 269 36 q 344 17 303 17 q 347 8 347 17 q 344 0 347 0 q 282 1 306 0 l 189 3 l 99 1 q 35 0 75 0 m 264 976 q 208 997 229 976 q 188 1053 188 1017 q 208 1106 188 1086 q 264 1125 229 1125 q 316 1106 297 1125 q 335 1053 335 1086 q 317 997 335 1017 q 264 976 299 976 m 476 976 q 423 997 442 976 q 404 1053 404 1017 q 423 1105 404 1086 q 476 1124 442 1124 q 528 1105 510 1124 q 547 1053 547 1086 q 528 997 547 1017 q 476 976 510 976 z "},"İ":{"ha":467,"x_min":31,"x_max":494,"o":"m 35 0 q 31 8 31 0 q 35 17 31 17 q 91 24 72 17 q 119 50 110 31 q 136 113 129 69 l 250 756 q 256 801 256 779 q 239 841 256 831 q 181 851 222 851 q 176 860 176 851 q 181 868 176 868 l 244 867 q 333 864 300 864 q 431 867 375 864 l 490 868 q 494 860 494 868 q 490 851 494 851 q 433 843 453 851 q 405 815 414 835 q 389 753 396 796 l 275 113 q 269 65 269 86 q 286 26 269 36 q 344 17 303 17 q 347 8 347 17 q 344 0 347 0 q 282 1 306 0 l 189 3 l 99 1 q 35 0 75 0 m 369 990 q 312 1012 333 990 q 290 1071 290 1033 q 312 1126 290 1106 q 369 1146 333 1146 q 426 1126 406 1146 q 446 1071 446 1106 q 426 1012 446 1033 q 369 990 406 990 z "},"Ị":{"ha":467,"x_min":31,"x_max":494,"o":"m 35 0 q 31 8 31 0 q 35 17 31 17 q 91 24 72 17 q 119 50 110 31 q 136 113 129 69 l 250 756 q 256 801 256 779 q 239 841 256 831 q 181 851 222 851 q 176 860 176 851 q 181 868 176 868 l 244 867 q 333 864 300 864 q 431 867 375 864 l 490 868 q 494 860 494 868 q 490 851 494 851 q 433 843 453 851 q 405 815 414 835 q 389 753 396 796 l 275 113 q 269 65 269 86 q 286 26 269 36 q 344 17 303 17 q 347 8 347 17 q 344 0 347 0 q 282 1 306 0 l 189 3 l 99 1 q 35 0 75 0 m 157 -282 q 99 -261 119 -282 q 78 -201 78 -240 q 99 -147 78 -168 q 157 -126 121 -126 q 213 -147 193 -126 q 233 -201 233 -168 q 213 -261 233 -240 q 157 -282 193 -282 z "},"Ì":{"ha":467,"x_min":31,"x_max":494,"o":"m 35 0 q 31 8 31 0 q 35 17 31 17 q 91 24 72 17 q 119 50 110 31 q 136 113 129 69 l 250 756 q 256 801 256 779 q 239 841 256 831 q 181 851 222 851 q 176 860 176 851 q 181 868 176 868 l 244 867 q 333 864 300 864 q 431 867 375 864 l 490 868 q 494 860 494 868 q 490 851 494 851 q 433 843 453 851 q 405 815 414 835 q 389 753 396 796 l 275 113 q 269 65 269 86 q 286 26 269 36 q 344 17 303 17 q 347 8 347 17 q 344 0 347 0 q 282 1 306 0 l 189 3 l 99 1 q 35 0 75 0 m 461 961 q 337 1006 390 989 q 194 1050 283 1024 q 204 1067 178 1054 q 273 1092 231 1081 q 336 1103 315 1103 q 349 1100 346 1103 q 424 1024 383 1061 l 475 974 q 476 969 476 972 q 472 963 476 965 q 461 961 467 960 z "},"Ỉ":{"ha":467,"x_min":31,"x_max":494,"o":"m 35 0 q 31 8 31 0 q 35 17 31 17 q 91 24 72 17 q 119 50 110 31 q 136 113 129 69 l 250 756 q 256 801 256 779 q 239 841 256 831 q 181 851 222 851 q 176 860 176 851 q 181 868 176 868 l 244 867 q 333 864 300 864 q 431 867 375 864 l 490 868 q 494 860 494 868 q 490 851 494 851 q 433 843 453 851 q 405 815 414 835 q 389 753 396 796 l 275 113 q 269 65 269 86 q 286 26 269 36 q 344 17 303 17 q 347 8 347 17 q 344 0 347 0 q 282 1 306 0 l 189 3 l 99 1 q 35 0 75 0 m 347 907 q 340 903 347 904 q 331 907 332 903 q 328 938 328 929 q 333 977 328 960 q 347 1022 338 994 q 362 1063 357 1046 q 367 1099 367 1079 q 328 1147 367 1147 q 278 1133 308 1147 l 275 1133 q 267 1138 271 1133 q 268 1146 264 1142 q 382 1185 318 1185 q 453 1165 426 1185 q 479 1111 479 1146 q 461 1058 479 1082 q 407 997 443 1033 q 362 947 376 967 q 347 907 347 928 z "},"Ī":{"ha":467,"x_min":31,"x_max":542,"o":"m 35 0 q 31 8 31 0 q 35 17 31 17 q 91 24 72 17 q 119 50 110 31 q 136 113 129 69 l 250 756 q 256 801 256 779 q 239 841 256 831 q 181 851 222 851 q 176 860 176 851 q 181 868 176 868 l 244 867 q 333 864 300 864 q 431 867 375 864 l 490 868 q 494 860 494 868 q 490 851 494 851 q 433 843 453 851 q 405 815 414 835 q 389 753 396 796 l 275 113 q 269 65 269 86 q 286 26 269 36 q 344 17 303 17 q 347 8 347 17 q 344 0 347 0 q 282 1 306 0 l 189 3 l 99 1 q 35 0 75 0 m 210 989 q 200 997 204 989 q 196 1017 196 1006 q 200 1036 196 1028 q 210 1044 204 1044 l 526 1044 q 538 1036 533 1044 q 542 1017 542 1028 q 538 997 542 1006 q 526 989 533 989 l 210 989 z "},"Į":{"ha":467,"x_min":22,"x_max":494,"o":"m 490 868 q 494 860 494 868 q 490 851 494 851 q 433 843 453 851 q 405 815 414 835 q 389 753 396 796 l 275 113 q 269 65 269 86 q 286 26 269 36 q 344 17 303 17 q 347 8 347 17 q 344 0 347 0 q 290 1 310 0 l 211 3 q 168 -99 183 -54 q 149 -192 153 -143 q 146 -225 146 -214 q 162 -292 146 -267 q 208 -318 178 -318 q 264 -294 240 -318 l 265 -293 q 273 -299 269 -293 q 274 -307 276 -304 q 199 -365 233 -347 q 125 -382 164 -382 q 50 -350 78 -382 q 22 -268 22 -318 q 25 -236 22 -258 q 73 -123 33 -178 q 185 3 113 -68 l 97 1 q 35 0 74 0 q 31 8 31 0 q 35 17 31 17 q 91 24 72 17 q 119 50 110 31 q 136 113 129 69 l 250 756 q 256 801 256 779 q 239 841 256 831 q 181 851 222 851 q 176 860 176 851 q 181 868 176 868 l 244 867 q 333 864 300 864 q 431 867 375 864 l 490 868 z "},"Ĩ":{"ha":467,"x_min":31,"x_max":565,"o":"m 35 0 q 31 8 31 0 q 35 17 31 17 q 91 24 72 17 q 119 50 110 31 q 136 113 129 69 l 250 756 q 256 801 256 779 q 239 841 256 831 q 181 851 222 851 q 176 860 176 851 q 181 868 176 868 l 244 867 q 333 864 300 864 q 431 867 375 864 l 490 868 q 494 860 494 868 q 490 851 494 851 q 433 843 453 851 q 405 815 414 835 q 389 753 396 796 l 275 113 q 269 65 269 86 q 286 26 269 36 q 344 17 303 17 q 347 8 347 17 q 344 0 347 0 q 282 1 306 0 l 189 3 l 99 1 q 35 0 75 0 m 171 953 q 165 956 168 953 q 163 963 161 960 q 226 1042 193 1010 q 300 1075 260 1075 q 365 1061 315 1075 q 418 1047 390 1053 q 468 1040 446 1040 q 516 1049 497 1040 q 556 1078 535 1057 q 558 1079 556 1079 q 564 1075 561 1079 q 565 1068 567 1071 q 497 979 524 1001 q 433 957 469 957 q 356 972 407 957 q 307 985 332 979 q 260 990 282 990 q 213 983 226 990 q 172 953 199 976 l 171 953 z "},"J":{"ha":440,"x_min":-46,"x_max":483,"o":"m -35 -268 q -42 -262 -37 -269 q -42 -253 -46 -256 q 57 -140 21 -215 q 115 56 93 -65 l 239 756 q 243 800 243 783 q 227 841 243 831 q 169 851 211 851 q 165 860 165 851 q 169 868 165 868 l 232 867 q 322 864 288 864 q 418 867 363 864 l 479 868 q 483 860 483 868 q 479 851 483 851 q 422 843 442 851 q 394 815 403 835 q 376 753 385 796 l 260 93 q 205 -83 240 -15 q 113 -192 169 -150 q -35 -268 57 -233 z "},"Ĵ":{"ha":440,"x_min":-43,"x_max":493,"o":"m -35 -268 q -42 -262 -37 -269 q -42 -253 -46 -256 q 57 -140 21 -215 q 115 56 93 -65 l 239 756 q 243 800 243 783 q 227 841 243 831 q 169 851 211 851 q 165 860 165 851 q 169 868 165 868 l 232 867 q 322 864 288 864 q 418 867 363 864 l 479 868 q 483 860 483 868 q 479 851 483 851 q 422 843 442 851 q 394 815 403 835 q 376 753 385 796 l 260 93 q 205 -83 240 -15 q 113 -192 169 -150 q -35 -268 57 -233 m 197 917 q 190 920 193 917 q 190 926 188 924 l 351 1086 q 364 1093 356 1093 q 376 1086 372 1093 l 492 926 l 493 924 q 489 918 493 921 q 482 917 485 915 l 351 969 l 199 917 l 197 917 z "},"K":{"ha":868,"x_min":14,"x_max":918,"o":"m 914 868 q 918 860 918 868 q 914 851 918 851 q 785 816 858 851 q 644 719 713 781 l 476 564 l 607 300 q 708 106 678 160 q 761 35 739 53 q 818 17 783 17 q 822 8 822 17 q 818 0 822 0 l 688 0 q 597 8 614 0 q 550 90 579 17 q 490 222 521 163 l 369 465 l 311 411 l 258 113 q 250 54 250 63 q 265 24 250 32 q 326 17 281 17 q 331 8 331 17 q 326 0 331 0 q 264 1 285 0 l 169 3 l 81 1 q 18 0 58 0 q 14 8 14 0 q 18 17 14 17 q 76 24 57 17 q 104 50 94 31 q 122 113 114 69 l 236 756 q 242 801 242 792 q 225 841 242 831 q 167 851 208 851 q 164 860 164 851 q 167 868 164 868 l 229 867 q 318 864 285 864 q 410 867 351 864 l 475 868 q 478 860 478 868 q 475 851 478 851 q 418 843 438 851 q 389 815 399 835 q 372 753 379 794 l 319 456 l 610 728 q 643 768 632 747 q 654 807 654 789 q 640 840 654 828 q 597 851 625 851 q 594 860 594 851 q 597 868 594 868 l 665 867 q 778 864 738 864 q 867 867 819 864 l 914 868 z "},"Ḱ":{"ha":868,"x_min":14,"x_max":918,"o":"m 914 868 q 918 860 918 868 q 914 851 918 851 q 785 816 858 851 q 644 719 713 781 l 476 564 l 607 300 q 708 106 678 160 q 761 35 739 53 q 818 17 783 17 q 822 8 822 17 q 818 0 822 0 l 688 0 q 597 8 614 0 q 550 90 579 17 q 490 222 521 163 l 369 465 l 311 411 l 258 113 q 250 54 250 63 q 265 24 250 32 q 326 17 281 17 q 331 8 331 17 q 326 0 331 0 q 264 1 285 0 l 169 3 l 81 1 q 18 0 58 0 q 14 8 14 0 q 18 17 14 17 q 76 24 57 17 q 104 50 94 31 q 122 113 114 69 l 236 756 q 242 801 242 792 q 225 841 242 831 q 167 851 208 851 q 164 860 164 851 q 167 868 164 868 l 229 867 q 318 864 285 864 q 410 867 351 864 l 475 868 q 478 860 478 868 q 475 851 478 851 q 418 843 438 851 q 389 815 399 835 q 372 753 379 794 l 319 456 l 610 728 q 643 768 632 747 q 654 807 654 789 q 640 840 654 828 q 597 851 625 851 q 594 860 594 851 q 597 868 594 868 l 665 867 q 778 864 738 864 q 867 867 819 864 l 914 868 m 474 942 q 467 948 468 942 q 469 957 465 954 q 586 1053 511 988 q 643 1101 640 1099 q 694 1097 651 1108 q 769 1069 736 1085 q 785 1050 801 1053 q 627 1003 699 1029 q 476 943 556 978 l 474 942 z "},"Ǩ":{"ha":868,"x_min":14,"x_max":918,"o":"m 914 868 q 918 860 918 868 q 914 851 918 851 q 785 816 858 851 q 644 719 713 781 l 476 564 l 607 300 q 708 106 678 160 q 761 35 739 53 q 818 17 783 17 q 822 8 822 17 q 818 0 822 0 l 688 0 q 597 8 614 0 q 550 90 579 17 q 490 222 521 163 l 369 465 l 311 411 l 258 113 q 250 54 250 63 q 265 24 250 32 q 326 17 281 17 q 331 8 331 17 q 326 0 331 0 q 264 1 285 0 l 169 3 l 81 1 q 18 0 58 0 q 14 8 14 0 q 18 17 14 17 q 76 24 57 17 q 104 50 94 31 q 122 113 114 69 l 236 756 q 242 801 242 792 q 225 841 242 831 q 167 851 208 851 q 164 860 164 851 q 167 868 164 868 l 229 867 q 318 864 285 864 q 410 867 351 864 l 475 868 q 478 860 478 868 q 475 851 478 851 q 418 843 438 851 q 389 815 399 835 q 372 753 379 794 l 319 456 l 610 728 q 643 768 632 747 q 654 807 654 789 q 640 840 654 828 q 597 851 625 851 q 594 860 594 851 q 597 868 594 868 l 665 867 q 778 864 738 864 q 867 867 819 864 l 914 868 m 428 1099 l 428 1100 q 432 1106 428 1103 q 439 1108 436 1110 l 569 1054 l 722 1108 q 730 1105 725 1110 q 731 1099 735 1100 l 569 938 q 556 932 564 932 q 544 938 549 932 l 428 1099 z "},"Ķ":{"ha":868,"x_min":14,"x_max":918,"o":"m 914 868 q 918 860 918 868 q 914 851 918 851 q 785 816 858 851 q 644 719 713 781 l 476 564 l 607 300 q 708 106 678 160 q 761 35 739 53 q 818 17 783 17 q 822 8 822 17 q 818 0 822 0 l 688 0 q 597 8 614 0 q 550 90 579 17 q 490 222 521 163 l 369 465 l 311 411 l 258 113 q 250 54 250 63 q 265 24 250 32 q 326 17 281 17 q 331 8 331 17 q 326 0 331 0 q 264 1 285 0 l 169 3 l 81 1 q 18 0 58 0 q 14 8 14 0 q 18 17 14 17 q 76 24 57 17 q 104 50 94 31 q 122 113 114 69 l 236 756 q 242 801 242 792 q 225 841 242 831 q 167 851 208 851 q 164 860 164 851 q 167 868 164 868 l 229 867 q 318 864 285 864 q 410 867 351 864 l 475 868 q 478 860 478 868 q 475 851 478 851 q 418 843 438 851 q 389 815 399 835 q 372 753 379 794 l 319 456 l 610 728 q 643 768 632 747 q 654 807 654 789 q 640 840 654 828 q 597 851 625 851 q 594 860 594 851 q 597 868 594 868 l 665 867 q 778 864 738 864 q 867 867 819 864 l 914 868 m 394 -96 q 455 -119 435 -96 q 475 -182 475 -143 q 436 -295 475 -243 q 335 -382 397 -347 l 332 -383 q 324 -377 326 -383 q 325 -368 321 -371 q 407 -275 397 -325 q 410 -247 410 -264 q 383 -251 399 -251 q 328 -228 347 -251 q 310 -175 310 -206 q 332 -119 310 -142 q 394 -96 354 -96 z "},"L":{"ha":701,"x_min":17,"x_max":683,"o":"m 19 0 q 17 8 17 0 q 19 17 17 17 q 77 24 58 17 q 105 50 96 31 q 122 113 114 69 l 236 756 q 242 801 242 792 q 225 841 242 831 q 167 851 208 851 q 164 860 164 851 q 167 868 164 868 l 229 867 q 318 864 285 864 q 410 867 351 864 l 475 868 q 478 860 478 868 q 475 851 478 851 q 417 844 436 851 q 389 816 399 836 q 372 754 379 796 l 260 118 q 256 74 256 92 q 267 38 256 47 q 310 29 279 29 l 346 29 q 526 80 449 29 q 667 238 604 131 q 672 239 668 239 q 682 233 683 239 q 633 21 647 104 q 626 5 631 10 q 611 0 621 0 l 19 0 z "},"Ĺ":{"ha":701,"x_min":17,"x_max":682,"o":"m 19 0 q 17 8 17 0 q 19 17 17 17 q 77 24 58 17 q 105 50 96 31 q 122 113 114 69 l 236 756 q 242 801 242 792 q 225 841 242 831 q 167 851 208 851 q 164 860 164 851 q 167 868 164 868 l 229 867 q 318 864 285 864 q 410 867 351 864 l 475 868 q 478 860 478 868 q 475 851 478 851 q 417 844 436 851 q 389 816 399 836 q 372 754 379 796 l 260 118 q 256 74 256 92 q 267 38 256 47 q 310 29 279 29 l 346 29 q 526 80 449 29 q 667 238 604 131 q 672 239 668 239 q 682 233 683 239 q 633 21 647 104 q 626 5 631 10 q 611 0 621 0 l 19 0 m 247 942 q 240 948 242 942 q 243 957 239 954 q 360 1053 285 988 q 417 1101 414 1099 q 467 1097 425 1108 q 542 1069 510 1085 q 558 1050 575 1053 q 401 1003 472 1029 q 250 943 329 978 l 247 942 z "},"Ľ":{"ha":701,"x_min":17,"x_max":693,"o":"m 19 0 q 17 8 17 0 q 19 17 17 17 q 77 24 58 17 q 105 50 96 31 q 122 113 114 69 l 236 756 q 242 801 242 792 q 225 841 242 831 q 167 851 208 851 q 164 860 164 851 q 167 868 164 868 l 229 867 q 318 864 285 864 q 410 867 351 864 l 475 868 q 478 860 478 868 q 475 851 478 851 q 417 844 436 851 q 389 816 399 836 q 372 754 379 796 l 260 118 q 256 74 256 92 q 267 38 256 47 q 310 29 279 29 l 346 29 q 526 80 449 29 q 667 238 604 131 q 672 239 668 239 q 682 233 683 239 q 633 21 647 104 q 626 5 631 10 q 611 0 621 0 l 19 0 m 608 868 q 634 862 611 875 q 676 831 657 849 q 693 806 696 813 l 567 490 q 558 488 565 488 q 551 490 551 488 l 608 868 z "},"Ļ":{"ha":701,"x_min":17,"x_max":682,"o":"m 19 0 q 17 8 17 0 q 19 17 17 17 q 77 24 58 17 q 105 50 96 31 q 122 113 114 69 l 236 756 q 242 801 242 792 q 225 841 242 831 q 167 851 208 851 q 164 860 164 851 q 167 868 164 868 l 229 867 q 318 864 285 864 q 410 867 351 864 l 475 868 q 478 860 478 868 q 475 851 478 851 q 417 844 436 851 q 389 816 399 836 q 372 754 379 796 l 260 118 q 256 74 256 92 q 267 38 256 47 q 310 29 279 29 l 346 29 q 526 80 449 29 q 667 238 604 131 q 672 239 668 239 q 682 233 683 239 q 633 21 647 104 q 626 5 631 10 q 611 0 621 0 l 19 0 m 335 -96 q 395 -119 375 -96 q 415 -182 415 -143 q 376 -295 415 -243 q 275 -382 338 -347 l 272 -383 q 264 -377 267 -383 q 265 -368 261 -371 q 347 -275 338 -325 q 350 -247 350 -264 q 324 -251 339 -251 q 269 -228 288 -251 q 250 -175 250 -206 q 272 -119 250 -142 q 335 -96 294 -96 z "},"Ŀ":{"ha":701,"x_min":17,"x_max":692,"o":"m 19 0 q 17 8 17 0 q 19 17 17 17 q 77 24 58 17 q 105 50 96 31 q 122 113 114 69 l 236 756 q 242 801 242 792 q 225 841 242 831 q 167 851 208 851 q 164 860 164 851 q 167 868 164 868 l 229 867 q 318 864 285 864 q 410 867 351 864 l 475 868 q 478 860 478 868 q 475 851 478 851 q 417 844 436 851 q 389 816 399 836 q 372 754 379 796 l 260 118 q 256 74 256 92 q 267 38 256 47 q 310 29 279 29 l 346 29 q 526 80 449 29 q 667 238 604 131 q 672 239 668 239 q 682 233 683 239 q 633 21 647 104 q 626 5 631 10 q 611 0 621 0 l 19 0 m 615 374 q 558 394 579 374 q 536 453 536 415 q 558 508 536 488 q 615 528 579 528 q 672 508 651 528 q 692 453 692 488 q 672 394 692 415 q 615 374 651 374 z "},"Ḷ":{"ha":701,"x_min":17,"x_max":682,"o":"m 19 0 q 17 8 17 0 q 19 17 17 17 q 77 24 58 17 q 105 50 96 31 q 122 113 114 69 l 236 756 q 242 801 242 792 q 225 841 242 831 q 167 851 208 851 q 164 860 164 851 q 167 868 164 868 l 229 867 q 318 864 285 864 q 410 867 351 864 l 475 868 q 478 860 478 868 q 475 851 478 851 q 417 844 436 851 q 389 816 399 836 q 372 754 379 796 l 260 118 q 256 74 256 92 q 267 38 256 47 q 310 29 279 29 l 346 29 q 526 80 449 29 q 667 238 604 131 q 672 239 668 239 q 682 233 683 239 q 633 21 647 104 q 626 5 631 10 q 611 0 621 0 l 19 0 m 332 -282 q 274 -261 294 -282 q 253 -201 253 -240 q 274 -147 253 -168 q 332 -126 296 -126 q 388 -147 368 -126 q 408 -201 408 -168 q 388 -261 408 -240 q 332 -282 368 -282 z "},"Ḹ":{"ha":701,"x_min":17,"x_max":682,"o":"m 19 0 q 17 8 17 0 q 19 17 17 17 q 77 24 58 17 q 105 50 96 31 q 122 113 114 69 l 236 756 q 242 801 242 792 q 225 841 242 831 q 167 851 208 851 q 164 860 164 851 q 167 868 164 868 l 229 867 q 318 864 285 864 q 410 867 351 864 l 475 868 q 478 860 478 868 q 475 851 478 851 q 417 844 436 851 q 389 816 399 836 q 372 754 379 796 l 260 118 q 256 74 256 92 q 267 38 256 47 q 310 29 279 29 l 346 29 q 526 80 449 29 q 667 238 604 131 q 672 239 668 239 q 682 233 683 239 q 633 21 647 104 q 626 5 631 10 q 611 0 621 0 l 19 0 m 332 -282 q 274 -261 294 -282 q 253 -201 253 -240 q 274 -147 253 -168 q 332 -126 296 -126 q 388 -147 368 -126 q 408 -201 408 -168 q 388 -261 408 -240 q 332 -282 368 -282 m 144 990 q 131 1017 131 990 q 134 1034 131 1026 q 144 1042 138 1042 l 493 1042 q 503 1034 500 1042 q 507 1017 507 1026 q 493 990 507 990 l 144 990 z "},"Ḻ":{"ha":701,"x_min":17,"x_max":682,"o":"m 19 0 q 17 8 17 0 q 19 17 17 17 q 77 24 58 17 q 105 50 96 31 q 122 113 114 69 l 236 756 q 242 801 242 792 q 225 841 242 831 q 167 851 208 851 q 164 860 164 851 q 167 868 164 868 l 229 867 q 318 864 285 864 q 410 867 351 864 l 475 868 q 478 860 478 868 q 475 851 478 851 q 417 844 436 851 q 389 816 399 836 q 372 754 379 796 l 260 118 q 256 74 256 92 q 267 38 256 47 q 310 29 279 29 l 346 29 q 526 80 449 29 q 667 238 604 131 q 672 239 668 239 q 682 233 683 239 q 633 21 647 104 q 626 5 631 10 q 611 0 621 0 l 19 0 m 196 -171 q 185 -162 189 -171 q 182 -143 182 -154 q 185 -124 182 -132 q 196 -115 189 -115 l 513 -115 q 523 -124 519 -115 q 526 -143 526 -132 q 523 -162 526 -154 q 513 -171 519 -171 l 196 -171 z "},"Ł":{"ha":701,"x_min":17,"x_max":683,"o":"m 667 238 q 672 239 668 239 q 682 233 683 239 q 633 21 647 104 q 626 5 631 10 q 611 0 621 0 l 19 0 q 17 8 17 0 q 19 17 17 17 q 77 24 58 17 q 105 50 96 31 q 122 113 114 69 l 168 371 l 103 333 l 101 333 q 90 344 96 333 q 89 356 85 354 l 174 404 l 236 756 q 242 801 242 792 q 225 841 242 831 q 167 851 208 851 q 164 860 164 851 q 167 868 164 868 l 229 867 q 318 864 285 864 q 410 867 351 864 l 475 868 q 478 860 478 868 q 475 851 478 851 q 417 844 436 851 q 389 816 399 836 q 372 754 379 796 l 326 492 l 393 531 l 394 531 q 406 520 400 531 q 406 508 411 510 l 319 458 l 260 118 q 256 74 256 92 q 267 38 256 47 q 310 29 279 29 l 346 29 q 526 80 449 29 q 667 238 604 131 z "},"M":{"ha":1031,"x_min":14,"x_max":1072,"o":"m 1069 868 q 1072 860 1072 868 q 1069 851 1072 851 q 1004 833 1025 851 q 975 758 983 814 l 879 113 q 875 69 875 88 q 891 27 875 38 q 949 17 907 17 q 953 8 953 17 q 949 0 953 0 q 886 1 910 0 l 794 3 l 704 1 q 640 0 681 0 q 636 8 636 0 q 640 17 636 17 q 699 24 679 17 q 727 50 718 31 q 743 113 736 69 l 842 774 l 465 10 q 456 4 463 4 q 444 11 447 4 l 292 740 l 190 181 q 185 124 185 153 q 205 44 185 72 q 263 17 225 17 q 267 8 267 17 q 263 0 267 0 q 213 1 231 0 l 138 3 l 72 1 q 18 0 54 0 q 14 8 14 0 q 18 17 14 17 q 101 60 65 17 q 151 176 138 103 l 268 803 q 169 851 238 851 q 165 860 165 851 q 169 868 165 868 q 203 867 190 868 l 258 865 l 340 867 q 375 868 356 868 q 399 854 390 868 q 418 796 408 840 l 539 222 l 836 833 q 857 858 843 849 q 888 868 871 868 q 919 867 907 868 l 978 865 l 1032 867 q 1069 868 1044 868 z "},"Ṁ":{"ha":1031,"x_min":14,"x_max":1072,"o":"m 1069 868 q 1072 860 1072 868 q 1069 851 1072 851 q 1004 833 1025 851 q 975 758 983 814 l 879 113 q 875 69 875 88 q 891 27 875 38 q 949 17 907 17 q 953 8 953 17 q 949 0 953 0 q 886 1 910 0 l 794 3 l 704 1 q 640 0 681 0 q 636 8 636 0 q 640 17 636 17 q 699 24 679 17 q 727 50 718 31 q 743 113 736 69 l 842 774 l 465 10 q 456 4 463 4 q 444 11 447 4 l 292 740 l 190 181 q 185 124 185 153 q 205 44 185 72 q 263 17 225 17 q 267 8 267 17 q 263 0 267 0 q 213 1 231 0 l 138 3 l 72 1 q 18 0 54 0 q 14 8 14 0 q 18 17 14 17 q 101 60 65 17 q 151 176 138 103 l 268 803 q 169 851 238 851 q 165 860 165 851 q 169 868 165 868 q 203 867 190 868 l 258 865 l 340 867 q 375 868 356 868 q 399 854 390 868 q 418 796 408 840 l 539 222 l 836 833 q 857 858 843 849 q 888 868 871 868 q 919 867 907 868 l 978 865 l 1032 867 q 1069 868 1044 868 m 656 990 q 598 1012 619 990 q 576 1071 576 1033 q 598 1126 576 1106 q 656 1146 619 1146 q 712 1126 692 1146 q 732 1071 732 1106 q 712 1012 732 1033 q 656 990 692 990 z "},"Ṃ":{"ha":1031,"x_min":14,"x_max":1072,"o":"m 1069 868 q 1072 860 1072 868 q 1069 851 1072 851 q 1004 833 1025 851 q 975 758 983 814 l 879 113 q 875 69 875 88 q 891 27 875 38 q 949 17 907 17 q 953 8 953 17 q 949 0 953 0 q 886 1 910 0 l 794 3 l 704 1 q 640 0 681 0 q 636 8 636 0 q 640 17 636 17 q 699 24 679 17 q 727 50 718 31 q 743 113 736 69 l 842 774 l 465 10 q 456 4 463 4 q 444 11 447 4 l 292 740 l 190 181 q 185 124 185 153 q 205 44 185 72 q 263 17 225 17 q 267 8 267 17 q 263 0 267 0 q 213 1 231 0 l 138 3 l 72 1 q 18 0 54 0 q 14 8 14 0 q 18 17 14 17 q 101 60 65 17 q 151 176 138 103 l 268 803 q 169 851 238 851 q 165 860 165 851 q 169 868 165 868 q 203 867 190 868 l 258 865 l 340 867 q 375 868 356 868 q 399 854 390 868 q 418 796 408 840 l 539 222 l 836 833 q 857 858 843 849 q 888 868 871 868 q 919 867 907 868 l 978 865 l 1032 867 q 1069 868 1044 868 m 438 -282 q 379 -261 400 -282 q 358 -201 358 -240 q 380 -147 358 -168 q 438 -126 401 -126 q 494 -147 474 -126 q 514 -201 514 -168 q 494 -261 514 -240 q 438 -282 474 -282 z "},"N":{"ha":910,"x_min":-7,"x_max":989,"o":"m 986 868 q 989 860 989 868 q 986 851 989 851 q 895 813 933 851 q 844 707 857 774 l 717 -10 q 709 -17 717 -14 q 693 -21 701 -21 q 676 -12 681 -21 l 276 718 l 176 161 q 174 122 174 147 q 199 44 174 72 q 268 17 224 17 q 271 8 271 17 q 268 0 271 0 q 213 1 232 0 l 133 3 l 58 1 q -3 0 38 0 q -7 8 -7 0 q -3 17 -7 17 q 88 56 50 17 q 138 161 126 94 l 247 769 q 196 833 221 815 q 142 851 171 851 q 138 860 138 851 q 142 868 138 868 l 207 867 q 263 865 228 865 q 320 867 296 865 q 353 868 344 868 q 365 863 361 868 q 375 843 369 858 q 384 824 378 838 q 399 796 390 811 l 717 217 l 806 707 q 810 749 810 731 q 785 824 810 797 q 715 851 760 851 q 711 860 711 851 q 715 868 711 868 l 765 867 q 850 864 815 864 q 925 867 875 864 l 986 868 z "},"Ń":{"ha":910,"x_min":-7,"x_max":989,"o":"m 986 868 q 989 860 989 868 q 986 851 989 851 q 895 813 933 851 q 844 707 857 774 l 717 -10 q 709 -17 717 -14 q 693 -21 701 -21 q 676 -12 681 -21 l 276 718 l 176 161 q 174 122 174 147 q 199 44 174 72 q 268 17 224 17 q 271 8 271 17 q 268 0 271 0 q 213 1 232 0 l 133 3 l 58 1 q -3 0 38 0 q -7 8 -7 0 q -3 17 -7 17 q 88 56 50 17 q 138 161 126 94 l 247 769 q 196 833 221 815 q 142 851 171 851 q 138 860 138 851 q 142 868 138 868 l 207 867 q 263 865 228 865 q 320 867 296 865 q 353 868 344 868 q 365 863 361 868 q 375 843 369 858 q 384 824 378 838 q 399 796 390 811 l 717 217 l 806 707 q 810 749 810 731 q 785 824 810 797 q 715 851 760 851 q 711 860 711 851 q 715 868 711 868 l 765 867 q 850 864 815 864 q 925 867 875 864 l 986 868 m 485 942 q 478 948 479 942 q 481 957 476 954 q 597 1053 522 988 q 654 1101 651 1099 q 705 1097 663 1108 q 780 1069 747 1085 q 796 1050 813 1053 q 638 1003 710 1029 q 488 943 567 978 l 485 942 z "},"Ň":{"ha":910,"x_min":-7,"x_max":989,"o":"m 986 868 q 989 860 989 868 q 986 851 989 851 q 895 813 933 851 q 844 707 857 774 l 717 -10 q 709 -17 717 -14 q 693 -21 701 -21 q 676 -12 681 -21 l 276 718 l 176 161 q 174 122 174 147 q 199 44 174 72 q 268 17 224 17 q 271 8 271 17 q 268 0 271 0 q 213 1 232 0 l 133 3 l 58 1 q -3 0 38 0 q -7 8 -7 0 q -3 17 -7 17 q 88 56 50 17 q 138 161 126 94 l 247 769 q 196 833 221 815 q 142 851 171 851 q 138 860 138 851 q 142 868 138 868 l 207 867 q 263 865 228 865 q 320 867 296 865 q 353 868 344 868 q 365 863 361 868 q 375 843 369 858 q 384 824 378 838 q 399 796 390 811 l 717 217 l 806 707 q 810 749 810 731 q 785 824 810 797 q 715 851 760 851 q 711 860 711 851 q 715 868 711 868 l 765 867 q 850 864 815 864 q 925 867 875 864 l 986 868 m 439 1099 l 439 1100 q 443 1106 439 1103 q 450 1108 447 1110 l 581 1054 l 733 1108 q 741 1105 736 1110 q 742 1099 746 1100 l 581 938 q 567 932 575 932 q 556 938 560 932 l 439 1099 z "},"Ņ":{"ha":910,"x_min":-7,"x_max":989,"o":"m 986 868 q 989 860 989 868 q 986 851 989 851 q 895 813 933 851 q 844 707 857 774 l 717 -10 q 709 -17 717 -14 q 693 -21 701 -21 q 676 -12 681 -21 l 276 718 l 176 161 q 174 122 174 147 q 199 44 174 72 q 268 17 224 17 q 271 8 271 17 q 268 0 271 0 q 213 1 232 0 l 133 3 l 58 1 q -3 0 38 0 q -7 8 -7 0 q -3 17 -7 17 q 88 56 50 17 q 138 161 126 94 l 247 769 q 196 833 221 815 q 142 851 171 851 q 138 860 138 851 q 142 868 138 868 l 207 867 q 263 865 228 865 q 320 867 296 865 q 353 868 344 868 q 365 863 361 868 q 375 843 369 858 q 384 824 378 838 q 399 796 390 811 l 717 217 l 806 707 q 810 749 810 731 q 785 824 810 797 q 715 851 760 851 q 711 860 711 851 q 715 868 711 868 l 765 867 q 850 864 815 864 q 925 867 875 864 l 986 868 m 410 -96 q 470 -119 450 -96 q 490 -182 490 -143 q 451 -295 490 -243 q 350 -382 413 -347 l 347 -383 q 339 -377 342 -383 q 340 -368 336 -371 q 422 -275 413 -325 q 425 -247 425 -264 q 399 -251 414 -251 q 344 -228 363 -251 q 325 -175 325 -206 q 347 -119 325 -142 q 410 -96 369 -96 z "},"Ṅ":{"ha":910,"x_min":-7,"x_max":989,"o":"m 986 868 q 989 860 989 868 q 986 851 989 851 q 895 813 933 851 q 844 707 857 774 l 717 -10 q 709 -17 717 -14 q 693 -21 701 -21 q 676 -12 681 -21 l 276 718 l 176 161 q 174 122 174 147 q 199 44 174 72 q 268 17 224 17 q 271 8 271 17 q 268 0 271 0 q 213 1 232 0 l 133 3 l 58 1 q -3 0 38 0 q -7 8 -7 0 q -3 17 -7 17 q 88 56 50 17 q 138 161 126 94 l 247 769 q 196 833 221 815 q 142 851 171 851 q 138 860 138 851 q 142 868 138 868 l 207 867 q 263 865 228 865 q 320 867 296 865 q 353 868 344 868 q 365 863 361 868 q 375 843 369 858 q 384 824 378 838 q 399 796 390 811 l 717 217 l 806 707 q 810 749 810 731 q 785 824 810 797 q 715 851 760 851 q 711 860 711 851 q 715 868 711 868 l 765 867 q 850 864 815 864 q 925 867 875 864 l 986 868 m 592 990 q 534 1012 556 990 q 513 1071 513 1033 q 534 1126 513 1106 q 592 1146 556 1146 q 648 1126 628 1146 q 668 1071 668 1106 q 648 1012 668 1033 q 592 990 628 990 z "},"Ṇ":{"ha":910,"x_min":-7,"x_max":989,"o":"m 986 868 q 989 860 989 868 q 986 851 989 851 q 895 813 933 851 q 844 707 857 774 l 717 -10 q 709 -17 717 -14 q 693 -21 701 -21 q 676 -12 681 -21 l 276 718 l 176 161 q 174 122 174 147 q 199 44 174 72 q 268 17 224 17 q 271 8 271 17 q 268 0 271 0 q 213 1 232 0 l 133 3 l 58 1 q -3 0 38 0 q -7 8 -7 0 q -3 17 -7 17 q 88 56 50 17 q 138 161 126 94 l 247 769 q 196 833 221 815 q 142 851 171 851 q 138 860 138 851 q 142 868 138 868 l 207 867 q 263 865 228 865 q 320 867 296 865 q 353 868 344 868 q 365 863 361 868 q 375 843 369 858 q 384 824 378 838 q 399 796 390 811 l 717 217 l 806 707 q 810 749 810 731 q 785 824 810 797 q 715 851 760 851 q 711 860 711 851 q 715 868 711 868 l 765 867 q 850 864 815 864 q 925 867 875 864 l 986 868 m 407 -282 q 349 -261 369 -282 q 328 -201 328 -240 q 349 -147 328 -168 q 407 -126 371 -126 q 463 -147 443 -126 q 483 -201 483 -168 q 463 -261 483 -240 q 407 -282 443 -282 z "},"Ŋ":{"ha":903,"x_min":-7,"x_max":989,"o":"m 986 868 q 989 860 989 868 q 986 851 989 851 q 895 813 933 851 q 844 707 857 774 l 717 -10 l 717 -11 q 637 -202 692 -139 q 494 -265 582 -265 q 399 -240 436 -265 q 363 -175 363 -215 q 385 -116 363 -136 q 443 -96 407 -96 q 490 -111 478 -96 q 513 -158 503 -126 q 528 -195 519 -183 q 558 -207 538 -207 q 676 -12 643 -207 l 276 718 l 176 161 q 174 122 174 147 q 199 44 174 72 q 268 17 224 17 q 271 8 271 17 q 268 0 271 0 q 213 1 232 0 l 133 3 l 58 1 q -3 0 38 0 q -7 8 -7 0 q -3 17 -7 17 q 88 56 50 17 q 138 161 126 94 l 247 769 q 196 833 221 815 q 142 851 171 851 q 138 860 138 851 q 142 868 138 868 l 207 867 q 263 865 228 865 q 320 867 296 865 q 353 868 344 868 q 365 863 361 868 q 375 843 369 858 q 384 824 378 838 q 399 796 390 811 l 717 217 l 806 707 q 810 749 810 731 q 785 824 810 797 q 715 851 760 851 q 711 860 711 851 q 715 868 711 868 l 765 867 q 850 864 815 864 q 925 867 875 864 l 986 868 z "},"Ṉ":{"ha":910,"x_min":-7,"x_max":989,"o":"m 986 868 q 989 860 989 868 q 986 851 989 851 q 895 813 933 851 q 844 707 857 774 l 717 -10 q 709 -17 717 -14 q 693 -21 701 -21 q 676 -12 681 -21 l 276 718 l 176 161 q 174 122 174 147 q 199 44 174 72 q 268 17 224 17 q 271 8 271 17 q 268 0 271 0 q 213 1 232 0 l 133 3 l 58 1 q -3 0 38 0 q -7 8 -7 0 q -3 17 -7 17 q 88 56 50 17 q 138 161 126 94 l 247 769 q 196 833 221 815 q 142 851 171 851 q 138 860 138 851 q 142 868 138 868 l 207 867 q 263 865 228 865 q 320 867 296 865 q 353 868 344 868 q 365 863 361 868 q 375 843 369 858 q 384 824 378 838 q 399 796 390 811 l 717 217 l 806 707 q 810 749 810 731 q 785 824 810 797 q 715 851 760 851 q 711 860 711 851 q 715 868 711 868 l 765 867 q 850 864 815 864 q 925 867 875 864 l 986 868 m 271 -171 q 260 -162 264 -171 q 257 -143 257 -154 q 260 -124 257 -132 q 271 -115 264 -115 l 588 -115 q 598 -124 594 -115 q 601 -143 601 -132 q 598 -162 601 -154 q 588 -171 594 -171 l 271 -171 z "},"Ñ":{"ha":910,"x_min":-7,"x_max":989,"o":"m 986 868 q 989 860 989 868 q 986 851 989 851 q 895 813 933 851 q 844 707 857 774 l 717 -10 q 709 -17 717 -14 q 693 -21 701 -21 q 676 -12 681 -21 l 276 718 l 176 161 q 174 122 174 147 q 199 44 174 72 q 268 17 224 17 q 271 8 271 17 q 268 0 271 0 q 213 1 232 0 l 133 3 l 58 1 q -3 0 38 0 q -7 8 -7 0 q -3 17 -7 17 q 88 56 50 17 q 138 161 126 94 l 247 769 q 196 833 221 815 q 142 851 171 851 q 138 860 138 851 q 142 868 138 868 l 207 867 q 263 865 228 865 q 320 867 296 865 q 353 868 344 868 q 365 863 361 868 q 375 843 369 858 q 384 824 378 838 q 399 796 390 811 l 717 217 l 806 707 q 810 749 810 731 q 785 824 810 797 q 715 851 760 851 q 711 860 711 851 q 715 868 711 868 l 765 867 q 850 864 815 864 q 925 867 875 864 l 986 868 m 401 953 q 399 951 401 951 q 393 956 396 951 q 392 963 390 960 q 456 1042 422 1010 q 531 1075 489 1075 q 567 1069 544 1075 q 596 1061 589 1063 q 697 1040 664 1040 q 747 1049 728 1040 q 786 1078 765 1057 l 788 1078 q 794 1074 792 1078 q 796 1068 797 1071 q 727 978 754 1000 q 664 956 700 956 q 586 972 642 956 q 549 982 581 974 q 490 990 518 990 q 444 984 458 990 q 417 967 429 978 q 401 953 406 957 z "},"O":{"ha":910,"x_min":74,"x_max":894,"o":"m 390 -17 q 220 28 292 -17 q 111 153 149 74 q 74 332 74 232 q 83 435 74 374 q 176 665 106 563 q 350 825 246 767 q 571 883 454 883 q 744 839 671 883 q 856 716 817 794 q 894 536 894 638 q 885 435 894 483 q 786 196 861 299 q 606 38 711 93 q 390 -17 501 -17 m 450 19 q 624 112 549 19 q 726 361 700 204 q 738 496 738 422 q 679 750 738 650 q 517 850 621 850 q 342 758 417 850 q 240 508 267 665 q 229 375 229 435 q 287 121 229 222 q 450 19 344 19 z "},"Ó":{"ha":910,"x_min":74,"x_max":894,"o":"m 390 -17 q 220 28 292 -17 q 111 153 149 74 q 74 332 74 232 q 83 435 74 374 q 176 665 106 563 q 350 825 246 767 q 571 883 454 883 q 744 839 671 883 q 856 716 817 794 q 894 536 894 638 q 885 435 894 483 q 786 196 861 299 q 606 38 711 93 q 390 -17 501 -17 m 450 19 q 624 112 549 19 q 726 361 700 204 q 738 496 738 422 q 679 750 738 650 q 517 850 621 850 q 342 758 417 850 q 240 508 267 665 q 229 375 229 435 q 287 121 229 222 q 450 19 344 19 m 482 942 q 475 948 476 942 q 478 957 474 954 q 594 1053 519 988 q 651 1101 649 1099 q 702 1097 660 1108 q 777 1069 744 1085 q 793 1050 810 1053 q 635 1003 707 1029 q 485 943 564 978 l 482 942 z "},"Ŏ":{"ha":910,"x_min":74,"x_max":894,"o":"m 390 -17 q 220 28 292 -17 q 111 153 149 74 q 74 332 74 232 q 83 435 74 374 q 176 665 106 563 q 350 825 246 767 q 571 883 454 883 q 744 839 671 883 q 856 716 817 794 q 894 536 894 638 q 885 435 894 483 q 786 196 861 299 q 606 38 711 93 q 390 -17 501 -17 m 450 19 q 624 112 549 19 q 726 361 700 204 q 738 496 738 422 q 679 750 738 650 q 517 850 621 850 q 342 758 417 850 q 240 508 267 665 q 229 375 229 435 q 287 121 229 222 q 450 19 344 19 m 567 924 q 469 958 508 924 q 431 1058 431 993 q 464 1074 431 1067 q 525 1081 497 1081 q 546 1076 546 1081 q 575 1023 550 1042 q 633 1004 600 1004 q 685 1021 660 1004 q 728 1071 711 1038 q 736 1075 732 1075 q 747 1072 742 1075 q 751 1067 753 1069 q 669 961 721 999 q 567 924 618 924 z "},"Ǒ":{"ha":910,"x_min":74,"x_max":894,"o":"m 390 -17 q 220 28 292 -17 q 111 153 149 74 q 74 332 74 232 q 83 435 74 374 q 176 665 106 563 q 350 825 246 767 q 571 883 454 883 q 744 839 671 883 q 856 716 817 794 q 894 536 894 638 q 885 435 894 483 q 786 196 861 299 q 606 38 711 93 q 390 -17 501 -17 m 450 19 q 624 112 549 19 q 726 361 700 204 q 738 496 738 422 q 679 750 738 650 q 517 850 621 850 q 342 758 417 850 q 240 508 267 665 q 229 375 229 435 q 287 121 229 222 q 450 19 344 19 m 436 1099 l 436 1100 q 440 1106 436 1103 q 447 1108 444 1110 l 578 1054 l 731 1108 q 738 1105 733 1110 q 739 1099 743 1100 l 578 938 q 564 932 572 932 q 553 938 557 932 l 436 1099 z "},"Ô":{"ha":910,"x_min":74,"x_max":894,"o":"m 390 -17 q 220 28 292 -17 q 111 153 149 74 q 74 332 74 232 q 83 435 74 374 q 176 665 106 563 q 350 825 246 767 q 571 883 454 883 q 744 839 671 883 q 856 716 817 794 q 894 536 894 638 q 885 435 894 483 q 786 196 861 299 q 606 38 711 93 q 390 -17 501 -17 m 450 19 q 624 112 549 19 q 726 361 700 204 q 738 496 738 422 q 679 750 738 650 q 517 850 621 850 q 342 758 417 850 q 240 508 267 665 q 229 375 229 435 q 287 121 229 222 q 450 19 344 19 m 422 917 q 415 920 418 917 q 415 926 413 924 l 576 1086 q 589 1093 581 1093 q 601 1086 597 1093 l 717 926 l 718 924 q 714 918 718 921 q 707 917 710 915 l 576 969 l 424 917 l 422 917 z "},"Ố":{"ha":910,"x_min":74,"x_max":915,"o":"m 390 -17 q 220 28 292 -17 q 111 153 149 74 q 74 332 74 232 q 83 435 74 374 q 176 665 106 563 q 350 825 246 767 q 571 883 454 883 q 744 839 671 883 q 856 716 817 794 q 894 536 894 638 q 885 435 894 483 q 786 196 861 299 q 606 38 711 93 q 390 -17 501 -17 m 450 19 q 624 112 549 19 q 726 361 700 204 q 738 496 738 422 q 679 750 738 650 q 517 850 621 850 q 342 758 417 850 q 240 508 267 665 q 229 375 229 435 q 287 121 229 222 q 450 19 344 19 m 421 917 q 414 920 417 917 q 414 926 411 924 l 575 1086 q 588 1093 579 1093 q 600 1086 596 1093 l 715 926 l 717 924 q 713 918 717 921 q 706 917 708 915 l 575 969 l 422 917 l 421 917 m 676 1004 q 670 1010 672 1004 q 671 1021 668 1017 q 776 1165 739 1107 q 788 1169 779 1169 q 843 1158 807 1169 q 901 1133 879 1146 q 910 1114 924 1119 q 679 1006 792 1074 l 676 1004 z "},"Ộ":{"ha":910,"x_min":74,"x_max":894,"o":"m 390 -17 q 220 28 292 -17 q 111 153 149 74 q 74 332 74 232 q 83 435 74 374 q 176 665 106 563 q 350 825 246 767 q 571 883 454 883 q 744 839 671 883 q 856 716 817 794 q 894 536 894 638 q 885 435 894 483 q 786 196 861 299 q 606 38 711 93 q 390 -17 501 -17 m 450 19 q 624 112 549 19 q 726 361 700 204 q 738 496 738 422 q 679 750 738 650 q 517 850 621 850 q 342 758 417 850 q 240 508 267 665 q 229 375 229 435 q 287 121 229 222 q 450 19 344 19 m 397 -282 q 339 -261 360 -282 q 318 -201 318 -240 q 340 -147 318 -168 q 397 -126 361 -126 q 453 -147 433 -126 q 474 -201 474 -168 q 453 -261 474 -240 q 397 -282 433 -282 m 422 917 q 415 920 418 917 q 415 926 413 924 l 576 1086 q 589 1093 581 1093 q 601 1086 597 1093 l 717 926 l 718 924 q 714 918 718 921 q 707 917 710 915 l 576 969 l 424 917 l 422 917 z "},"Ồ":{"ha":910,"x_min":74,"x_max":894,"o":"m 390 -17 q 220 28 292 -17 q 111 153 149 74 q 74 332 74 232 q 83 435 74 374 q 176 665 106 563 q 350 825 246 767 q 571 883 454 883 q 744 839 671 883 q 856 716 817 794 q 894 536 894 638 q 885 435 894 483 q 786 196 861 299 q 606 38 711 93 q 390 -17 501 -17 m 450 19 q 624 112 549 19 q 726 361 700 204 q 738 496 738 422 q 679 750 738 650 q 517 850 621 850 q 342 758 417 850 q 240 508 267 665 q 229 375 229 435 q 287 121 229 222 q 450 19 344 19 m 419 917 q 413 920 415 917 q 413 926 410 924 l 574 1086 q 586 1093 578 1093 q 599 1086 594 1093 l 714 926 l 715 924 q 711 918 715 921 q 704 917 707 915 l 574 969 l 421 917 l 419 917 m 804 993 q 617 1101 718 1058 q 631 1120 604 1107 q 697 1145 657 1133 q 756 1157 736 1157 q 767 1153 765 1157 q 818 1008 786 1079 l 818 1007 q 814 997 818 1001 q 804 993 810 992 z "},"Ổ":{"ha":910,"x_min":74,"x_max":894,"o":"m 390 -17 q 220 28 292 -17 q 111 153 149 74 q 74 332 74 232 q 83 435 74 374 q 176 665 106 563 q 350 825 246 767 q 571 883 454 883 q 744 839 671 883 q 856 716 817 794 q 894 536 894 638 q 885 435 894 483 q 786 196 861 299 q 606 38 711 93 q 390 -17 501 -17 m 450 19 q 624 112 549 19 q 726 361 700 204 q 738 496 738 422 q 679 750 738 650 q 517 850 621 850 q 342 758 417 850 q 240 508 267 665 q 229 375 229 435 q 287 121 229 222 q 450 19 344 19 m 418 917 q 411 920 414 917 q 411 926 408 924 l 572 1086 q 585 1093 576 1093 q 597 1086 593 1093 l 713 926 l 714 924 q 710 918 714 921 q 703 917 706 915 l 572 969 l 419 917 l 418 917 m 682 996 q 686 1028 681 1014 q 706 1068 692 1043 q 721 1097 714 1082 q 728 1126 728 1113 q 717 1151 728 1143 q 692 1160 706 1160 q 667 1156 676 1160 l 664 1154 q 658 1159 660 1154 q 658 1167 656 1164 q 749 1192 704 1192 q 798 1177 779 1192 q 817 1140 817 1163 q 800 1100 817 1118 q 753 1058 783 1082 q 713 1025 726 1039 q 697 996 699 1011 q 689 992 696 993 q 682 996 682 992 z "},"Ỗ":{"ha":910,"x_min":74,"x_max":894,"o":"m 390 -17 q 220 28 292 -17 q 111 153 149 74 q 74 332 74 232 q 83 435 74 374 q 176 665 106 563 q 350 825 246 767 q 571 883 454 883 q 744 839 671 883 q 856 716 817 794 q 894 536 894 638 q 885 435 894 483 q 786 196 861 299 q 606 38 711 93 q 390 -17 501 -17 m 450 19 q 624 112 549 19 q 726 361 700 204 q 738 496 738 422 q 679 750 738 650 q 517 850 621 850 q 342 758 417 850 q 240 508 267 665 q 229 375 229 435 q 287 121 229 222 q 450 19 344 19 m 411 917 q 404 920 407 917 q 404 926 401 924 l 565 1086 q 578 1093 569 1093 q 590 1086 586 1093 l 706 926 l 707 924 q 703 918 707 921 q 696 917 699 915 l 565 969 l 413 917 l 411 917 m 410 1104 q 403 1108 406 1104 q 401 1114 400 1111 q 465 1194 432 1161 q 539 1226 499 1226 q 604 1213 554 1226 q 657 1198 629 1204 q 707 1192 685 1192 q 755 1200 736 1192 q 794 1229 774 1208 q 797 1231 794 1231 q 803 1226 800 1231 q 804 1219 806 1222 q 735 1131 763 1153 q 672 1108 708 1108 q 594 1124 646 1108 q 546 1136 571 1131 q 499 1142 521 1142 q 451 1135 465 1142 q 411 1104 436 1128 l 410 1104 z "},"Ö":{"ha":910,"x_min":74,"x_max":894,"o":"m 390 -17 q 220 28 292 -17 q 111 153 149 74 q 74 332 74 232 q 83 435 74 374 q 176 665 106 563 q 350 825 246 767 q 571 883 454 883 q 744 839 671 883 q 856 716 817 794 q 894 536 894 638 q 885 435 894 483 q 786 196 861 299 q 606 38 711 93 q 390 -17 501 -17 m 450 19 q 624 112 549 19 q 726 361 700 204 q 738 496 738 422 q 679 750 738 650 q 517 850 621 850 q 342 758 417 850 q 240 508 267 665 q 229 375 229 435 q 287 121 229 222 q 450 19 344 19 m 476 976 q 421 997 440 976 q 401 1053 401 1017 q 422 1105 401 1086 q 476 1124 442 1124 q 528 1105 510 1124 q 547 1053 547 1086 q 528 997 547 1017 q 476 976 510 976 m 697 976 q 642 997 661 976 q 622 1053 622 1017 q 642 1105 622 1086 q 697 1124 663 1124 q 749 1105 731 1124 q 768 1053 768 1086 q 749 997 768 1017 q 697 976 731 976 z "},"Ọ":{"ha":910,"x_min":74,"x_max":894,"o":"m 390 -17 q 220 28 292 -17 q 111 153 149 74 q 74 332 74 232 q 83 435 74 374 q 176 665 106 563 q 350 825 246 767 q 571 883 454 883 q 744 839 671 883 q 856 716 817 794 q 894 536 894 638 q 885 435 894 483 q 786 196 861 299 q 606 38 711 93 q 390 -17 501 -17 m 450 19 q 624 112 549 19 q 726 361 700 204 q 738 496 738 422 q 679 750 738 650 q 517 850 621 850 q 342 758 417 850 q 240 508 267 665 q 229 375 229 435 q 287 121 229 222 q 450 19 344 19 m 397 -282 q 339 -261 360 -282 q 318 -201 318 -240 q 340 -147 318 -168 q 397 -126 361 -126 q 453 -147 433 -126 q 474 -201 474 -168 q 453 -261 474 -240 q 397 -282 433 -282 z "},"Ò":{"ha":910,"x_min":74,"x_max":894,"o":"m 390 -17 q 220 28 292 -17 q 111 153 149 74 q 74 332 74 232 q 83 435 74 374 q 176 665 106 563 q 350 825 246 767 q 571 883 454 883 q 744 839 671 883 q 856 716 817 794 q 894 536 894 638 q 885 435 894 483 q 786 196 861 299 q 606 38 711 93 q 390 -17 501 -17 m 450 19 q 624 112 549 19 q 726 361 700 204 q 738 496 738 422 q 679 750 738 650 q 517 850 621 850 q 342 758 417 850 q 240 508 267 665 q 229 375 229 435 q 287 121 229 222 q 450 19 344 19 m 681 961 q 556 1006 610 989 q 414 1050 503 1024 q 424 1067 397 1054 q 492 1092 450 1081 q 556 1103 535 1103 q 568 1100 565 1103 q 643 1024 603 1061 l 694 974 q 696 969 696 972 q 691 963 696 965 q 681 961 686 960 z "},"Ỏ":{"ha":910,"x_min":74,"x_max":894,"o":"m 390 -17 q 220 28 292 -17 q 111 153 149 74 q 74 332 74 232 q 83 435 74 374 q 176 665 106 563 q 350 825 246 767 q 571 883 454 883 q 744 839 671 883 q 856 716 817 794 q 894 536 894 638 q 885 435 894 483 q 786 196 861 299 q 606 38 711 93 q 390 -17 501 -17 m 450 19 q 624 112 549 19 q 726 361 700 204 q 738 496 738 422 q 679 750 738 650 q 517 850 621 850 q 342 758 417 850 q 240 508 267 665 q 229 375 229 435 q 287 121 229 222 q 450 19 344 19 m 567 907 q 559 903 567 904 q 550 907 551 903 q 547 938 547 929 q 552 977 547 960 q 567 1022 557 994 q 581 1063 576 1046 q 586 1099 586 1079 q 547 1147 586 1147 q 497 1133 528 1147 l 494 1133 q 487 1138 490 1133 q 488 1146 483 1142 q 601 1185 538 1185 q 672 1165 646 1185 q 699 1111 699 1146 q 681 1058 699 1082 q 626 997 663 1033 q 581 947 596 967 q 567 907 567 928 z "},"Ơ":{"ha":910,"x_min":74,"x_max":1040,"o":"m 981 990 q 1026 969 1013 990 q 1036 918 1040 947 q 974 823 1026 861 q 835 751 921 785 q 894 536 894 663 q 885 435 894 496 q 786 196 861 299 q 606 38 711 93 q 390 -17 501 -17 q 220 28 292 -17 q 111 153 149 74 q 74 332 74 232 q 83 435 74 374 q 176 665 106 563 q 350 825 246 767 q 571 883 454 883 q 717 853 653 883 q 824 768 781 824 q 913 847 913 803 q 903 873 913 857 q 894 904 894 889 q 921 967 894 944 q 981 990 947 990 m 726 361 q 738 496 738 422 q 679 750 738 650 q 517 850 621 850 q 342 758 417 850 q 240 508 267 665 q 229 375 229 435 q 287 121 229 222 q 450 19 344 19 q 624 112 549 19 q 726 361 700 204 z "},"Ớ":{"ha":910,"x_min":74,"x_max":1038,"o":"m 981 990 q 1026 969 1013 990 q 1036 918 1040 947 q 974 823 1026 861 q 835 751 921 785 q 894 536 894 663 q 885 435 894 496 q 786 196 861 299 q 606 38 711 93 q 390 -17 501 -17 q 220 28 292 -17 q 111 153 149 74 q 74 332 74 232 q 83 435 74 374 q 176 665 106 563 q 350 825 246 767 q 571 883 454 883 q 717 853 653 883 q 824 768 781 824 q 913 847 913 803 q 903 873 913 857 q 894 904 894 889 q 921 967 894 944 q 981 990 947 990 m 726 361 q 738 496 738 422 q 679 750 738 650 q 517 850 621 850 q 342 758 417 850 q 240 508 267 665 q 229 375 229 435 q 287 121 229 222 q 450 19 344 19 q 624 112 549 19 q 726 361 700 204 m 440 942 q 433 948 435 942 q 435 957 431 954 q 556 1054 478 988 q 610 1101 574 1071 q 659 1095 617 1107 q 734 1068 701 1083 q 750 1050 767 1053 q 442 942 586 1008 l 440 942 z "},"Ợ":{"ha":910,"x_min":74,"x_max":1038,"o":"m 981 990 q 1026 969 1013 990 q 1036 918 1040 947 q 974 823 1026 861 q 835 751 921 785 q 894 536 894 663 q 885 435 894 496 q 786 196 861 299 q 606 38 711 93 q 390 -17 501 -17 q 220 28 292 -17 q 111 153 149 74 q 74 332 74 232 q 83 435 74 374 q 176 665 106 563 q 350 825 246 767 q 571 883 454 883 q 717 853 653 883 q 824 768 781 824 q 913 847 913 803 q 903 873 913 857 q 894 904 894 889 q 921 967 894 944 q 981 990 947 990 m 726 361 q 738 496 738 422 q 679 750 738 650 q 517 850 621 850 q 342 758 417 850 q 240 508 267 665 q 229 375 229 435 q 287 121 229 222 q 450 19 344 19 q 624 112 549 19 q 726 361 700 204 m 378 -282 q 319 -261 340 -282 q 299 -201 299 -240 q 320 -147 299 -168 q 378 -126 342 -126 q 434 -147 414 -126 q 454 -201 454 -168 q 434 -261 454 -240 q 378 -282 414 -282 z "},"Ờ":{"ha":910,"x_min":74,"x_max":1038,"o":"m 981 990 q 1026 969 1013 990 q 1036 918 1040 947 q 974 823 1026 861 q 835 751 921 785 q 894 536 894 663 q 885 435 894 496 q 786 196 861 299 q 606 38 711 93 q 390 -17 501 -17 q 220 28 292 -17 q 111 153 149 74 q 74 332 74 232 q 83 435 74 374 q 176 665 106 563 q 350 825 246 767 q 571 883 454 883 q 717 853 653 883 q 824 768 781 824 q 913 847 913 803 q 903 873 913 857 q 894 904 894 889 q 921 967 894 944 q 981 990 947 990 m 726 361 q 738 496 738 422 q 679 750 738 650 q 517 850 621 850 q 342 758 417 850 q 240 508 267 665 q 229 375 229 435 q 287 121 229 222 q 450 19 344 19 q 624 112 549 19 q 726 361 700 204 m 715 943 q 407 1050 560 1013 q 423 1069 390 1053 q 498 1097 456 1085 q 547 1101 540 1108 l 613 1046 q 721 957 674 993 q 725 951 725 956 q 722 944 725 947 q 715 943 719 942 z "},"Ở":{"ha":910,"x_min":74,"x_max":1038,"o":"m 981 990 q 1026 969 1013 990 q 1036 918 1040 947 q 974 823 1026 861 q 835 751 921 785 q 894 536 894 663 q 885 435 894 496 q 786 196 861 299 q 606 38 711 93 q 390 -17 501 -17 q 220 28 292 -17 q 111 153 149 74 q 74 332 74 232 q 83 435 74 374 q 176 665 106 563 q 350 825 246 767 q 571 883 454 883 q 717 853 653 883 q 824 768 781 824 q 913 847 913 803 q 903 873 913 857 q 894 904 894 889 q 921 967 894 944 q 981 990 947 990 m 726 361 q 738 496 738 422 q 679 750 738 650 q 517 850 621 850 q 342 758 417 850 q 240 508 267 665 q 229 375 229 435 q 287 121 229 222 q 450 19 344 19 q 624 112 549 19 q 726 361 700 204 m 589 907 q 581 903 589 904 q 572 907 574 903 q 569 938 569 929 q 574 977 569 960 q 589 1022 579 994 q 603 1063 599 1046 q 608 1099 608 1079 q 569 1147 608 1147 q 519 1133 550 1147 l 517 1133 q 509 1138 513 1133 q 510 1146 506 1142 q 624 1185 560 1185 q 694 1165 668 1185 q 721 1111 721 1146 q 703 1058 721 1082 q 649 997 685 1033 q 603 947 618 967 q 589 907 589 928 z "},"Ỡ":{"ha":910,"x_min":74,"x_max":1038,"o":"m 981 990 q 1026 969 1013 990 q 1036 918 1040 947 q 974 823 1026 861 q 835 751 921 785 q 894 536 894 663 q 885 435 894 496 q 786 196 861 299 q 606 38 711 93 q 390 -17 501 -17 q 220 28 292 -17 q 111 153 149 74 q 74 332 74 232 q 83 435 74 374 q 176 665 106 563 q 350 825 246 767 q 571 883 454 883 q 717 853 653 883 q 824 768 781 824 q 913 847 913 803 q 903 873 913 857 q 894 904 894 889 q 921 967 894 944 q 981 990 947 990 m 726 361 q 738 496 738 422 q 679 750 738 650 q 517 850 621 850 q 342 758 417 850 q 240 508 267 665 q 229 375 229 435 q 287 121 229 222 q 450 19 344 19 q 624 112 549 19 q 726 361 700 204 m 414 985 q 407 988 410 985 q 406 994 404 992 q 469 1074 436 1042 q 543 1107 503 1107 q 608 1093 558 1107 q 661 1078 633 1085 q 711 1072 689 1072 q 759 1081 740 1072 q 799 1110 778 1089 q 801 1111 799 1111 q 807 1107 804 1111 q 808 1100 810 1103 q 740 1011 767 1033 q 676 989 713 989 q 599 1004 650 989 q 550 1017 575 1011 q 503 1022 525 1022 q 455 1015 469 1022 q 415 985 440 1008 l 414 985 z "},"Ő":{"ha":910,"x_min":74,"x_max":894,"o":"m 390 -17 q 220 28 292 -17 q 111 153 149 74 q 74 332 74 232 q 83 435 74 374 q 176 665 106 563 q 350 825 246 767 q 571 883 454 883 q 744 839 671 883 q 856 716 817 794 q 894 536 894 638 q 885 435 894 483 q 786 196 861 299 q 606 38 711 93 q 390 -17 501 -17 m 450 19 q 624 112 549 19 q 726 361 700 204 q 738 496 738 422 q 679 750 738 650 q 517 850 621 850 q 342 758 417 850 q 240 508 267 665 q 229 375 229 435 q 287 121 229 222 q 450 19 344 19 m 381 925 q 375 931 376 925 q 376 942 374 938 l 429 1001 q 518 1110 486 1063 q 535 1115 521 1115 q 587 1107 556 1115 q 636 1088 618 1099 q 643 1067 654 1076 q 594 1042 617 1053 q 554 1021 572 1031 q 383 926 443 969 l 381 925 m 575 925 q 570 931 572 925 q 572 942 568 938 q 628 1006 568 938 q 713 1110 682 1064 q 728 1114 715 1114 q 781 1106 749 1114 q 831 1086 813 1097 q 839 1067 850 1075 q 685 992 739 1019 q 578 926 632 965 l 575 925 z "},"Ō":{"ha":910,"x_min":74,"x_max":894,"o":"m 390 -17 q 220 28 292 -17 q 111 153 149 74 q 74 332 74 232 q 83 435 74 374 q 176 665 106 563 q 350 825 246 767 q 571 883 454 883 q 744 839 671 883 q 856 716 817 794 q 894 536 894 638 q 885 435 894 483 q 786 196 861 299 q 606 38 711 93 q 390 -17 501 -17 m 450 19 q 624 112 549 19 q 726 361 700 204 q 738 496 738 422 q 679 750 738 650 q 517 850 621 850 q 342 758 417 850 q 240 508 267 665 q 229 375 229 435 q 287 121 229 222 q 450 19 344 19 m 429 989 q 419 997 424 989 q 415 1017 415 1006 q 419 1036 415 1028 q 429 1044 424 1044 l 746 1044 q 757 1036 753 1044 q 761 1017 761 1028 q 757 997 761 1006 q 746 989 753 989 l 429 989 z "},"Ǫ":{"ha":910,"x_min":74,"x_max":894,"o":"m 571 883 q 744 839 671 883 q 856 716 817 794 q 894 536 894 638 q 885 435 894 483 q 756 158 856 272 q 521 3 656 44 q 442 -114 469 -61 q 415 -228 415 -167 q 433 -296 415 -269 q 485 -322 450 -322 q 550 -294 519 -322 l 551 -293 q 559 -299 556 -293 q 560 -307 563 -304 q 485 -365 519 -347 q 411 -382 450 -382 q 324 -349 356 -382 q 292 -265 292 -317 q 339 -142 292 -201 q 479 -7 386 -83 q 390 -17 439 -17 q 220 28 292 -17 q 111 153 149 74 q 74 332 74 232 q 83 435 74 374 q 176 665 106 563 q 350 825 246 767 q 571 883 454 883 m 726 361 q 738 496 738 422 q 679 750 738 650 q 517 850 621 850 q 342 758 417 850 q 240 508 267 665 q 229 375 229 435 q 287 121 229 222 q 450 19 344 19 q 624 112 549 19 q 726 361 700 204 z "},"Ø":{"ha":910,"x_min":32,"x_max":932,"o":"m 900 883 q 919 872 907 883 q 928 856 932 860 l 831 757 q 894 536 894 668 q 885 435 894 483 q 786 196 861 299 q 606 38 711 93 q 390 -17 501 -17 q 161 78 247 -17 l 65 -19 l 64 -21 q 44 -8 56 -21 q 38 10 32 4 l 136 110 q 75 333 75 200 q 83 435 75 383 q 176 665 106 563 q 350 825 246 767 q 571 883 454 883 q 704 859 644 883 q 807 789 764 835 l 899 882 l 900 883 m 240 508 q 229 374 229 435 q 247 222 229 289 l 708 689 q 632 808 681 765 q 517 850 583 850 q 342 758 417 850 q 240 508 267 665 m 726 361 q 739 496 739 431 q 721 646 739 571 l 260 178 q 335 62 288 104 q 450 19 383 19 q 624 112 549 19 q 726 361 700 204 z "},"Ǿ":{"ha":910,"x_min":36,"x_max":929,"o":"m 900 883 q 919 872 907 883 q 928 856 932 860 l 831 757 q 894 536 894 668 q 885 435 894 483 q 786 196 861 299 q 606 38 711 93 q 390 -17 501 -17 q 161 78 247 -17 l 65 -19 l 64 -21 q 44 -8 56 -21 q 38 10 32 4 l 136 110 q 75 333 75 200 q 83 435 75 383 q 176 665 106 563 q 350 825 246 767 q 571 883 454 883 q 704 859 644 883 q 807 789 764 835 l 899 882 l 900 883 m 240 508 q 229 374 229 435 q 247 222 229 289 l 708 689 q 632 808 681 765 q 517 850 583 850 q 342 758 417 850 q 240 508 267 665 m 726 361 q 739 496 739 431 q 721 646 739 571 l 260 178 q 335 62 288 104 q 450 19 383 19 q 624 112 549 19 q 726 361 700 204 m 476 942 q 469 948 471 942 q 472 957 468 954 q 589 1053 514 988 q 646 1101 643 1099 q 697 1097 654 1108 q 772 1069 739 1085 q 788 1050 804 1053 q 630 1003 701 1029 q 479 943 558 978 l 476 942 z "},"Õ":{"ha":910,"x_min":74,"x_max":894,"o":"m 390 -17 q 220 28 292 -17 q 111 153 149 74 q 74 332 74 232 q 83 435 74 374 q 176 665 106 563 q 350 825 246 767 q 571 883 454 883 q 744 839 671 883 q 856 716 817 794 q 894 536 894 638 q 885 435 894 483 q 786 196 861 299 q 606 38 711 93 q 390 -17 501 -17 m 450 19 q 624 112 549 19 q 726 361 700 204 q 738 496 738 422 q 679 750 738 650 q 517 850 621 850 q 342 758 417 850 q 240 508 267 665 q 229 375 229 435 q 287 121 229 222 q 450 19 344 19 m 399 953 q 396 951 399 951 q 390 956 393 951 q 389 963 388 960 q 453 1042 419 1010 q 528 1075 486 1075 q 564 1069 542 1075 q 593 1061 586 1063 q 694 1040 661 1040 q 744 1049 725 1040 q 783 1078 763 1057 l 785 1078 q 792 1074 789 1078 q 793 1068 794 1071 q 724 978 751 1000 q 661 956 697 956 q 583 972 639 956 q 547 982 578 974 q 488 990 515 990 q 441 984 456 990 q 415 967 426 978 q 399 953 403 957 z "},"Œ":{"ha":1124,"x_min":72,"x_max":1132,"o":"m 1121 868 q 1129 856 1132 868 l 1118 785 l 1100 669 q 1094 665 1100 665 q 1087 667 1090 665 q 1083 671 1083 669 q 1044 797 1076 754 q 940 839 1013 839 l 917 839 q 858 833 876 839 q 832 810 840 826 q 817 754 824 793 l 767 471 l 892 471 q 990 495 956 471 q 1036 576 1025 519 q 1046 583 1038 583 q 1053 575 1054 582 l 1040 504 q 1031 451 1036 483 l 1019 388 q 1007 308 1015 356 q 997 303 1006 303 q 990 310 989 304 q 993 338 993 329 q 964 408 993 383 q 882 432 935 432 l 760 432 l 706 118 q 700 72 700 82 q 715 35 700 44 q 772 25 731 25 l 807 25 q 935 72 883 25 q 1044 221 988 119 q 1050 224 1047 224 q 1058 222 1054 224 q 1061 218 1063 219 q 1014 21 1035 140 q 1006 4 1011 8 q 990 0 1001 0 l 625 0 q 529 -3 593 0 q 453 -6 474 -6 q 251 40 338 -6 q 119 165 165 85 q 72 346 72 244 q 81 429 72 386 q 183 661 106 561 q 367 816 260 761 q 590 871 475 871 q 671 869 640 871 l 769 868 l 1121 868 m 676 738 q 681 782 681 765 q 663 828 681 815 q 600 842 644 842 q 367 743 464 842 q 238 460 269 644 q 226 338 226 403 q 253 173 226 244 q 328 62 279 101 q 443 22 378 22 q 511 27 489 22 q 547 51 533 32 q 567 114 560 71 l 676 738 z "},"P":{"ha":739,"x_min":18,"x_max":751,"o":"m 21 0 q 18 8 18 0 q 21 17 18 17 q 79 24 60 17 q 108 51 99 31 q 125 113 118 71 l 239 756 q 244 801 244 792 q 228 842 244 832 q 171 851 213 851 q 167 860 167 851 q 171 868 167 868 l 232 867 q 322 864 288 864 q 389 868 350 864 q 489 872 485 872 q 680 823 608 872 q 751 679 751 774 q 747 629 751 657 q 674 481 731 542 q 545 392 618 421 q 404 364 472 364 q 347 371 369 364 q 346 375 346 371 q 349 391 346 382 q 356 399 351 400 q 396 393 372 393 q 524 445 468 393 q 594 601 579 497 q 600 661 600 643 q 560 794 600 746 q 463 843 521 843 q 401 826 418 843 q 374 753 385 808 l 261 113 q 256 67 256 76 q 272 26 256 36 q 329 17 288 17 q 333 8 333 17 q 329 0 333 0 q 265 1 289 0 l 172 3 l 83 1 q 21 0 61 0 z "},"Þ":{"ha":758,"x_min":18,"x_max":754,"o":"m 451 693 q 672 640 590 693 q 754 489 754 588 q 747 433 754 465 q 671 294 729 350 q 536 212 613 239 q 389 185 460 185 q 332 192 360 185 q 331 197 331 192 q 333 212 331 204 q 339 218 336 219 q 381 213 357 213 q 513 258 451 213 q 593 406 574 303 q 600 468 600 440 q 550 609 600 554 q 403 664 500 664 q 357 661 388 664 l 261 113 q 256 68 256 76 q 278 26 256 36 q 363 17 300 17 q 365 8 365 17 q 363 0 365 0 q 286 1 314 0 l 172 3 l 83 1 q 21 0 61 0 q 18 8 18 0 q 21 17 18 17 q 79 24 60 17 q 108 51 99 31 q 125 113 118 71 l 239 756 q 244 801 244 792 q 228 841 244 831 q 171 851 211 851 q 167 860 167 851 q 171 868 167 868 l 232 867 q 322 864 288 864 q 439 867 369 864 l 511 868 q 515 860 515 868 q 511 851 515 851 q 429 845 454 851 q 393 819 404 839 q 374 753 382 800 l 363 689 q 451 693 408 693 z "},"Q":{"ha":910,"x_min":74,"x_max":976,"o":"m 968 -242 q 974 -248 972 -240 q 974 -257 976 -256 q 871 -278 914 -278 q 673 -206 768 -278 q 506 -1 578 -135 q 390 -17 447 -17 q 220 28 292 -17 q 111 153 149 74 q 74 332 74 232 q 83 435 74 374 q 176 665 106 563 q 350 825 246 767 q 571 883 454 883 q 744 839 671 883 q 856 716 817 794 q 894 536 894 638 q 885 435 894 483 q 797 212 863 310 q 636 56 731 114 q 720 -99 667 -29 q 830 -208 774 -168 q 924 -247 886 -247 q 968 -242 950 -247 m 240 508 q 229 375 229 435 q 287 121 229 222 q 450 19 344 19 q 624 112 549 19 q 726 361 700 204 q 738 496 738 422 q 679 750 738 650 q 517 850 621 850 q 342 758 417 850 q 240 508 267 665 z "},"R":{"ha":882,"x_min":21,"x_max":853,"o":"m 849 17 q 853 8 853 17 q 849 0 853 0 l 639 0 q 553 111 608 0 q 432 449 499 222 q 351 439 394 439 q 335 442 343 439 l 276 113 q 271 65 271 86 q 288 26 271 36 q 347 17 304 17 q 353 8 353 17 q 349 0 353 0 q 282 1 306 0 l 189 3 l 93 1 q 26 0 69 0 q 21 8 21 0 q 26 17 21 17 q 89 24 68 17 q 121 52 110 32 q 140 113 132 72 l 253 756 q 258 803 258 782 q 242 842 258 832 q 181 851 225 851 q 175 860 175 851 q 181 868 175 868 l 247 867 q 339 864 303 864 q 383 865 363 864 q 418 868 403 867 q 488 872 458 872 q 658 837 600 872 q 715 736 715 801 q 711 699 715 718 q 652 583 697 638 q 542 490 607 528 q 660 209 610 311 q 756 62 711 107 q 849 17 800 17 m 342 481 q 379 476 358 476 q 506 517 463 476 q 563 651 549 557 q 568 713 568 696 q 542 812 568 781 q 475 843 517 843 q 428 838 442 843 q 406 816 414 833 q 390 753 399 799 l 342 481 z "},"Ŕ":{"ha":882,"x_min":21,"x_max":853,"o":"m 849 17 q 853 8 853 17 q 849 0 853 0 l 639 0 q 553 111 608 0 q 432 449 499 222 q 351 439 394 439 q 335 442 343 439 l 276 113 q 271 65 271 86 q 288 26 271 36 q 347 17 304 17 q 353 8 353 17 q 349 0 353 0 q 282 1 306 0 l 189 3 l 93 1 q 26 0 69 0 q 21 8 21 0 q 26 17 21 17 q 89 24 68 17 q 121 52 110 32 q 140 113 132 72 l 253 756 q 258 803 258 782 q 242 842 258 832 q 181 851 225 851 q 175 860 175 851 q 181 868 175 868 l 247 867 q 339 864 303 864 q 383 865 363 864 q 418 868 403 867 q 488 872 458 872 q 658 837 600 872 q 715 736 715 801 q 711 699 715 718 q 652 583 697 638 q 542 490 607 528 q 660 209 610 311 q 756 62 711 107 q 849 17 800 17 m 342 481 q 379 476 358 476 q 506 517 463 476 q 563 651 549 557 q 568 713 568 696 q 542 812 568 781 q 475 843 517 843 q 428 838 442 843 q 406 816 414 833 q 390 753 399 799 l 342 481 m 404 942 q 397 948 399 942 q 400 957 396 954 q 517 1053 442 988 q 574 1101 571 1099 q 624 1097 582 1108 q 699 1069 667 1085 q 715 1050 732 1053 q 558 1003 629 1029 q 407 943 486 978 l 404 942 z "},"Ř":{"ha":882,"x_min":21,"x_max":853,"o":"m 849 17 q 853 8 853 17 q 849 0 853 0 l 639 0 q 553 111 608 0 q 432 449 499 222 q 351 439 394 439 q 335 442 343 439 l 276 113 q 271 65 271 86 q 288 26 271 36 q 347 17 304 17 q 353 8 353 17 q 349 0 353 0 q 282 1 306 0 l 189 3 l 93 1 q 26 0 69 0 q 21 8 21 0 q 26 17 21 17 q 89 24 68 17 q 121 52 110 32 q 140 113 132 72 l 253 756 q 258 803 258 782 q 242 842 258 832 q 181 851 225 851 q 175 860 175 851 q 181 868 175 868 l 247 867 q 339 864 303 864 q 383 865 363 864 q 418 868 403 867 q 488 872 458 872 q 658 837 600 872 q 715 736 715 801 q 711 699 715 718 q 652 583 697 638 q 542 490 607 528 q 660 209 610 311 q 756 62 711 107 q 849 17 800 17 m 342 481 q 379 476 358 476 q 506 517 463 476 q 563 651 549 557 q 568 713 568 696 q 542 812 568 781 q 475 843 517 843 q 428 838 442 843 q 406 816 414 833 q 390 753 399 799 l 342 481 m 358 1099 l 358 1100 q 363 1106 358 1103 q 369 1108 367 1110 l 500 1054 l 653 1108 q 660 1105 656 1110 q 661 1099 665 1100 l 500 938 q 486 932 494 932 q 475 938 479 932 l 358 1099 z "},"Ŗ":{"ha":882,"x_min":21,"x_max":853,"o":"m 849 17 q 853 8 853 17 q 849 0 853 0 l 639 0 q 553 111 608 0 q 432 449 499 222 q 351 439 394 439 q 335 442 343 439 l 276 113 q 271 65 271 86 q 288 26 271 36 q 347 17 304 17 q 353 8 353 17 q 349 0 353 0 q 282 1 306 0 l 189 3 l 93 1 q 26 0 69 0 q 21 8 21 0 q 26 17 21 17 q 89 24 68 17 q 121 52 110 32 q 140 113 132 72 l 253 756 q 258 803 258 782 q 242 842 258 832 q 181 851 225 851 q 175 860 175 851 q 181 868 175 868 l 247 867 q 339 864 303 864 q 383 865 363 864 q 418 868 403 867 q 488 872 458 872 q 658 837 600 872 q 715 736 715 801 q 711 699 715 718 q 652 583 697 638 q 542 490 607 528 q 660 209 610 311 q 756 62 711 107 q 849 17 800 17 m 342 481 q 379 476 358 476 q 506 517 463 476 q 563 651 549 557 q 568 713 568 696 q 542 812 568 781 q 475 843 517 843 q 428 838 442 843 q 406 816 414 833 q 390 753 399 799 l 342 481 m 447 -96 q 508 -119 488 -96 q 528 -182 528 -143 q 489 -295 528 -243 q 388 -382 450 -347 l 385 -383 q 376 -377 379 -383 q 378 -368 374 -371 q 460 -275 450 -325 q 463 -247 463 -264 q 436 -251 451 -251 q 381 -228 400 -251 q 363 -175 363 -206 q 385 -119 363 -142 q 447 -96 407 -96 z "},"Ṛ":{"ha":882,"x_min":21,"x_max":853,"o":"m 849 17 q 853 8 853 17 q 849 0 853 0 l 639 0 q 553 111 608 0 q 432 449 499 222 q 351 439 394 439 q 335 442 343 439 l 276 113 q 271 65 271 86 q 288 26 271 36 q 347 17 304 17 q 353 8 353 17 q 349 0 353 0 q 282 1 306 0 l 189 3 l 93 1 q 26 0 69 0 q 21 8 21 0 q 26 17 21 17 q 89 24 68 17 q 121 52 110 32 q 140 113 132 72 l 253 756 q 258 803 258 782 q 242 842 258 832 q 181 851 225 851 q 175 860 175 851 q 181 868 175 868 l 247 867 q 339 864 303 864 q 383 865 363 864 q 418 868 403 867 q 488 872 458 872 q 658 837 600 872 q 715 736 715 801 q 711 699 715 718 q 652 583 697 638 q 542 490 607 528 q 660 209 610 311 q 756 62 711 107 q 849 17 800 17 m 342 481 q 379 476 358 476 q 506 517 463 476 q 563 651 549 557 q 568 713 568 696 q 542 812 568 781 q 475 843 517 843 q 428 838 442 843 q 406 816 414 833 q 390 753 399 799 l 342 481 m 444 -282 q 386 -261 407 -282 q 365 -201 365 -240 q 387 -147 365 -168 q 444 -126 408 -126 q 501 -147 481 -126 q 521 -201 521 -168 q 501 -261 521 -240 q 444 -282 481 -282 z "},"Ṝ":{"ha":882,"x_min":21,"x_max":853,"o":"m 849 17 q 853 8 853 17 q 849 0 853 0 l 639 0 q 553 111 608 0 q 432 449 499 222 q 351 439 394 439 q 335 442 343 439 l 276 113 q 271 65 271 86 q 288 26 271 36 q 347 17 304 17 q 353 8 353 17 q 349 0 353 0 q 282 1 306 0 l 189 3 l 93 1 q 26 0 69 0 q 21 8 21 0 q 26 17 21 17 q 89 24 68 17 q 121 52 110 32 q 140 113 132 72 l 253 756 q 258 803 258 782 q 242 842 258 832 q 181 851 225 851 q 175 860 175 851 q 181 868 175 868 l 247 867 q 339 864 303 864 q 383 865 363 864 q 418 868 403 867 q 488 872 458 872 q 658 837 600 872 q 715 736 715 801 q 711 699 715 718 q 652 583 697 638 q 542 490 607 528 q 660 209 610 311 q 756 62 711 107 q 849 17 800 17 m 342 481 q 379 476 358 476 q 506 517 463 476 q 563 651 549 557 q 568 713 568 696 q 542 812 568 781 q 475 843 517 843 q 428 838 442 843 q 406 816 414 833 q 390 753 399 799 l 342 481 m 444 -282 q 386 -261 407 -282 q 365 -201 365 -240 q 387 -147 365 -168 q 444 -126 408 -126 q 501 -147 481 -126 q 521 -201 521 -168 q 501 -261 521 -240 q 444 -282 481 -282 m 301 990 q 288 1017 288 990 q 291 1034 288 1026 q 301 1042 294 1042 l 650 1042 q 660 1034 657 1042 q 664 1017 664 1026 q 650 990 664 990 l 301 990 z "},"Ṟ":{"ha":882,"x_min":21,"x_max":853,"o":"m 849 17 q 853 8 853 17 q 849 0 853 0 l 639 0 q 553 111 608 0 q 432 449 499 222 q 351 439 394 439 q 335 442 343 439 l 276 113 q 271 65 271 86 q 288 26 271 36 q 347 17 304 17 q 353 8 353 17 q 349 0 353 0 q 282 1 306 0 l 189 3 l 93 1 q 26 0 69 0 q 21 8 21 0 q 26 17 21 17 q 89 24 68 17 q 121 52 110 32 q 140 113 132 72 l 253 756 q 258 803 258 782 q 242 842 258 832 q 181 851 225 851 q 175 860 175 851 q 181 868 175 868 l 247 867 q 339 864 303 864 q 383 865 363 864 q 418 868 403 867 q 488 872 458 872 q 658 837 600 872 q 715 736 715 801 q 711 699 715 718 q 652 583 697 638 q 542 490 607 528 q 660 209 610 311 q 756 62 711 107 q 849 17 800 17 m 342 481 q 379 476 358 476 q 506 517 463 476 q 563 651 549 557 q 568 713 568 696 q 542 812 568 781 q 475 843 517 843 q 428 838 442 843 q 406 816 414 833 q 390 753 399 799 l 342 481 m 308 -171 q 298 -162 301 -171 q 294 -143 294 -154 q 298 -124 294 -132 q 308 -115 301 -115 l 625 -115 q 635 -124 632 -115 q 639 -143 639 -132 q 635 -162 639 -154 q 625 -171 632 -171 l 308 -171 z "},"S":{"ha":653,"x_min":40,"x_max":650,"o":"m 267 -17 q 54 31 154 -17 q 46 57 40 40 l 90 253 q 98 260 90 260 q 107 253 106 260 q 304 17 158 17 q 415 65 372 17 q 457 192 457 113 q 419 307 457 258 q 308 411 381 356 q 225 479 256 451 q 174 544 194 507 q 153 628 153 582 q 157 668 153 647 q 267 828 179 772 q 467 883 356 883 q 631 850 549 883 q 646 826 650 840 l 625 646 q 617 642 624 642 q 610 646 611 642 q 539 799 588 743 q 429 854 490 854 q 351 828 382 854 q 307 767 321 803 q 293 699 293 732 q 313 624 293 657 q 358 566 332 590 q 438 500 385 542 q 563 383 519 436 q 606 258 606 331 q 603 222 606 235 q 496 50 583 117 q 267 -17 408 -17 z "},"Ś":{"ha":653,"x_min":44,"x_max":674,"o":"m 267 -17 q 54 31 154 -17 q 46 57 40 40 l 90 253 q 98 260 90 260 q 107 253 106 260 q 304 17 158 17 q 415 65 372 17 q 457 192 457 113 q 419 307 457 258 q 308 411 381 356 q 225 479 256 451 q 174 544 194 507 q 153 628 153 582 q 157 668 153 647 q 267 828 179 772 q 467 883 356 883 q 631 850 549 883 q 646 826 650 840 l 625 646 q 617 642 624 642 q 610 646 611 642 q 539 799 588 743 q 429 854 490 854 q 351 828 382 854 q 307 767 321 803 q 293 699 293 732 q 313 624 293 657 q 358 566 332 590 q 438 500 385 542 q 563 383 519 436 q 606 258 606 331 q 603 222 606 235 q 496 50 583 117 q 267 -17 408 -17 m 357 942 q 350 948 351 942 q 353 957 349 954 q 469 1053 394 988 q 526 1101 524 1099 q 577 1097 535 1108 q 652 1069 619 1085 q 668 1050 685 1053 q 510 1003 582 1029 q 360 943 439 978 l 357 942 z "},"Š":{"ha":653,"x_min":44,"x_max":646,"o":"m 267 -17 q 54 31 154 -17 q 46 57 40 40 l 90 253 q 98 260 90 260 q 107 253 106 260 q 304 17 158 17 q 415 65 372 17 q 457 192 457 113 q 419 307 457 258 q 308 411 381 356 q 225 479 256 451 q 174 544 194 507 q 153 628 153 582 q 157 668 153 647 q 267 828 179 772 q 467 883 356 883 q 631 850 549 883 q 646 826 650 840 l 625 646 q 617 642 624 642 q 610 646 611 642 q 539 799 588 743 q 429 854 490 854 q 351 828 382 854 q 307 767 321 803 q 293 699 293 732 q 313 624 293 657 q 358 566 332 590 q 438 500 385 542 q 563 383 519 436 q 606 258 606 331 q 603 222 606 235 q 496 50 583 117 q 267 -17 408 -17 m 311 1099 l 311 1100 q 315 1106 311 1103 q 322 1108 319 1110 l 453 1054 l 606 1108 q 613 1105 608 1110 q 614 1099 618 1100 l 453 938 q 439 932 447 932 q 428 938 432 932 l 311 1099 z "},"Ş":{"ha":653,"x_min":40,"x_max":650,"o":"m 631 850 q 646 826 650 840 l 625 646 q 617 642 624 642 q 610 646 611 642 q 539 799 588 743 q 429 854 490 854 q 351 828 382 854 q 307 767 321 803 q 293 699 293 732 q 313 624 293 657 q 358 566 332 590 q 438 500 385 542 q 563 383 519 436 q 606 258 606 331 q 603 222 606 235 q 511 63 585 128 q 319 -14 438 -1 q 313 -50 313 -35 q 322 -87 313 -71 q 343 -120 331 -104 q 361 -144 356 -136 q 408 -243 408 -204 q 390 -302 408 -269 q 333 -358 371 -335 q 240 -382 296 -382 q 161 -364 193 -382 q 129 -317 129 -346 q 147 -275 129 -289 q 188 -261 164 -261 q 223 -274 213 -261 q 242 -312 233 -287 q 258 -345 250 -335 q 282 -356 265 -356 q 306 -347 297 -356 q 318 -322 315 -337 q 301 -267 319 -299 q 247 -192 282 -236 q 236 -158 236 -179 q 242 -127 236 -143 q 263 -83 249 -111 l 294 -15 q 267 -17 286 -17 q 54 31 154 -17 q 46 57 40 40 l 90 253 q 98 260 90 260 q 107 253 106 260 q 304 17 158 17 q 415 65 372 17 q 457 192 457 113 q 419 307 457 258 q 308 411 381 356 q 225 479 256 451 q 174 544 194 507 q 153 628 153 582 q 157 668 153 647 q 267 828 179 772 q 467 883 356 883 q 631 850 549 883 z "},"Ŝ":{"ha":653,"x_min":44,"x_max":646,"o":"m 267 -17 q 54 31 154 -17 q 46 57 40 40 l 90 253 q 98 260 90 260 q 107 253 106 260 q 304 17 158 17 q 415 65 372 17 q 457 192 457 113 q 419 307 457 258 q 308 411 381 356 q 225 479 256 451 q 174 544 194 507 q 153 628 153 582 q 157 668 153 647 q 267 828 179 772 q 467 883 356 883 q 631 850 549 883 q 646 826 650 840 l 625 646 q 617 642 624 642 q 610 646 611 642 q 539 799 588 743 q 429 854 490 854 q 351 828 382 854 q 307 767 321 803 q 293 699 293 732 q 313 624 293 657 q 358 566 332 590 q 438 500 385 542 q 563 383 519 436 q 606 258 606 331 q 603 222 606 235 q 496 50 583 117 q 267 -17 408 -17 m 297 917 q 290 920 293 917 q 290 926 288 924 l 451 1086 q 464 1093 456 1093 q 476 1086 472 1093 l 592 926 l 593 924 q 589 918 593 921 q 582 917 585 915 l 451 969 l 299 917 l 297 917 z "},"Ș":{"ha":653,"x_min":44,"x_max":646,"o":"m 267 -17 q 54 31 154 -17 q 46 57 40 40 l 90 253 q 98 260 90 260 q 107 253 106 260 q 304 17 158 17 q 415 65 372 17 q 457 192 457 113 q 419 307 457 258 q 308 411 381 356 q 225 479 256 451 q 174 544 194 507 q 153 628 153 582 q 157 668 153 647 q 267 828 179 772 q 467 883 356 883 q 631 850 549 883 q 646 826 650 840 l 625 646 q 617 642 624 642 q 610 646 611 642 q 539 799 588 743 q 429 854 490 854 q 351 828 382 854 q 307 767 321 803 q 293 699 293 732 q 313 624 293 657 q 358 566 332 590 q 438 500 385 542 q 563 383 519 436 q 606 258 606 331 q 603 222 606 235 q 496 50 583 117 q 267 -17 408 -17 m 272 -96 q 333 -119 313 -96 q 353 -182 353 -143 q 314 -295 353 -243 q 213 -382 275 -347 l 210 -383 q 201 -377 204 -383 q 203 -368 199 -371 q 285 -275 275 -325 q 288 -247 288 -264 q 261 -251 276 -251 q 206 -228 225 -251 q 188 -175 188 -206 q 210 -119 188 -142 q 272 -96 232 -96 z "},"Ṡ":{"ha":653,"x_min":44,"x_max":646,"o":"m 267 -17 q 54 31 154 -17 q 46 57 40 40 l 90 253 q 98 260 90 260 q 107 253 106 260 q 304 17 158 17 q 415 65 372 17 q 457 192 457 113 q 419 307 457 258 q 308 411 381 356 q 225 479 256 451 q 174 544 194 507 q 153 628 153 582 q 157 668 153 647 q 267 828 179 772 q 467 883 356 883 q 631 850 549 883 q 646 826 650 840 l 625 646 q 617 642 624 642 q 610 646 611 642 q 539 799 588 743 q 429 854 490 854 q 351 828 382 854 q 307 767 321 803 q 293 699 293 732 q 313 624 293 657 q 358 566 332 590 q 438 500 385 542 q 563 383 519 436 q 606 258 606 331 q 603 222 606 235 q 496 50 583 117 q 267 -17 408 -17 m 464 990 q 406 1012 428 990 q 385 1071 385 1033 q 406 1126 385 1106 q 464 1146 428 1146 q 520 1126 500 1146 q 540 1071 540 1106 q 520 1012 540 1033 q 464 990 500 990 z "},"Ṣ":{"ha":653,"x_min":44,"x_max":646,"o":"m 267 -17 q 54 31 154 -17 q 46 57 40 40 l 90 253 q 98 260 90 260 q 107 253 106 260 q 304 17 158 17 q 415 65 372 17 q 457 192 457 113 q 419 307 457 258 q 308 411 381 356 q 225 479 256 451 q 174 544 194 507 q 153 628 153 582 q 157 668 153 647 q 267 828 179 772 q 467 883 356 883 q 631 850 549 883 q 646 826 650 840 l 625 646 q 617 642 624 642 q 610 646 611 642 q 539 799 588 743 q 429 854 490 854 q 351 828 382 854 q 307 767 321 803 q 293 699 293 732 q 313 624 293 657 q 358 566 332 590 q 438 500 385 542 q 563 383 519 436 q 606 258 606 331 q 603 222 606 235 q 496 50 583 117 q 267 -17 408 -17 m 269 -282 q 211 -261 232 -282 q 190 -201 190 -240 q 212 -147 190 -168 q 269 -126 233 -126 q 326 -147 306 -126 q 346 -201 346 -168 q 326 -261 346 -240 q 269 -282 306 -282 z "},"ẞ":{"ha":910,"x_min":-26,"x_max":900,"o":"m 563 -17 q 406 31 467 -17 q 400 57 397 36 l 419 221 q 426 228 419 228 q 435 222 432 229 q 487 124 453 169 q 560 53 521 79 q 633 26 600 26 q 710 78 683 26 q 736 189 736 131 q 563 460 736 328 q 556 469 556 467 q 561 481 556 472 l 744 718 q 595 790 676 763 q 461 817 514 817 q 394 799 419 817 q 352 740 368 782 q 322 617 336 697 l 232 113 q 226 67 226 74 q 242 26 226 36 q 299 17 257 17 q 304 8 304 17 q 299 0 304 0 l 143 1 l -21 0 q -26 8 -26 0 q -21 17 -26 17 q 42 24 21 17 q 74 51 63 31 q 93 113 85 71 l 167 531 q 243 706 185 625 q 391 835 301 788 q 586 883 481 883 q 691 872 640 883 q 811 839 742 861 q 828 836 819 836 q 885 874 856 836 l 890 876 q 897 874 894 876 q 899 868 900 871 l 663 567 q 818 419 768 492 q 868 271 868 346 q 829 131 868 197 q 720 24 790 64 q 563 -17 650 -17 z "},"Ə":{"ha":821,"x_min":53,"x_max":810,"o":"m 471 883 q 732 794 654 883 q 810 564 810 704 q 799 450 810 510 q 699 200 774 306 q 521 39 625 94 q 303 -17 417 -17 q 160 14 215 -17 q 78 92 104 44 q 53 190 53 139 q 56 226 53 204 q 61 240 57 236 q 74 243 65 243 l 585 246 q 621 400 607 317 q 638 581 638 499 q 594 782 638 710 q 463 854 550 854 q 315 802 392 854 q 161 643 238 750 q 154 640 158 640 q 147 643 150 640 q 144 649 143 646 l 231 903 q 236 907 233 907 q 244 904 240 907 q 247 899 249 901 q 243 875 243 885 q 261 857 243 857 q 275 860 264 857 q 386 878 343 872 q 471 883 429 883 m 357 18 q 574 217 500 18 l 208 213 q 242 72 203 125 q 357 18 281 18 z "},"T":{"ha":768,"x_min":100,"x_max":844,"o":"m 157 0 q 154 8 154 0 q 157 17 154 17 q 234 24 208 17 q 272 51 260 31 q 293 113 285 71 l 406 756 q 411 797 411 789 q 400 828 411 819 q 363 836 389 836 l 346 836 q 256 806 303 836 q 171 727 208 776 q 117 619 133 678 q 108 617 115 615 q 101 622 100 618 q 135 756 113 663 q 167 899 157 849 q 176 902 168 903 q 183 897 185 901 q 238 868 179 868 q 492 864 340 864 q 649 867 563 864 l 736 868 q 799 875 778 868 q 828 903 819 882 q 838 906 831 907 q 843 900 844 906 q 809 756 831 856 q 783 622 788 657 q 774 617 782 617 q 767 624 765 618 q 771 668 771 647 q 731 788 771 740 q 626 836 690 836 l 611 836 q 563 820 575 836 q 543 753 551 804 l 431 113 q 425 69 425 79 q 448 27 425 38 q 533 17 471 17 q 536 8 536 17 q 533 0 536 0 q 457 1 485 0 l 344 3 l 236 1 q 157 0 208 0 z "},"Ŧ":{"ha":768,"x_min":100,"x_max":844,"o":"m 828 903 q 838 906 831 907 q 843 900 844 906 q 809 756 831 856 q 783 622 788 657 q 774 617 782 617 q 767 624 765 618 q 771 668 771 647 q 731 788 771 740 q 626 836 690 836 l 611 836 q 563 820 575 836 q 543 753 551 804 l 493 468 l 613 468 q 617 462 615 468 q 619 449 619 456 q 617 435 619 442 q 613 429 615 429 l 486 429 l 431 113 q 425 69 425 79 q 448 27 425 38 q 533 17 471 17 q 536 8 536 17 q 533 0 536 0 q 457 1 485 0 l 344 3 l 236 1 q 157 0 208 0 q 154 8 154 0 q 157 17 154 17 q 234 24 208 17 q 272 51 260 31 q 293 113 285 71 l 349 429 l 222 429 q 217 449 217 429 q 222 468 217 468 l 356 468 l 406 756 q 411 797 411 789 q 400 828 411 819 q 363 836 389 836 l 346 836 q 256 806 303 836 q 171 727 208 776 q 117 619 133 678 q 108 617 115 615 q 101 622 100 618 q 135 756 113 663 q 167 899 157 849 q 176 902 168 903 q 183 897 185 901 q 238 868 179 868 q 492 864 340 864 q 649 867 563 864 l 736 868 q 799 875 778 868 q 828 903 819 882 z "},"Ť":{"ha":768,"x_min":101,"x_max":843,"o":"m 157 0 q 154 8 154 0 q 157 17 154 17 q 234 24 208 17 q 272 51 260 31 q 293 113 285 71 l 406 756 q 411 797 411 789 q 400 828 411 819 q 363 836 389 836 l 346 836 q 256 806 303 836 q 171 727 208 776 q 117 619 133 678 q 108 617 115 615 q 101 622 100 618 q 135 756 113 663 q 167 899 157 849 q 176 902 168 903 q 183 897 185 901 q 238 868 179 868 q 492 864 340 864 q 649 867 563 864 l 736 868 q 799 875 778 868 q 828 903 819 882 q 838 906 831 907 q 843 900 844 906 q 809 756 831 856 q 783 622 788 657 q 774 617 782 617 q 767 624 765 618 q 771 668 771 647 q 731 788 771 740 q 626 836 690 836 l 611 836 q 563 820 575 836 q 543 753 551 804 l 431 113 q 425 69 425 79 q 448 27 425 38 q 533 17 471 17 q 536 8 536 17 q 533 0 536 0 q 457 1 485 0 l 344 3 l 236 1 q 157 0 208 0 m 372 1099 l 372 1100 q 376 1106 372 1103 q 383 1108 381 1110 l 514 1054 l 667 1108 q 674 1105 669 1110 q 675 1099 679 1100 l 514 938 q 500 932 508 932 q 489 938 493 932 l 372 1099 z "},"Ţ":{"ha":768,"x_min":100,"x_max":844,"o":"m 828 903 q 838 906 831 907 q 843 900 844 906 q 809 756 831 856 q 783 622 788 657 q 774 617 782 617 q 767 624 765 618 q 771 668 771 647 q 731 788 771 740 q 626 836 690 836 l 611 836 q 563 820 575 836 q 543 753 551 804 l 431 113 q 425 69 425 79 q 448 27 425 38 q 533 17 471 17 q 536 8 536 17 q 533 0 536 0 q 463 1 488 0 l 358 3 q 346 -60 346 -37 q 354 -98 346 -83 q 388 -144 363 -112 q 435 -243 435 -204 q 416 -302 435 -269 q 360 -358 397 -335 q 267 -382 322 -382 q 188 -364 219 -382 q 156 -317 156 -346 q 173 -275 156 -289 q 214 -261 190 -261 q 249 -274 239 -261 q 268 -312 260 -287 q 284 -345 276 -335 q 308 -356 292 -356 q 333 -347 324 -356 q 344 -322 342 -337 q 327 -267 346 -299 q 274 -192 308 -236 q 263 -158 263 -179 q 269 -126 263 -143 q 289 -83 275 -110 l 332 3 l 232 1 q 157 0 204 0 q 154 8 154 0 q 157 17 154 17 q 234 24 208 17 q 272 51 260 31 q 293 113 285 71 l 406 756 q 411 797 411 789 q 400 828 411 819 q 363 836 389 836 l 346 836 q 256 806 303 836 q 171 727 208 776 q 117 619 133 678 q 108 617 115 615 q 101 622 100 618 q 135 756 113 663 q 167 899 157 849 q 176 902 168 903 q 183 897 185 901 q 238 868 179 868 q 492 864 340 864 q 649 867 563 864 l 736 868 q 799 875 778 868 q 828 903 819 882 z "},"Ț":{"ha":768,"x_min":101,"x_max":843,"o":"m 157 0 q 154 8 154 0 q 157 17 154 17 q 234 24 208 17 q 272 51 260 31 q 293 113 285 71 l 406 756 q 411 797 411 789 q 400 828 411 819 q 363 836 389 836 l 346 836 q 256 806 303 836 q 171 727 208 776 q 117 619 133 678 q 108 617 115 615 q 101 622 100 618 q 135 756 113 663 q 167 899 157 849 q 176 902 168 903 q 183 897 185 901 q 238 868 179 868 q 492 864 340 864 q 649 867 563 864 l 736 868 q 799 875 778 868 q 828 903 819 882 q 838 906 831 907 q 843 900 844 906 q 809 756 831 856 q 783 622 788 657 q 774 617 782 617 q 767 624 765 618 q 771 668 771 647 q 731 788 771 740 q 626 836 690 836 l 611 836 q 563 820 575 836 q 543 753 551 804 l 431 113 q 425 69 425 79 q 448 27 425 38 q 533 17 471 17 q 536 8 536 17 q 533 0 536 0 q 457 1 485 0 l 344 3 l 236 1 q 157 0 208 0 m 314 -96 q 374 -119 354 -96 q 394 -182 394 -143 q 356 -295 394 -243 q 254 -382 317 -347 l 251 -383 q 243 -377 246 -383 q 244 -368 240 -371 q 326 -275 317 -325 q 329 -247 329 -264 q 303 -251 318 -251 q 248 -228 267 -251 q 229 -175 229 -206 q 251 -119 229 -142 q 314 -96 274 -96 z "},"Ṭ":{"ha":768,"x_min":101,"x_max":843,"o":"m 157 0 q 154 8 154 0 q 157 17 154 17 q 234 24 208 17 q 272 51 260 31 q 293 113 285 71 l 406 756 q 411 797 411 789 q 400 828 411 819 q 363 836 389 836 l 346 836 q 256 806 303 836 q 171 727 208 776 q 117 619 133 678 q 108 617 115 615 q 101 622 100 618 q 135 756 113 663 q 167 899 157 849 q 176 902 168 903 q 183 897 185 901 q 238 868 179 868 q 492 864 340 864 q 649 867 563 864 l 736 868 q 799 875 778 868 q 828 903 819 882 q 838 906 831 907 q 843 900 844 906 q 809 756 831 856 q 783 622 788 657 q 774 617 782 617 q 767 624 765 618 q 771 668 771 647 q 731 788 771 740 q 626 836 690 836 l 611 836 q 563 820 575 836 q 543 753 551 804 l 431 113 q 425 69 425 79 q 448 27 425 38 q 533 17 471 17 q 536 8 536 17 q 533 0 536 0 q 457 1 485 0 l 344 3 l 236 1 q 157 0 208 0 m 311 -282 q 253 -261 274 -282 q 232 -201 232 -240 q 253 -147 232 -168 q 311 -126 275 -126 q 367 -147 347 -126 q 388 -201 388 -168 q 367 -261 388 -240 q 311 -282 347 -282 z "},"Ṯ":{"ha":768,"x_min":101,"x_max":843,"o":"m 157 0 q 154 8 154 0 q 157 17 154 17 q 234 24 208 17 q 272 51 260 31 q 293 113 285 71 l 406 756 q 411 797 411 789 q 400 828 411 819 q 363 836 389 836 l 346 836 q 256 806 303 836 q 171 727 208 776 q 117 619 133 678 q 108 617 115 615 q 101 622 100 618 q 135 756 113 663 q 167 899 157 849 q 176 902 168 903 q 183 897 185 901 q 238 868 179 868 q 492 864 340 864 q 649 867 563 864 l 736 868 q 799 875 778 868 q 828 903 819 882 q 838 906 831 907 q 843 900 844 906 q 809 756 831 856 q 783 622 788 657 q 774 617 782 617 q 767 624 765 618 q 771 668 771 647 q 731 788 771 740 q 626 836 690 836 l 611 836 q 563 820 575 836 q 543 753 551 804 l 431 113 q 425 69 425 79 q 448 27 425 38 q 533 17 471 17 q 536 8 536 17 q 533 0 536 0 q 457 1 485 0 l 344 3 l 236 1 q 157 0 208 0 m 175 -171 q 165 -162 168 -171 q 161 -143 161 -154 q 165 -124 161 -132 q 175 -115 168 -115 l 492 -115 q 502 -124 499 -115 q 506 -143 506 -132 q 502 -162 506 -154 q 492 -171 499 -171 l 175 -171 z "},"U":{"ha":861,"x_min":111,"x_max":956,"o":"m 776 696 q 781 743 781 721 q 757 823 781 794 q 689 851 733 851 q 685 860 685 851 q 689 868 686 868 l 750 867 q 825 864 797 864 q 897 867 853 864 l 950 868 q 955 860 956 868 q 950 851 954 851 q 865 806 900 851 q 817 686 829 761 l 743 267 q 621 58 719 135 q 385 -19 522 -19 q 185 44 258 -19 q 111 219 111 108 q 117 279 111 251 l 203 760 q 208 806 208 796 q 192 842 208 833 q 132 851 175 851 q 128 860 128 851 q 131 868 128 868 l 199 867 q 288 864 254 864 q 388 867 326 864 l 449 868 q 451 860 451 868 q 449 851 451 851 q 371 830 392 851 q 339 747 350 808 l 263 318 q 254 225 254 267 q 301 79 254 126 q 435 32 347 32 q 611 97 540 32 q 701 275 682 161 l 776 696 z "},"Ú":{"ha":861,"x_min":111,"x_max":954,"o":"m 776 696 q 781 743 781 721 q 757 823 781 794 q 689 851 733 851 q 685 860 685 851 q 689 868 686 868 l 750 867 q 825 864 797 864 q 897 867 853 864 l 950 868 q 955 860 956 868 q 950 851 954 851 q 865 806 900 851 q 817 686 829 761 l 743 267 q 621 58 719 135 q 385 -19 522 -19 q 185 44 258 -19 q 111 219 111 108 q 117 279 111 251 l 203 760 q 208 806 208 796 q 192 842 208 833 q 132 851 175 851 q 128 860 128 851 q 131 868 128 868 l 199 867 q 288 864 254 864 q 388 867 326 864 l 449 868 q 451 860 451 868 q 449 851 451 851 q 371 830 392 851 q 339 747 350 808 l 263 318 q 254 225 254 267 q 301 79 254 126 q 435 32 347 32 q 611 97 540 32 q 701 275 682 161 l 776 696 m 438 942 q 430 948 432 942 q 432 957 428 954 q 553 1054 475 988 q 607 1101 571 1071 q 656 1095 614 1107 q 731 1068 699 1083 q 747 1050 764 1053 q 439 942 583 1008 l 438 942 z "},"Ŭ":{"ha":861,"x_min":111,"x_max":954,"o":"m 776 696 q 781 743 781 721 q 757 823 781 794 q 689 851 733 851 q 685 860 685 851 q 689 868 686 868 l 750 867 q 825 864 797 864 q 897 867 853 864 l 950 868 q 955 860 956 868 q 950 851 954 851 q 865 806 900 851 q 817 686 829 761 l 743 267 q 621 58 719 135 q 385 -19 522 -19 q 185 44 258 -19 q 111 219 111 108 q 117 279 111 251 l 203 760 q 208 806 208 796 q 192 842 208 833 q 132 851 175 851 q 128 860 128 851 q 131 868 128 868 l 199 867 q 288 864 254 864 q 388 867 326 864 l 449 868 q 451 860 451 868 q 449 851 451 851 q 371 830 392 851 q 339 747 350 808 l 263 318 q 254 225 254 267 q 301 79 254 126 q 435 32 347 32 q 611 97 540 32 q 701 275 682 161 l 776 696 m 579 924 q 482 958 521 924 q 443 1058 443 993 q 476 1074 443 1067 q 538 1081 510 1081 q 558 1076 558 1081 q 588 1023 563 1042 q 646 1004 613 1004 q 698 1021 672 1004 q 740 1071 724 1038 q 749 1075 744 1075 q 760 1072 754 1075 q 764 1067 765 1069 q 682 961 733 999 q 579 924 631 924 z "},"Ǔ":{"ha":861,"x_min":111,"x_max":954,"o":"m 776 696 q 781 743 781 721 q 757 823 781 794 q 689 851 733 851 q 685 860 685 851 q 689 868 686 868 l 750 867 q 825 864 797 864 q 897 867 853 864 l 950 868 q 955 860 956 868 q 950 851 954 851 q 865 806 900 851 q 817 686 829 761 l 743 267 q 621 58 719 135 q 385 -19 522 -19 q 185 44 258 -19 q 111 219 111 108 q 117 279 111 251 l 203 760 q 208 806 208 796 q 192 842 208 833 q 132 851 175 851 q 128 860 128 851 q 131 868 128 868 l 199 867 q 288 864 254 864 q 388 867 326 864 l 449 868 q 451 860 451 868 q 449 851 451 851 q 371 830 392 851 q 339 747 350 808 l 263 318 q 254 225 254 267 q 301 79 254 126 q 435 32 347 32 q 611 97 540 32 q 701 275 682 161 l 776 696 m 456 1099 l 456 1100 q 460 1106 456 1103 q 467 1108 464 1110 l 597 1054 l 750 1108 q 758 1105 753 1110 q 758 1099 763 1100 l 597 938 q 583 932 592 932 q 572 938 576 932 l 456 1099 z "},"Û":{"ha":861,"x_min":111,"x_max":954,"o":"m 776 696 q 781 743 781 721 q 757 823 781 794 q 689 851 733 851 q 685 860 685 851 q 689 868 686 868 l 750 867 q 825 864 797 864 q 897 867 853 864 l 950 868 q 955 860 956 868 q 950 851 954 851 q 865 806 900 851 q 817 686 829 761 l 743 267 q 621 58 719 135 q 385 -19 522 -19 q 185 44 258 -19 q 111 219 111 108 q 117 279 111 251 l 203 760 q 208 806 208 796 q 192 842 208 833 q 132 851 175 851 q 128 860 128 851 q 131 868 128 868 l 199 867 q 288 864 254 864 q 388 867 326 864 l 449 868 q 451 860 451 868 q 449 851 451 851 q 371 830 392 851 q 339 747 350 808 l 263 318 q 254 225 254 267 q 301 79 254 126 q 435 32 347 32 q 611 97 540 32 q 701 275 682 161 l 776 696 m 442 917 q 435 920 438 917 q 435 926 432 924 l 596 1086 q 608 1093 600 1093 q 621 1086 617 1093 l 736 926 l 738 924 q 733 918 738 921 q 726 917 729 915 l 596 969 l 443 917 l 442 917 z "},"Ü":{"ha":861,"x_min":111,"x_max":954,"o":"m 776 696 q 781 743 781 721 q 757 823 781 794 q 689 851 733 851 q 685 860 685 851 q 689 868 686 868 l 750 867 q 825 864 797 864 q 897 867 853 864 l 950 868 q 955 860 956 868 q 950 851 954 851 q 865 806 900 851 q 817 686 829 761 l 743 267 q 621 58 719 135 q 385 -19 522 -19 q 185 44 258 -19 q 111 219 111 108 q 117 279 111 251 l 203 760 q 208 806 208 796 q 192 842 208 833 q 132 851 175 851 q 128 860 128 851 q 131 868 128 868 l 199 867 q 288 864 254 864 q 388 867 326 864 l 449 868 q 451 860 451 868 q 449 851 451 851 q 371 830 392 851 q 339 747 350 808 l 263 318 q 254 225 254 267 q 301 79 254 126 q 435 32 347 32 q 611 97 540 32 q 701 275 682 161 l 776 696 m 488 976 q 431 997 451 976 q 411 1053 411 1017 q 432 1106 411 1086 q 488 1125 453 1125 q 541 1106 522 1125 q 560 1053 560 1086 q 541 997 560 1017 q 488 976 522 976 m 729 976 q 674 997 693 976 q 654 1053 654 1017 q 674 1105 654 1086 q 729 1124 694 1124 q 783 1105 764 1124 q 801 1053 801 1086 q 783 997 801 1017 q 729 976 764 976 z "},"Ǘ":{"ha":861,"x_min":111,"x_max":954,"o":"m 776 696 q 781 743 781 721 q 757 823 781 794 q 689 851 733 851 q 685 860 685 851 q 689 868 686 868 l 750 867 q 825 864 797 864 q 897 867 853 864 l 950 868 q 955 860 956 868 q 950 851 954 851 q 865 806 900 851 q 817 686 829 761 l 743 267 q 621 58 719 135 q 385 -19 522 -19 q 185 44 258 -19 q 111 219 111 108 q 117 279 111 251 l 203 760 q 208 806 208 796 q 192 842 208 833 q 132 851 175 851 q 128 860 128 851 q 131 868 128 868 l 199 867 q 288 864 254 864 q 388 867 326 864 l 449 868 q 451 860 451 868 q 449 851 451 851 q 371 830 392 851 q 339 747 350 808 l 263 318 q 254 225 254 267 q 301 79 254 126 q 435 32 347 32 q 611 97 540 32 q 701 275 682 161 l 776 696 m 496 944 q 440 965 460 944 q 421 1021 421 985 q 441 1073 421 1054 q 496 1092 461 1092 q 548 1073 529 1092 q 567 1021 567 1054 q 548 965 567 985 q 496 944 529 944 m 717 944 q 661 965 681 944 q 642 1021 642 985 q 662 1073 642 1054 q 717 1092 682 1092 q 769 1073 750 1092 q 788 1021 788 1054 q 769 965 788 985 q 717 944 750 944 m 485 1121 q 478 1127 479 1121 q 481 1136 476 1133 q 597 1232 522 1167 q 654 1281 651 1278 q 705 1276 663 1288 q 780 1248 747 1264 q 796 1229 813 1232 q 638 1183 710 1208 q 488 1122 567 1157 l 485 1121 z "},"Ǚ":{"ha":861,"x_min":111,"x_max":954,"o":"m 776 696 q 781 743 781 721 q 757 823 781 794 q 689 851 733 851 q 685 860 685 851 q 689 868 686 868 l 750 867 q 825 864 797 864 q 897 867 853 864 l 950 868 q 955 860 956 868 q 950 851 954 851 q 865 806 900 851 q 817 686 829 761 l 743 267 q 621 58 719 135 q 385 -19 522 -19 q 185 44 258 -19 q 111 219 111 108 q 117 279 111 251 l 203 760 q 208 806 208 796 q 192 842 208 833 q 132 851 175 851 q 128 860 128 851 q 131 868 128 868 l 199 867 q 288 864 254 864 q 388 867 326 864 l 449 868 q 451 860 451 868 q 449 851 451 851 q 371 830 392 851 q 339 747 350 808 l 263 318 q 254 225 254 267 q 301 79 254 126 q 435 32 347 32 q 611 97 540 32 q 701 275 682 161 l 776 696 m 496 944 q 440 965 460 944 q 421 1021 421 985 q 441 1073 421 1054 q 496 1092 461 1092 q 548 1073 529 1092 q 567 1021 567 1054 q 548 965 567 985 q 496 944 529 944 m 717 944 q 661 965 681 944 q 642 1021 642 985 q 662 1073 642 1054 q 717 1092 682 1092 q 769 1073 750 1092 q 788 1021 788 1054 q 769 965 788 985 q 717 944 750 944 m 483 1111 q 476 1115 481 1110 q 475 1121 471 1119 l 636 1282 q 649 1289 643 1289 q 661 1282 657 1289 l 776 1121 q 778 1118 778 1121 q 774 1113 778 1115 q 767 1111 769 1110 l 636 1165 l 483 1111 z "},"Ǜ":{"ha":861,"x_min":111,"x_max":954,"o":"m 776 696 q 781 743 781 721 q 757 823 781 794 q 689 851 733 851 q 685 860 685 851 q 689 868 686 868 l 750 867 q 825 864 797 864 q 897 867 853 864 l 950 868 q 955 860 956 868 q 950 851 954 851 q 865 806 900 851 q 817 686 829 761 l 743 267 q 621 58 719 135 q 385 -19 522 -19 q 185 44 258 -19 q 111 219 111 108 q 117 279 111 251 l 203 760 q 208 806 208 796 q 192 842 208 833 q 132 851 175 851 q 128 860 128 851 q 131 868 128 868 l 199 867 q 288 864 254 864 q 388 867 326 864 l 449 868 q 451 860 451 868 q 449 851 451 851 q 371 830 392 851 q 339 747 350 808 l 263 318 q 254 225 254 267 q 301 79 254 126 q 435 32 347 32 q 611 97 540 32 q 701 275 682 161 l 776 696 m 496 944 q 440 965 460 944 q 421 1021 421 985 q 441 1073 421 1054 q 496 1092 461 1092 q 548 1073 529 1092 q 567 1021 567 1054 q 548 965 567 985 q 496 944 529 944 m 717 944 q 661 965 681 944 q 642 1021 642 985 q 662 1073 642 1054 q 717 1092 682 1092 q 769 1073 750 1092 q 788 1021 788 1054 q 769 965 788 985 q 717 944 750 944 m 750 1115 q 626 1160 679 1143 q 483 1204 572 1178 q 493 1222 467 1208 q 562 1246 519 1235 q 625 1257 604 1257 q 638 1254 635 1257 q 713 1178 672 1215 l 764 1128 q 765 1124 765 1126 q 760 1117 765 1119 q 750 1115 756 1114 z "},"Ǖ":{"ha":861,"x_min":111,"x_max":954,"o":"m 776 696 q 781 743 781 721 q 757 823 781 794 q 689 851 733 851 q 685 860 685 851 q 689 868 686 868 l 750 867 q 825 864 797 864 q 897 867 853 864 l 950 868 q 955 860 956 868 q 950 851 954 851 q 865 806 900 851 q 817 686 829 761 l 743 267 q 621 58 719 135 q 385 -19 522 -19 q 185 44 258 -19 q 111 219 111 108 q 117 279 111 251 l 203 760 q 208 806 208 796 q 192 842 208 833 q 132 851 175 851 q 128 860 128 851 q 131 868 128 868 l 199 867 q 288 864 254 864 q 388 867 326 864 l 449 868 q 451 860 451 868 q 449 851 451 851 q 371 830 392 851 q 339 747 350 808 l 263 318 q 254 225 254 267 q 301 79 254 126 q 435 32 347 32 q 611 97 540 32 q 701 275 682 161 l 776 696 m 482 944 q 426 965 446 944 q 407 1021 407 985 q 427 1073 407 1054 q 482 1092 447 1092 q 534 1073 515 1092 q 553 1021 553 1054 q 534 965 553 985 q 482 944 515 944 m 703 944 q 647 965 667 944 q 628 1021 628 985 q 648 1073 628 1054 q 703 1092 668 1092 q 755 1073 736 1092 q 774 1021 774 1054 q 755 965 774 985 q 703 944 736 944 m 456 1151 q 446 1160 450 1151 q 442 1179 442 1168 q 446 1199 442 1190 q 456 1207 450 1207 l 772 1207 q 783 1199 779 1207 q 788 1179 788 1190 q 783 1160 788 1168 q 772 1151 779 1151 l 456 1151 z "},"Ụ":{"ha":861,"x_min":111,"x_max":954,"o":"m 776 696 q 781 743 781 721 q 757 823 781 794 q 689 851 733 851 q 685 860 685 851 q 689 868 686 868 l 750 867 q 825 864 797 864 q 897 867 853 864 l 950 868 q 955 860 956 868 q 950 851 954 851 q 865 806 900 851 q 817 686 829 761 l 743 267 q 621 58 719 135 q 385 -19 522 -19 q 185 44 258 -19 q 111 219 111 108 q 117 279 111 251 l 203 760 q 208 806 208 796 q 192 842 208 833 q 132 851 175 851 q 128 860 128 851 q 131 868 128 868 l 199 867 q 288 864 254 864 q 388 867 326 864 l 449 868 q 451 860 451 868 q 449 851 451 851 q 371 830 392 851 q 339 747 350 808 l 263 318 q 254 225 254 267 q 301 79 254 126 q 435 32 347 32 q 611 97 540 32 q 701 275 682 161 l 776 696 m 353 -282 q 294 -261 315 -282 q 274 -201 274 -240 q 295 -147 274 -168 q 353 -126 317 -126 q 409 -147 389 -126 q 429 -201 429 -168 q 409 -261 429 -240 q 353 -282 389 -282 z "},"Ù":{"ha":861,"x_min":111,"x_max":954,"o":"m 776 696 q 781 743 781 721 q 757 823 781 794 q 689 851 733 851 q 685 860 685 851 q 689 868 686 868 l 750 867 q 825 864 797 864 q 897 867 853 864 l 950 868 q 955 860 956 868 q 950 851 954 851 q 865 806 900 851 q 817 686 829 761 l 743 267 q 621 58 719 135 q 385 -19 522 -19 q 185 44 258 -19 q 111 219 111 108 q 117 279 111 251 l 203 760 q 208 806 208 796 q 192 842 208 833 q 132 851 175 851 q 128 860 128 851 q 131 868 128 868 l 199 867 q 288 864 254 864 q 388 867 326 864 l 449 868 q 451 860 451 868 q 449 851 451 851 q 371 830 392 851 q 339 747 350 808 l 263 318 q 254 225 254 267 q 301 79 254 126 q 435 32 347 32 q 611 97 540 32 q 701 275 682 161 l 776 696 m 713 943 q 404 1050 557 1013 q 420 1069 388 1053 q 495 1097 453 1085 q 544 1101 538 1108 l 610 1046 q 718 957 671 993 q 722 951 722 956 q 719 944 722 947 q 713 943 717 942 z "},"Ủ":{"ha":861,"x_min":111,"x_max":954,"o":"m 776 696 q 781 743 781 721 q 757 823 781 794 q 689 851 733 851 q 685 860 685 851 q 689 868 686 868 l 750 867 q 825 864 797 864 q 897 867 853 864 l 950 868 q 955 860 956 868 q 950 851 954 851 q 865 806 900 851 q 817 686 829 761 l 743 267 q 621 58 719 135 q 385 -19 522 -19 q 185 44 258 -19 q 111 219 111 108 q 117 279 111 251 l 203 760 q 208 806 208 796 q 192 842 208 833 q 132 851 175 851 q 128 860 128 851 q 131 868 128 868 l 199 867 q 288 864 254 864 q 388 867 326 864 l 449 868 q 451 860 451 868 q 449 851 451 851 q 371 830 392 851 q 339 747 350 808 l 263 318 q 254 225 254 267 q 301 79 254 126 q 435 32 347 32 q 611 97 540 32 q 701 275 682 161 l 776 696 m 586 907 q 578 903 586 904 q 569 907 571 903 q 567 938 567 929 q 572 977 567 960 q 586 1022 576 994 q 601 1063 596 1046 q 606 1099 606 1079 q 567 1147 606 1147 q 517 1133 547 1147 l 514 1133 q 506 1138 510 1133 q 507 1146 503 1142 q 621 1185 557 1185 q 692 1165 665 1185 q 718 1111 718 1146 q 700 1058 718 1082 q 646 997 682 1033 q 601 947 615 967 q 586 907 586 928 z "},"Ư":{"ha":863,"x_min":111,"x_max":1071,"o":"m 743 267 q 621 58 719 135 q 385 -19 522 -19 q 185 44 258 -19 q 111 219 111 108 q 117 279 111 251 l 203 760 q 208 806 208 796 q 192 842 208 833 q 132 851 175 851 q 128 860 128 851 q 131 868 128 868 l 199 867 q 288 864 254 864 q 388 867 326 864 l 449 868 q 451 860 451 868 q 449 851 451 851 q 371 830 392 851 q 339 747 350 808 l 263 318 q 254 228 254 268 q 301 80 254 128 q 432 32 347 32 q 611 97 540 32 q 701 275 682 161 l 776 696 q 781 743 781 721 q 757 823 781 794 q 689 851 733 851 q 685 860 685 851 q 689 868 686 868 l 750 867 q 825 864 797 864 q 922 878 885 864 q 961 924 960 893 q 954 957 963 935 q 946 992 946 976 q 947 1006 946 1001 q 973 1049 953 1033 q 1017 1064 993 1064 q 1057 1046 1043 1064 q 1071 999 1071 1028 q 1069 979 1071 986 q 1039 917 1063 943 q 990 878 1015 892 q 919 846 964 865 q 856 797 879 828 q 817 686 832 765 l 743 267 z "},"Ứ":{"ha":863,"x_min":111,"x_max":1071,"o":"m 743 267 q 621 58 719 135 q 385 -19 522 -19 q 185 44 258 -19 q 111 219 111 108 q 117 279 111 251 l 203 760 q 208 806 208 796 q 192 842 208 833 q 132 851 175 851 q 128 860 128 851 q 131 868 128 868 l 199 867 q 288 864 254 864 q 388 867 326 864 l 449 868 q 451 860 451 868 q 449 851 451 851 q 371 830 392 851 q 339 747 350 808 l 263 318 q 254 228 254 268 q 301 80 254 128 q 432 32 347 32 q 611 97 540 32 q 701 275 682 161 l 776 696 q 781 743 781 721 q 757 823 781 794 q 689 851 733 851 q 685 860 685 851 q 689 868 686 868 l 750 867 q 825 864 797 864 q 922 878 885 864 q 961 924 960 893 q 954 957 963 935 q 946 992 946 976 q 947 1006 946 1001 q 973 1049 953 1033 q 1017 1064 993 1064 q 1057 1046 1043 1064 q 1071 999 1071 1028 q 1069 979 1071 986 q 1039 917 1063 943 q 990 878 1015 892 q 919 846 964 865 q 856 797 879 828 q 817 686 832 765 l 743 267 m 435 942 q 427 948 429 942 q 429 957 425 954 q 550 1054 472 988 q 604 1101 568 1071 q 653 1095 611 1107 q 728 1068 696 1083 q 744 1050 761 1053 q 436 942 581 1008 l 435 942 z "},"Ự":{"ha":863,"x_min":111,"x_max":1071,"o":"m 743 267 q 621 58 719 135 q 385 -19 522 -19 q 185 44 258 -19 q 111 219 111 108 q 117 279 111 251 l 203 760 q 208 806 208 796 q 192 842 208 833 q 132 851 175 851 q 128 860 128 851 q 131 868 128 868 l 199 867 q 288 864 254 864 q 388 867 326 864 l 449 868 q 451 860 451 868 q 449 851 451 851 q 371 830 392 851 q 339 747 350 808 l 263 318 q 254 228 254 268 q 301 80 254 128 q 432 32 347 32 q 611 97 540 32 q 701 275 682 161 l 776 696 q 781 743 781 721 q 757 823 781 794 q 689 851 733 851 q 685 860 685 851 q 689 868 686 868 l 750 867 q 825 864 797 864 q 922 878 885 864 q 961 924 960 893 q 954 957 963 935 q 946 992 946 976 q 947 1006 946 1001 q 973 1049 953 1033 q 1017 1064 993 1064 q 1057 1046 1043 1064 q 1071 999 1071 1028 q 1069 979 1071 986 q 1039 917 1063 943 q 990 878 1015 892 q 919 846 964 865 q 856 797 879 828 q 817 686 832 765 l 743 267 m 328 -282 q 269 -261 290 -282 q 249 -201 249 -240 q 270 -147 249 -168 q 328 -126 292 -126 q 384 -147 364 -126 q 404 -201 404 -168 q 384 -261 404 -240 q 328 -282 364 -282 z "},"Ừ":{"ha":863,"x_min":111,"x_max":1071,"o":"m 743 267 q 621 58 719 135 q 385 -19 522 -19 q 185 44 258 -19 q 111 219 111 108 q 117 279 111 251 l 203 760 q 208 806 208 796 q 192 842 208 833 q 132 851 175 851 q 128 860 128 851 q 131 868 128 868 l 199 867 q 288 864 254 864 q 388 867 326 864 l 449 868 q 451 860 451 868 q 449 851 451 851 q 371 830 392 851 q 339 747 350 808 l 263 318 q 254 228 254 268 q 301 80 254 128 q 432 32 347 32 q 611 97 540 32 q 701 275 682 161 l 776 696 q 781 743 781 721 q 757 823 781 794 q 689 851 733 851 q 685 860 685 851 q 689 868 686 868 l 750 867 q 825 864 797 864 q 922 878 885 864 q 961 924 960 893 q 954 957 963 935 q 946 992 946 976 q 947 1006 946 1001 q 973 1049 953 1033 q 1017 1064 993 1064 q 1057 1046 1043 1064 q 1071 999 1071 1028 q 1069 979 1071 986 q 1039 917 1063 943 q 990 878 1015 892 q 919 846 964 865 q 856 797 879 828 q 817 686 832 765 l 743 267 m 710 943 q 401 1050 554 1013 q 417 1069 385 1053 q 492 1097 450 1085 q 542 1101 535 1108 l 607 1046 q 715 957 668 993 q 719 951 719 956 q 717 944 719 947 q 710 943 714 942 z "},"Ử":{"ha":863,"x_min":111,"x_max":1071,"o":"m 743 267 q 621 58 719 135 q 385 -19 522 -19 q 185 44 258 -19 q 111 219 111 108 q 117 279 111 251 l 203 760 q 208 806 208 796 q 192 842 208 833 q 132 851 175 851 q 128 860 128 851 q 131 868 128 868 l 199 867 q 288 864 254 864 q 388 867 326 864 l 449 868 q 451 860 451 868 q 449 851 451 851 q 371 830 392 851 q 339 747 350 808 l 263 318 q 254 228 254 268 q 301 80 254 128 q 432 32 347 32 q 611 97 540 32 q 701 275 682 161 l 776 696 q 781 743 781 721 q 757 823 781 794 q 689 851 733 851 q 685 860 685 851 q 689 868 686 868 l 750 867 q 825 864 797 864 q 922 878 885 864 q 961 924 960 893 q 954 957 963 935 q 946 992 946 976 q 947 1006 946 1001 q 973 1049 953 1033 q 1017 1064 993 1064 q 1057 1046 1043 1064 q 1071 999 1071 1028 q 1069 979 1071 986 q 1039 917 1063 943 q 990 878 1015 892 q 919 846 964 865 q 856 797 879 828 q 817 686 832 765 l 743 267 m 583 907 q 576 903 583 904 q 567 907 568 903 q 564 938 564 929 q 569 977 564 960 q 583 1022 574 994 q 598 1063 593 1046 q 603 1099 603 1079 q 564 1147 603 1147 q 514 1133 544 1147 l 511 1133 q 503 1138 507 1133 q 504 1146 500 1142 q 618 1185 554 1185 q 689 1165 663 1185 q 715 1111 715 1146 q 697 1058 715 1082 q 643 997 679 1033 q 598 947 613 967 q 583 907 583 928 z "},"Ữ":{"ha":863,"x_min":111,"x_max":1071,"o":"m 743 267 q 621 58 719 135 q 385 -19 522 -19 q 185 44 258 -19 q 111 219 111 108 q 117 279 111 251 l 203 760 q 208 806 208 796 q 192 842 208 833 q 132 851 175 851 q 128 860 128 851 q 131 868 128 868 l 199 867 q 288 864 254 864 q 388 867 326 864 l 449 868 q 451 860 451 868 q 449 851 451 851 q 371 830 392 851 q 339 747 350 808 l 263 318 q 254 228 254 268 q 301 80 254 128 q 432 32 347 32 q 611 97 540 32 q 701 275 682 161 l 776 696 q 781 743 781 721 q 757 823 781 794 q 689 851 733 851 q 685 860 685 851 q 689 868 686 868 l 750 867 q 825 864 797 864 q 922 878 885 864 q 961 924 960 893 q 954 957 963 935 q 946 992 946 976 q 947 1006 946 1001 q 973 1049 953 1033 q 1017 1064 993 1064 q 1057 1046 1043 1064 q 1071 999 1071 1028 q 1069 979 1071 986 q 1039 917 1063 943 q 990 878 1015 892 q 919 846 964 865 q 856 797 879 828 q 817 686 832 765 l 743 267 m 408 985 q 401 988 404 985 q 400 994 399 992 q 464 1074 431 1042 q 538 1107 497 1107 q 603 1093 553 1107 q 656 1078 628 1085 q 706 1072 683 1072 q 753 1081 735 1072 q 793 1110 772 1089 q 796 1111 793 1111 q 801 1107 799 1111 q 803 1100 804 1103 q 734 1011 761 1033 q 671 989 707 989 q 593 1004 644 989 q 544 1017 569 1011 q 497 1022 519 1022 q 449 1015 464 1022 q 410 985 435 1008 l 408 985 z "},"Ű":{"ha":861,"x_min":111,"x_max":954,"o":"m 776 696 q 781 743 781 721 q 757 823 781 794 q 689 851 733 851 q 685 860 685 851 q 689 868 686 868 l 750 867 q 825 864 797 864 q 897 867 853 864 l 950 868 q 955 860 956 868 q 950 851 954 851 q 865 806 900 851 q 817 686 829 761 l 743 267 q 621 58 719 135 q 385 -19 522 -19 q 185 44 258 -19 q 111 219 111 108 q 117 279 111 251 l 203 760 q 208 806 208 796 q 192 842 208 833 q 132 851 175 851 q 128 860 128 851 q 131 868 128 868 l 199 867 q 288 864 254 864 q 388 867 326 864 l 449 868 q 451 860 451 868 q 449 851 451 851 q 371 830 392 851 q 339 747 350 808 l 263 318 q 254 225 254 267 q 301 79 254 126 q 435 32 347 32 q 611 97 540 32 q 701 275 682 161 l 776 696 m 400 925 q 394 931 396 925 q 396 942 393 938 l 449 1001 q 538 1110 506 1063 q 554 1115 540 1115 q 606 1107 575 1115 q 656 1088 638 1099 q 663 1067 674 1076 q 614 1042 636 1053 q 574 1021 592 1031 q 403 926 463 969 l 400 925 m 594 925 q 590 931 592 925 q 592 942 588 938 q 647 1006 588 938 q 732 1110 701 1064 q 747 1114 735 1114 q 800 1106 768 1114 q 851 1086 832 1097 q 858 1067 869 1075 q 705 992 758 1019 q 597 926 651 965 l 594 925 z "},"Ū":{"ha":861,"x_min":111,"x_max":954,"o":"m 776 696 q 781 743 781 721 q 757 823 781 794 q 689 851 733 851 q 685 860 685 851 q 689 868 686 868 l 750 867 q 825 864 797 864 q 897 867 853 864 l 950 868 q 955 860 956 868 q 950 851 954 851 q 865 806 900 851 q 817 686 829 761 l 743 267 q 621 58 719 135 q 385 -19 522 -19 q 185 44 258 -19 q 111 219 111 108 q 117 279 111 251 l 203 760 q 208 806 208 796 q 192 842 208 833 q 132 851 175 851 q 128 860 128 851 q 131 868 128 868 l 199 867 q 288 864 254 864 q 388 867 326 864 l 449 868 q 451 860 451 868 q 449 851 451 851 q 371 830 392 851 q 339 747 350 808 l 263 318 q 254 225 254 267 q 301 79 254 126 q 435 32 347 32 q 611 97 540 32 q 701 275 682 161 l 776 696 m 399 990 q 385 1017 385 990 q 388 1034 385 1026 q 399 1042 392 1042 l 747 1042 q 758 1034 754 1042 q 761 1017 761 1026 q 747 990 761 990 l 399 990 z "},"Ų":{"ha":861,"x_min":111,"x_max":956,"o":"m 950 868 q 955 860 956 868 q 950 851 954 851 q 865 806 900 851 q 817 686 829 761 l 743 267 q 651 85 724 157 q 472 -11 579 13 q 402 -120 426 -69 q 378 -228 378 -171 q 395 -296 378 -269 q 447 -322 413 -322 q 513 -294 482 -322 l 514 -293 q 522 -299 518 -293 q 522 -307 525 -304 q 447 -365 482 -347 q 374 -382 413 -382 q 286 -349 318 -382 q 254 -265 254 -317 q 299 -144 254 -203 q 431 -17 344 -86 q 385 -19 400 -19 q 185 44 258 -19 q 111 219 111 108 q 117 279 111 251 l 203 760 q 208 806 208 796 q 192 842 208 833 q 132 851 175 851 q 128 860 128 851 q 131 868 128 868 l 199 867 q 288 864 254 864 q 388 867 326 864 l 449 868 q 451 860 451 868 q 449 851 451 851 q 371 830 392 851 q 339 747 350 808 l 263 318 q 254 225 254 267 q 301 79 254 126 q 435 32 347 32 q 611 97 540 32 q 701 275 682 161 l 776 696 q 781 743 781 721 q 757 823 781 794 q 689 851 733 851 q 685 860 685 851 q 689 868 686 868 l 750 867 q 825 864 797 864 q 897 867 853 864 l 950 868 z "},"Ů":{"ha":861,"x_min":111,"x_max":954,"o":"m 776 696 q 781 743 781 721 q 757 823 781 794 q 689 851 733 851 q 685 860 685 851 q 689 868 686 868 l 750 867 q 825 864 797 864 q 897 867 853 864 l 950 868 q 955 860 956 868 q 950 851 954 851 q 865 806 900 851 q 817 686 829 761 l 743 267 q 621 58 719 135 q 385 -19 522 -19 q 185 44 258 -19 q 111 219 111 108 q 117 279 111 251 l 203 760 q 208 806 208 796 q 192 842 208 833 q 132 851 175 851 q 128 860 128 851 q 131 868 128 868 l 199 867 q 288 864 254 864 q 388 867 326 864 l 449 868 q 451 860 451 868 q 449 851 451 851 q 371 830 392 851 q 339 747 350 808 l 263 318 q 254 225 254 267 q 301 79 254 126 q 435 32 347 32 q 611 97 540 32 q 701 275 682 161 l 776 696 m 582 917 q 474 949 514 917 q 433 1028 433 982 q 483 1106 433 1078 q 594 1135 533 1135 q 699 1103 656 1135 q 743 1024 743 1071 q 694 946 743 975 q 582 917 644 917 m 603 936 q 631 951 622 936 q 640 1000 640 967 q 619 1081 640 1046 q 567 1115 597 1115 q 535 1054 535 1115 q 553 973 535 1010 q 603 936 572 936 z "},"Ũ":{"ha":861,"x_min":111,"x_max":954,"o":"m 776 696 q 781 743 781 721 q 757 823 781 794 q 689 851 733 851 q 685 860 685 851 q 689 868 686 868 l 750 867 q 825 864 797 864 q 897 867 853 864 l 950 868 q 955 860 956 868 q 950 851 954 851 q 865 806 900 851 q 817 686 829 761 l 743 267 q 621 58 719 135 q 385 -19 522 -19 q 185 44 258 -19 q 111 219 111 108 q 117 279 111 251 l 203 760 q 208 806 208 796 q 192 842 208 833 q 132 851 175 851 q 128 860 128 851 q 131 868 128 868 l 199 867 q 288 864 254 864 q 388 867 326 864 l 449 868 q 451 860 451 868 q 449 851 451 851 q 371 830 392 851 q 339 747 350 808 l 263 318 q 254 225 254 267 q 301 79 254 126 q 435 32 347 32 q 611 97 540 32 q 701 275 682 161 l 776 696 m 411 985 q 404 988 407 985 q 403 994 401 992 q 467 1074 433 1042 q 540 1107 500 1107 q 606 1093 556 1107 q 658 1078 631 1085 q 708 1072 686 1072 q 756 1081 738 1072 q 796 1110 775 1089 q 799 1111 796 1111 q 804 1107 801 1111 q 806 1100 807 1103 q 737 1011 764 1033 q 674 989 710 989 q 596 1004 647 989 q 547 1017 572 1011 q 500 1022 522 1022 q 452 1015 467 1022 q 413 985 438 1008 l 411 985 z "},"V":{"ha":832,"x_min":92,"x_max":943,"o":"m 938 868 q 943 860 943 868 q 938 851 943 851 q 851 822 890 851 q 765 703 813 793 l 400 1 q 382 -6 396 -6 q 363 1 365 -6 l 181 753 q 149 830 167 808 q 96 851 131 851 q 92 860 92 851 q 96 868 92 868 l 163 867 q 228 864 207 864 q 338 867 276 864 l 400 868 q 404 860 404 868 q 400 851 404 851 q 340 839 361 851 q 319 796 319 826 q 324 767 319 783 l 461 194 l 721 707 q 742 778 742 749 q 717 832 742 813 q 650 851 692 851 q 646 860 646 851 q 650 868 646 868 l 715 867 q 815 864 768 864 q 878 867 842 864 l 938 868 z "},"W":{"ha":1157,"x_min":92,"x_max":1267,"o":"m 1263 868 q 1267 860 1267 868 q 1263 851 1267 851 q 1176 822 1215 851 q 1090 703 1138 793 l 725 1 q 707 -6 721 -6 q 688 1 690 -6 l 596 379 l 400 1 q 382 -6 396 -6 q 363 1 365 -6 l 181 753 q 149 830 167 808 q 96 851 131 851 q 92 860 92 851 q 96 868 92 868 l 163 867 q 228 864 207 864 q 317 867 269 864 l 367 868 q 372 860 372 868 q 367 851 372 851 q 329 839 344 851 q 314 797 314 826 q 318 767 314 783 l 458 189 l 583 433 l 506 753 q 478 831 492 810 q 438 851 464 851 q 433 860 433 851 q 438 868 433 868 l 494 867 q 553 864 533 864 q 621 867 585 864 l 660 868 q 665 860 665 868 q 660 851 665 851 q 639 847 644 851 q 633 828 633 843 q 643 767 633 807 l 686 589 l 746 707 q 782 814 782 779 q 739 851 782 851 q 736 860 736 851 q 739 868 736 868 l 778 867 q 840 864 814 864 q 892 867 861 864 l 940 868 q 946 860 946 868 q 940 851 946 851 q 893 841 914 851 q 847 799 872 831 q 789 703 822 767 l 700 531 l 782 188 l 1046 707 q 1068 786 1068 750 q 1051 834 1068 817 q 1003 851 1035 851 q 999 860 999 851 q 1003 868 999 868 l 1057 867 q 1140 864 1101 864 q 1203 867 1167 864 l 1263 868 z "},"Ẃ":{"ha":1157,"x_min":92,"x_max":1267,"o":"m 1263 868 q 1267 860 1267 868 q 1263 851 1267 851 q 1176 822 1215 851 q 1090 703 1138 793 l 725 1 q 707 -6 721 -6 q 688 1 690 -6 l 596 379 l 400 1 q 382 -6 396 -6 q 363 1 365 -6 l 181 753 q 149 830 167 808 q 96 851 131 851 q 92 860 92 851 q 96 868 92 868 l 163 867 q 228 864 207 864 q 317 867 269 864 l 367 868 q 372 860 372 868 q 367 851 372 851 q 329 839 344 851 q 314 797 314 826 q 318 767 314 783 l 458 189 l 583 433 l 506 753 q 478 831 492 810 q 438 851 464 851 q 433 860 433 851 q 438 868 433 868 l 494 867 q 553 864 533 864 q 621 867 585 864 l 660 868 q 665 860 665 868 q 660 851 665 851 q 639 847 644 851 q 633 828 633 843 q 643 767 633 807 l 686 589 l 746 707 q 782 814 782 779 q 739 851 782 851 q 736 860 736 851 q 739 868 736 868 l 778 867 q 840 864 814 864 q 892 867 861 864 l 940 868 q 946 860 946 868 q 940 851 946 851 q 893 841 914 851 q 847 799 872 831 q 789 703 822 767 l 700 531 l 782 188 l 1046 707 q 1068 786 1068 750 q 1051 834 1068 817 q 1003 851 1035 851 q 999 860 999 851 q 1003 868 999 868 l 1057 867 q 1140 864 1101 864 q 1203 867 1167 864 l 1263 868 m 606 942 q 599 948 600 942 q 601 957 597 954 q 718 1053 643 988 q 775 1101 772 1099 q 826 1097 783 1108 q 901 1069 868 1085 q 917 1050 933 1053 q 759 1003 831 1029 q 608 943 688 978 l 606 942 z "},"Ŵ":{"ha":1157,"x_min":92,"x_max":1267,"o":"m 1263 868 q 1267 860 1267 868 q 1263 851 1267 851 q 1176 822 1215 851 q 1090 703 1138 793 l 725 1 q 707 -6 721 -6 q 688 1 690 -6 l 596 379 l 400 1 q 382 -6 396 -6 q 363 1 365 -6 l 181 753 q 149 830 167 808 q 96 851 131 851 q 92 860 92 851 q 96 868 92 868 l 163 867 q 228 864 207 864 q 317 867 269 864 l 367 868 q 372 860 372 868 q 367 851 372 851 q 329 839 344 851 q 314 797 314 826 q 318 767 314 783 l 458 189 l 583 433 l 506 753 q 478 831 492 810 q 438 851 464 851 q 433 860 433 851 q 438 868 433 868 l 494 867 q 553 864 533 864 q 621 867 585 864 l 660 868 q 665 860 665 868 q 660 851 665 851 q 639 847 644 851 q 633 828 633 843 q 643 767 633 807 l 686 589 l 746 707 q 782 814 782 779 q 739 851 782 851 q 736 860 736 851 q 739 868 736 868 l 778 867 q 840 864 814 864 q 892 867 861 864 l 940 868 q 946 860 946 868 q 940 851 946 851 q 893 841 914 851 q 847 799 872 831 q 789 703 822 767 l 700 531 l 782 188 l 1046 707 q 1068 786 1068 750 q 1051 834 1068 817 q 1003 851 1035 851 q 999 860 999 851 q 1003 868 999 868 l 1057 867 q 1140 864 1101 864 q 1203 867 1167 864 l 1263 868 m 546 917 q 539 920 542 917 q 539 926 536 924 l 700 1086 q 713 1093 704 1093 q 725 1086 721 1093 l 840 926 l 842 924 q 838 918 842 921 q 831 917 833 915 l 700 969 l 547 917 l 546 917 z "},"Ẅ":{"ha":1157,"x_min":92,"x_max":1267,"o":"m 1263 868 q 1267 860 1267 868 q 1263 851 1267 851 q 1176 822 1215 851 q 1090 703 1138 793 l 725 1 q 707 -6 721 -6 q 688 1 690 -6 l 596 379 l 400 1 q 382 -6 396 -6 q 363 1 365 -6 l 181 753 q 149 830 167 808 q 96 851 131 851 q 92 860 92 851 q 96 868 92 868 l 163 867 q 228 864 207 864 q 317 867 269 864 l 367 868 q 372 860 372 868 q 367 851 372 851 q 329 839 344 851 q 314 797 314 826 q 318 767 314 783 l 458 189 l 583 433 l 506 753 q 478 831 492 810 q 438 851 464 851 q 433 860 433 851 q 438 868 433 868 l 494 867 q 553 864 533 864 q 621 867 585 864 l 660 868 q 665 860 665 868 q 660 851 665 851 q 639 847 644 851 q 633 828 633 843 q 643 767 633 807 l 686 589 l 746 707 q 782 814 782 779 q 739 851 782 851 q 736 860 736 851 q 739 868 736 868 l 778 867 q 840 864 814 864 q 892 867 861 864 l 940 868 q 946 860 946 868 q 940 851 946 851 q 893 841 914 851 q 847 799 872 831 q 789 703 822 767 l 700 531 l 782 188 l 1046 707 q 1068 786 1068 750 q 1051 834 1068 817 q 1003 851 1035 851 q 999 860 999 851 q 1003 868 999 868 l 1057 867 q 1140 864 1101 864 q 1203 867 1167 864 l 1263 868 m 600 976 q 544 997 564 976 q 525 1053 525 1017 q 545 1105 525 1086 q 600 1124 565 1124 q 652 1105 633 1124 q 671 1053 671 1086 q 652 997 671 1017 q 600 976 633 976 m 821 976 q 765 997 785 976 q 746 1053 746 1017 q 766 1105 746 1086 q 821 1124 786 1124 q 873 1105 854 1124 q 892 1053 892 1086 q 873 997 892 1017 q 821 976 854 976 z "},"Ẁ":{"ha":1157,"x_min":92,"x_max":1267,"o":"m 1263 868 q 1267 860 1267 868 q 1263 851 1267 851 q 1176 822 1215 851 q 1090 703 1138 793 l 725 1 q 707 -6 721 -6 q 688 1 690 -6 l 596 379 l 400 1 q 382 -6 396 -6 q 363 1 365 -6 l 181 753 q 149 830 167 808 q 96 851 131 851 q 92 860 92 851 q 96 868 92 868 l 163 867 q 228 864 207 864 q 317 867 269 864 l 367 868 q 372 860 372 868 q 367 851 372 851 q 329 839 344 851 q 314 797 314 826 q 318 767 314 783 l 458 189 l 583 433 l 506 753 q 478 831 492 810 q 438 851 464 851 q 433 860 433 851 q 438 868 433 868 l 494 867 q 553 864 533 864 q 621 867 585 864 l 660 868 q 665 860 665 868 q 660 851 665 851 q 639 847 644 851 q 633 828 633 843 q 643 767 633 807 l 686 589 l 746 707 q 782 814 782 779 q 739 851 782 851 q 736 860 736 851 q 739 868 736 868 l 778 867 q 840 864 814 864 q 892 867 861 864 l 940 868 q 946 860 946 868 q 940 851 946 851 q 893 841 914 851 q 847 799 872 831 q 789 703 822 767 l 700 531 l 782 188 l 1046 707 q 1068 786 1068 750 q 1051 834 1068 817 q 1003 851 1035 851 q 999 860 999 851 q 1003 868 999 868 l 1057 867 q 1140 864 1101 864 q 1203 867 1167 864 l 1263 868 m 804 961 q 680 1006 733 989 q 538 1050 626 1024 q 547 1067 521 1054 q 616 1092 574 1081 q 679 1103 658 1103 q 692 1100 689 1103 q 767 1024 726 1061 l 818 974 q 819 969 819 972 q 815 963 819 965 q 804 961 810 960 z "},"X":{"ha":806,"x_min":-50,"x_max":878,"o":"m 871 868 q 878 860 878 868 q 871 851 878 851 q 769 813 826 851 q 651 697 713 775 l 489 490 l 632 115 q 678 39 653 61 q 747 17 704 17 q 753 8 753 17 q 747 0 753 0 q 692 1 711 0 l 617 3 l 508 1 q 435 0 479 0 q 430 8 429 0 q 435 17 431 17 q 481 27 460 17 q 501 57 501 38 q 499 71 501 60 l 383 375 l 203 143 q 164 63 164 94 q 243 17 164 17 q 249 8 249 17 q 243 0 249 0 q 171 1 200 0 l 64 3 l 8 1 q -44 0 -10 0 q -50 8 -50 0 q -44 17 -50 17 q 57 55 0 17 q 175 171 114 93 l 368 414 l 239 753 q 196 828 219 806 q 138 851 172 851 q 133 860 133 851 q 138 868 133 868 q 190 865 154 868 l 240 864 q 349 867 282 864 l 418 868 q 422 860 422 868 q 418 851 422 851 q 383 842 399 851 q 368 814 368 832 q 372 796 368 807 l 474 531 l 624 725 q 664 807 664 778 q 642 840 664 829 q 583 851 619 851 q 578 860 578 851 q 583 868 578 868 l 654 867 q 764 864 726 864 q 819 867 783 864 l 871 868 z "},"Y":{"ha":743,"x_min":92,"x_max":844,"o":"m 840 868 q 844 860 844 868 q 840 851 844 851 q 651 700 753 851 l 476 435 l 419 113 q 414 65 414 86 q 433 26 414 36 q 504 17 451 17 q 508 8 508 17 q 504 0 508 0 q 435 1 460 0 l 335 3 l 232 1 q 163 0 207 0 q 157 8 157 0 q 163 17 157 17 q 231 24 208 17 q 265 51 253 31 q 283 113 276 71 l 335 418 l 193 753 q 148 828 171 804 q 97 851 125 851 q 92 860 92 851 q 97 868 92 868 l 163 867 q 232 864 210 864 q 328 867 264 864 l 392 868 q 397 860 397 868 q 392 851 397 851 q 340 845 356 851 q 324 822 324 839 q 329 796 324 808 l 463 476 l 625 731 q 649 796 649 767 q 631 836 649 821 q 583 851 614 851 q 578 860 578 851 q 583 868 578 868 l 651 867 q 747 864 713 864 q 796 867 768 864 l 840 868 z "},"Ý":{"ha":743,"x_min":92,"x_max":844,"o":"m 840 868 q 844 860 844 868 q 840 851 844 851 q 651 700 753 851 l 476 435 l 419 113 q 414 65 414 86 q 433 26 414 36 q 504 17 451 17 q 508 8 508 17 q 504 0 508 0 q 435 1 460 0 l 335 3 l 232 1 q 163 0 207 0 q 157 8 157 0 q 163 17 157 17 q 231 24 208 17 q 265 51 253 31 q 283 113 276 71 l 335 418 l 193 753 q 148 828 171 804 q 97 851 125 851 q 92 860 92 851 q 97 868 92 868 l 163 867 q 232 864 210 864 q 328 867 264 864 l 392 868 q 397 860 397 868 q 392 851 397 851 q 340 845 356 851 q 324 822 324 839 q 329 796 324 808 l 463 476 l 625 731 q 649 796 649 767 q 631 836 649 821 q 583 851 614 851 q 578 860 578 851 q 583 868 578 868 l 651 867 q 747 864 713 864 q 796 867 768 864 l 840 868 m 413 942 q 406 948 407 942 q 408 957 404 954 q 525 1053 450 988 q 582 1101 579 1099 q 633 1097 590 1108 q 708 1069 675 1085 q 724 1050 740 1053 q 566 1003 638 1029 q 415 943 494 978 l 413 942 z "},"Ŷ":{"ha":743,"x_min":92,"x_max":844,"o":"m 840 868 q 844 860 844 868 q 840 851 844 851 q 651 700 753 851 l 476 435 l 419 113 q 414 65 414 86 q 433 26 414 36 q 504 17 451 17 q 508 8 508 17 q 504 0 508 0 q 435 1 460 0 l 335 3 l 232 1 q 163 0 207 0 q 157 8 157 0 q 163 17 157 17 q 231 24 208 17 q 265 51 253 31 q 283 113 276 71 l 335 418 l 193 753 q 148 828 171 804 q 97 851 125 851 q 92 860 92 851 q 97 868 92 868 l 163 867 q 232 864 210 864 q 328 867 264 864 l 392 868 q 397 860 397 868 q 392 851 397 851 q 340 845 356 851 q 324 822 324 839 q 329 796 324 808 l 463 476 l 625 731 q 649 796 649 767 q 631 836 649 821 q 583 851 614 851 q 578 860 578 851 q 583 868 578 868 l 651 867 q 747 864 713 864 q 796 867 768 864 l 840 868 m 353 917 q 346 920 349 917 q 346 926 343 924 l 507 1086 q 519 1093 511 1093 q 532 1086 528 1093 l 647 926 l 649 924 q 644 918 649 921 q 638 917 640 915 l 507 969 l 354 917 l 353 917 z "},"Ÿ":{"ha":743,"x_min":92,"x_max":844,"o":"m 840 868 q 844 860 844 868 q 840 851 844 851 q 651 700 753 851 l 476 435 l 419 113 q 414 65 414 86 q 433 26 414 36 q 504 17 451 17 q 508 8 508 17 q 504 0 508 0 q 435 1 460 0 l 335 3 l 232 1 q 163 0 207 0 q 157 8 157 0 q 163 17 157 17 q 231 24 208 17 q 265 51 253 31 q 283 113 276 71 l 335 418 l 193 753 q 148 828 171 804 q 97 851 125 851 q 92 860 92 851 q 97 868 92 868 l 163 867 q 232 864 210 864 q 328 867 264 864 l 392 868 q 397 860 397 868 q 392 851 397 851 q 340 845 356 851 q 324 822 324 839 q 329 796 324 808 l 463 476 l 625 731 q 649 796 649 767 q 631 836 649 821 q 583 851 614 851 q 578 860 578 851 q 583 868 578 868 l 651 867 q 747 864 713 864 q 796 867 768 864 l 840 868 m 407 976 q 351 997 371 976 q 332 1053 332 1017 q 352 1105 332 1086 q 407 1124 372 1124 q 459 1105 440 1124 q 478 1053 478 1086 q 459 997 478 1017 q 407 976 440 976 m 628 976 q 572 997 592 976 q 553 1053 553 1017 q 573 1105 553 1086 q 628 1124 593 1124 q 680 1105 661 1124 q 699 1053 699 1086 q 680 997 699 1017 q 628 976 661 976 z "},"Ẏ":{"ha":743,"x_min":92,"x_max":844,"o":"m 840 868 q 844 860 844 868 q 840 851 844 851 q 651 700 753 851 l 476 435 l 419 113 q 414 65 414 86 q 433 26 414 36 q 504 17 451 17 q 508 8 508 17 q 504 0 508 0 q 435 1 460 0 l 335 3 l 232 1 q 163 0 207 0 q 157 8 157 0 q 163 17 157 17 q 231 24 208 17 q 265 51 253 31 q 283 113 276 71 l 335 418 l 193 753 q 148 828 171 804 q 97 851 125 851 q 92 860 92 851 q 97 868 92 868 l 163 867 q 232 864 210 864 q 328 867 264 864 l 392 868 q 397 860 397 868 q 392 851 397 851 q 340 845 356 851 q 324 822 324 839 q 329 796 324 808 l 463 476 l 625 731 q 649 796 649 767 q 631 836 649 821 q 583 851 614 851 q 578 860 578 851 q 583 868 578 868 l 651 867 q 747 864 713 864 q 796 867 768 864 l 840 868 m 519 990 q 462 1012 483 990 q 440 1071 440 1033 q 462 1126 440 1106 q 519 1146 483 1146 q 576 1126 556 1146 q 596 1071 596 1106 q 576 1012 596 1033 q 519 990 556 990 z "},"Ỵ":{"ha":743,"x_min":92,"x_max":844,"o":"m 840 868 q 844 860 844 868 q 840 851 844 851 q 651 700 753 851 l 476 435 l 419 113 q 414 65 414 86 q 433 26 414 36 q 504 17 451 17 q 508 8 508 17 q 504 0 508 0 q 435 1 460 0 l 335 3 l 232 1 q 163 0 207 0 q 157 8 157 0 q 163 17 157 17 q 231 24 208 17 q 265 51 253 31 q 283 113 276 71 l 335 418 l 193 753 q 148 828 171 804 q 97 851 125 851 q 92 860 92 851 q 97 868 92 868 l 163 867 q 232 864 210 864 q 328 867 264 864 l 392 868 q 397 860 397 868 q 392 851 397 851 q 340 845 356 851 q 324 822 324 839 q 329 796 324 808 l 463 476 l 625 731 q 649 796 649 767 q 631 836 649 821 q 583 851 614 851 q 578 860 578 851 q 583 868 578 868 l 651 867 q 747 864 713 864 q 796 867 768 864 l 840 868 m 311 -282 q 253 -261 274 -282 q 232 -201 232 -240 q 253 -147 232 -168 q 311 -126 275 -126 q 367 -147 347 -126 q 388 -201 388 -168 q 367 -261 388 -240 q 311 -282 347 -282 z "},"Ỳ":{"ha":743,"x_min":92,"x_max":844,"o":"m 840 868 q 844 860 844 868 q 840 851 844 851 q 651 700 753 851 l 476 435 l 419 113 q 414 65 414 86 q 433 26 414 36 q 504 17 451 17 q 508 8 508 17 q 504 0 508 0 q 435 1 460 0 l 335 3 l 232 1 q 163 0 207 0 q 157 8 157 0 q 163 17 157 17 q 231 24 208 17 q 265 51 253 31 q 283 113 276 71 l 335 418 l 193 753 q 148 828 171 804 q 97 851 125 851 q 92 860 92 851 q 97 868 92 868 l 163 867 q 232 864 210 864 q 328 867 264 864 l 392 868 q 397 860 397 868 q 392 851 397 851 q 340 845 356 851 q 324 822 324 839 q 329 796 324 808 l 463 476 l 625 731 q 649 796 649 767 q 631 836 649 821 q 583 851 614 851 q 578 860 578 851 q 583 868 578 868 l 651 867 q 747 864 713 864 q 796 867 768 864 l 840 868 m 611 961 q 487 1006 540 989 q 344 1050 433 1024 q 354 1067 328 1054 q 423 1092 381 1081 q 486 1103 465 1103 q 499 1100 496 1103 q 574 1024 533 1061 l 625 974 q 626 969 626 972 q 622 963 626 965 q 611 961 617 960 z "},"Ỷ":{"ha":743,"x_min":92,"x_max":844,"o":"m 840 868 q 844 860 844 868 q 840 851 844 851 q 651 700 753 851 l 476 435 l 419 113 q 414 65 414 86 q 433 26 414 36 q 504 17 451 17 q 508 8 508 17 q 504 0 508 0 q 435 1 460 0 l 335 3 l 232 1 q 163 0 207 0 q 157 8 157 0 q 163 17 157 17 q 231 24 208 17 q 265 51 253 31 q 283 113 276 71 l 335 418 l 193 753 q 148 828 171 804 q 97 851 125 851 q 92 860 92 851 q 97 868 92 868 l 163 867 q 232 864 210 864 q 328 867 264 864 l 392 868 q 397 860 397 868 q 392 851 397 851 q 340 845 356 851 q 324 822 324 839 q 329 796 324 808 l 463 476 l 625 731 q 649 796 649 767 q 631 836 649 821 q 583 851 614 851 q 578 860 578 851 q 583 868 578 868 l 651 867 q 747 864 713 864 q 796 867 768 864 l 840 868 m 497 907 q 490 903 497 904 q 481 907 482 903 q 478 938 478 929 q 483 977 478 960 q 497 1022 488 994 q 512 1063 507 1046 q 517 1099 517 1079 q 478 1147 517 1147 q 428 1133 458 1147 l 425 1133 q 417 1138 421 1133 q 418 1146 414 1142 q 532 1185 468 1185 q 603 1165 576 1185 q 629 1111 629 1146 q 611 1058 629 1082 q 557 997 593 1033 q 512 947 526 967 q 497 907 497 928 z "}}}
